<?xml version="1.0" encoding="UTF-8"?>
<svg id="Capa_1" data-name="Capa 1" xmlns="http://www.w3.org/2000/svg" xmlns:xlink="http://www.w3.org/1999/xlink" viewBox="0 0 1374.53 1835.81">
  <defs>
    <style>
      .cls-1 {
        font-size: 45.7px;
      }

      .cls-1, .cls-2 {
        font-family: MartelSans-Regular, 'Martel Sans';
      }

      .cls-3 {
        opacity: .5;
      }

      .cls-3, .cls-4 {
        fill: #88b365;
      }

      .cls-5 {
        fill: #c4bcb7;
      }

      .cls-6 {
        letter-spacing: -.05em;
      }

      .cls-7, .cls-8, .cls-9, .cls-10 {
        fill: #fff;
      }

      .cls-11 {
        letter-spacing: -.05em;
      }

      .cls-12 {
        letter-spacing: -.05em;
      }

      .cls-13 {
        letter-spacing: -.05em;
      }

      .cls-2 {
        font-size: 50.73px;
      }

      .cls-14 {
        stroke: #947664;
        stroke-dasharray: 0 0 22.74 37.9;
        stroke-width: 5.31px;
      }

      .cls-14, .cls-15, .cls-16, .cls-17, .cls-18 {
        fill: none;
      }

      .cls-14, .cls-15, .cls-16, .cls-18 {
        stroke-linecap: round;
      }

      .cls-14, .cls-15, .cls-18 {
        stroke-linejoin: round;
      }

      .cls-19 {
        letter-spacing: -.05em;
      }

      .cls-20 {
        fill: #6f8e5b;
        stroke: #b3d28b;
      }

      .cls-20, .cls-16 {
        stroke-miterlimit: 10;
      }

      .cls-20, .cls-18 {
        stroke-width: 3.79px;
      }

      .cls-21, .cls-22, .cls-8 {
        font-family: MartelSans-Bold, 'Martel Sans';
      }

      .cls-21, .cls-8 {
        font-size: 57.13px;
      }

      .cls-15 {
        stroke: #c0a58f;
        stroke-width: 9.1px;
      }

      .cls-23 {
        fill: #998771;
      }

      .cls-24 {
        letter-spacing: -.05em;
      }

      .cls-25 {
        fill: #ad2b30;
      }

      .cls-26 {
        letter-spacing: -.05em;
      }

      .cls-27 {
        fill: #e94a61;
      }

      .cls-22 {
        font-size: 63.42px;
      }

      .cls-28 {
        letter-spacing: -.05em;
      }

      .cls-29 {
        letter-spacing: -.05em;
      }

      .cls-30 {
        letter-spacing: -.05em;
      }

      .cls-31 {
        fill: #9f958f;
      }

      .cls-32 {
        letter-spacing: -.04em;
      }

      .cls-16 {
        stroke: #e94a61;
        stroke-width: 6px;
      }

      .cls-33 {
        letter-spacing: -.05em;
      }

      .cls-9 {
        letter-spacing: -.05em;
      }

      .cls-9, .cls-34, .cls-10 {
        font-family: SassoonSansStd-Bold, 'Sassoon Sans Std';
      }

      .cls-9, .cls-10 {
        font-size: 58.46px;
      }

      .cls-35 {
        fill: #645b56;
      }

      .cls-34 {
        fill: #68802a;
        font-size: 70px;
        letter-spacing: -.05em;
      }

      .cls-36 {
        letter-spacing: -.05em;
      }

      .cls-37 {
        clip-path: url(#clippath);
      }

      .cls-38 {
        letter-spacing: -.05em;
      }

      .cls-39 {
        fill: #eee7e0;
      }

      .cls-40 {
        letter-spacing: -.05em;
      }

      .cls-41 {
        letter-spacing: -.05em;
      }

      .cls-18 {
        stroke: #fff;
      }

      .cls-42 {
        fill: #1166b0;
      }

      .cls-10 {
        letter-spacing: -.05em;
      }
    </style>
    <clipPath id="clippath">
      <path class="cls-17" d="M848,1767.21l40.79-21.42c1.55-.81,3.39-.8,4.92,.03l40.54,21.92c4.33,2.34,9.19-2.03,7.47-6.71l-44.87-122.42c-1.71-4.68-8.18-4.72-9.94-.06l-46.3,121.86c-1.77,4.66,3.04,9.09,7.39,6.8Z"/>
    </clipPath>
  </defs>
  <path class="cls-3" d="M292.92,1530.5c-1.01-12.54-1.55-25.12-1.62-37.69-.05-8.77,.31-18.13,5.35-25.31,7.64-10.89,23.13-12.95,32.83-22.05,17.85-16.74,8.99-48.43,23.23-68.34,7.54-10.54,20.9-16.66,25.86-28.63,3.33-8.04,2.14-17.18,.4-25.7-3.74-18.3-9.82-36.13-18.03-52.91-3.17-6.48-6.76-13.22-6.38-20.43,.53-9.98,8.49-17.93,16.78-23.51,28.28-19.07,65.22-22.53,92.39-43.15,18.38-13.95,31.93-35.45,53.89-42.54,5.79-1.87,12.01-2.65,17.27-5.71,16.72-9.72,14.75-32.99,14.51-49.47-.4-27,0-54.05,0-81.05,0-9.02-.11-18.48-4.48-26.37-5.49-9.91-16.72-15.5-22.58-25.19-8.24-13.63-3.8-31.06,.88-46.29,2.61-8.49,5.47-17.41,12.01-23.42,7.82-7.19,19.22-8.73,28.45-13.99,25.13-14.32,27.12-50.17,46-72.09,11.71-13.6,29.07-20.8,46.05-26.62,32.78-11.23,66.72-19.08,101.11-23.38,8.5-1.06,17.1-1.92,25.26-4.55,16.87-5.43,32.32-18.4,49.91-16.25l-.12,.18c39.66,3.9,77.08,9.68,113.57,19.63l99.27,37.56c27.62,7.53,54.7,17.45,81.81,30.74,13.82,6.78,28.08,14.76,35.78,28.09,5.27,9.12,6.9,19.83,8.26,30.28,4.33,33.29,6.85,66.81,7.56,100.36,.62,29.34,.62,61.15,18.42,84.48,7.92,10.38,18.79,18.16,27.16,28.19,20.29,24.32,23.37,58.22,25.56,89.82,1.03,14.84,2.03,30.01-1.87,44.37-3.71,13.69-11.66,25.81-16.91,38.99-7.36,18.47-9.32,38.77-16.88,57.16-8.97,21.8-25.26,39.65-41.23,56.99-20.06,21.79-40.11,43.58-60.17,65.37-21.68,23.55-44.61,47.95-74.8,58.59-69.63,24.54-146.75-32.75-218.1-13.77-36.93,9.83-66.4,38.91-103.28,48.93-17.74,4.82-36.36,4.98-54.74,5.62-51.32,1.78-102.51,7.52-152.95,17.15-30.65,5.85-63.35,14.53-82.99,38.78"/>
  <path class="cls-15" d="M428.42,1593.01c19.64-24.25,52.34-32.93,82.99-38.78,50.44-9.63,101.63-15.37,152.95-17.15,18.38-.64,36.99-.8,54.74-5.62,36.88-10.02,66.35-39.11,103.28-48.93,71.34-18.98,148.47,38.31,218.1,13.77,30.19-10.64,53.12-35.04,74.8-58.59,20.06-21.79,40.11-43.58,60.17-65.37,15.97-17.35,32.26-35.19,41.23-56.99,7.57-18.39,9.53-38.68,16.88-57.16,5.25-13.18,13.2-25.3,16.91-38.99,3.9-14.36,2.9-29.53,1.87-44.37-2.19-31.6-5.27-65.5-25.56-89.82-8.37-10.03-19.24-17.81-27.16-28.19-17.8-23.33-17.8-55.14-18.42-84.48-.71-33.56-3.23-67.08-7.56-100.36-1.36-10.44-2.99-21.15-8.26-30.28-1.79-3.1-3.95-5.9-6.36-8.47l15.76,6.21c28.32-23.41,65.59-73.69,90.8-100.42,4.75-5.04,9.54-10.28,12.22-16.68,4.07-9.72,8.69-19.14,11.06-29.41,6.42-27.91,19.21-50.73,44.99-67.78,12.42-8.21,20.77-8.53,29.28-20.27,8.65-11.93,6.61-35.94,6.7-49.79,.19-30.18,.19-61.35-11.73-89.08-19.29-44.86-65.96-72.31-89.62-115.03-8.62-15.56-14-32.86-23.76-47.73-31.35-47.73-95.73-56.84-149.17-76.98-77.7-29.28-142.5-91.22-175.24-167.53-4.63-10.8-8.9-22.23-17.37-30.37-6.81-6.54-15.77-10.34-24.71-13.36-26.74-9.03-55.42-12.29-83.5-9.48-4.66,.47-9.66,1.27-12.94,4.61-2.91,2.96-3.83,7.3-4.46,11.41-7.02,46.39,9.32,95.72,42.64,128.75,13.97,13.85,31,25.34,40.43,42.6,6.04,11.04,8.48,23.62,11.56,35.83,14.84,58.8,46.61,113.23,90.51,155.07,8.22,7.84,17,15.42,22.7,25.24,4.58,7.89,6.93,16.84,9,25.73,16.28,70.04,25.2,150.56-3.62,216.44-8.62,19.71-14.84,26.23-25.25,41.26-10.41,15.03-46.23,39.69-64.5,39.05l15.48,6.1c-26.3-5.46-53.25-9.17-81.33-11.94l.12-.18c-17.59-2.15-33.05,10.82-49.91,16.25-8.16,2.63-16.76,3.49-25.26,4.55-34.39,4.3-68.33,12.15-101.11,23.38-16.98,5.82-34.34,13.02-46.05,26.62-18.88,21.92-20.87,57.77-46,72.09-9.23,5.26-20.63,6.8-28.45,13.99-6.54,6.01-9.41,14.93-12.01,23.42-4.67,15.23-9.12,32.66-.88,46.29,5.86,9.69,17.09,15.29,22.58,25.19,4.37,7.89,4.48,17.35,4.48,26.37,0,27.01-.4,54.05,0,81.05,.24,16.48,2.21,39.76-14.51,49.47-5.26,3.06-11.48,3.84-17.27,5.71-21.96,7.08-35.51,28.59-53.89,42.54-27.17,20.62-64.11,24.09-92.39,43.15-8.28,5.58-16.25,13.54-16.78,23.51-.38,7.21,3.2,13.95,6.38,20.43,8.21,16.78,14.28,34.61,18.03,52.91,1.74,8.53,2.93,17.66-.4,25.7-4.96,11.97-18.32,18.1-25.86,28.63-14.23,19.9-5.38,51.6-23.23,68.34-9.7,9.1-25.2,11.16-32.83,22.05-5.04,7.18-5.4,16.54-5.35,25.31,.07,12.58,.61,25.16,1.62,37.69"/>
  <path class="cls-14" d="M295.99,1530.16c-1.01-12.54-1.55-25.12-1.62-37.69-.05-8.77,.31-18.13,5.35-25.31,7.64-10.89,23.13-12.95,32.83-22.05,17.85-16.74,8.99-48.43,23.23-68.34,7.54-10.54,20.9-16.66,25.86-28.63,3.33-8.04,2.14-17.18,.4-25.7-3.74-18.3-9.82-36.13-18.03-52.91-3.17-6.48-6.76-13.22-6.38-20.43,.53-9.98,8.49-17.93,16.78-23.51,28.28-19.07,65.22-22.53,92.39-43.15,18.38-13.95,31.93-35.45,53.89-42.54,5.79-1.87,12.01-2.65,17.27-5.71,16.72-9.72,14.75-32.99,14.51-49.47-.4-27,0-54.05,0-81.05,0-9.02-.11-18.48-4.48-26.37-5.49-9.91-16.72-15.5-22.58-25.19-8.24-13.63-3.8-31.06,.88-46.29,2.61-8.49,5.47-17.41,12.01-23.42,7.82-7.19,19.22-8.73,28.45-13.99,25.13-14.32,27.12-50.17,46-72.09,11.71-13.6,29.07-20.8,46.05-26.62,32.78-11.23,66.72-19.08,101.11-23.38,8.5-1.06,17.1-1.92,25.26-4.55,16.87-5.43,32.32-18.4,49.91-16.25l-.12,.18c39.66,3.9,77.08,9.68,113.57,19.63l99.27,37.56c27.62,7.53,54.7,17.45,81.81,30.74,13.82,6.78,28.08,14.76,35.78,28.09,5.27,9.12,6.9,19.83,8.26,30.28,4.33,33.29,6.85,66.81,7.56,100.36,.62,29.34,.62,61.15,18.42,84.48,7.92,10.38,18.79,18.16,27.16,28.19,20.29,24.32,23.37,58.22,25.56,89.82,1.03,14.84,2.03,30.01-1.87,44.37-3.71,13.69-11.66,25.81-16.91,38.99-7.36,18.47-9.32,38.77-16.88,57.16-8.97,21.8-25.26,39.65-41.23,56.99-20.06,21.79-40.11,43.58-60.17,65.37-21.68,23.55-44.61,47.95-74.8,58.59-69.63,24.54-146.75-32.75-218.1-13.77-36.93,9.83-66.4,38.91-103.28,48.93-17.74,4.82-36.36,4.98-54.74,5.62-51.32,1.78-102.51,7.52-152.95,17.15-30.65,5.85-63.35,14.53-82.99,38.78"/>
  <g>
    <rect class="cls-35" x="303.09" y="1647.69" width="120.19" height="88.84"/>
    <rect class="cls-35" x="36.58" y="1647.69" width="261.29" height="88.84"/>
    <path class="cls-5" d="M266.51,1590.21h124.06c.85,0,1.65,.41,2.14,1.11l40,56.78c1.68,1.87,.33,4.82-2.2,4.82h-7.41c-.44,0-.87-.11-1.25-.32l-7.3-3.97c-1.02-.55-2.28-.37-3.1,.45l-2.51,2.51c-.8,.8-2.01,.99-3.02,.49l-7.08-3.54c-1.01-.5-2.22-.31-3.02,.49l-2.56,2.56c-.8,.8-2.01,.99-3.02,.49l-7.8-3.9c-.62-.31-1.34-.36-1.99-.14l-13.62,4.54c-.66,.22-1.37,.17-1.99-.14l-8.31-4.16c-.74-.37-1.6-.37-2.34,0l-8.11,4.06c-.74,.37-1.6,.37-2.34,0l-8.11-4.06c-.74-.37-1.6-.37-2.34,0l-9.28,4.64-57.48-62.71"/>
    <rect class="cls-35" y="1754.88" width="334.45" height="13.01" rx="2.13" ry="2.13"/>
    <g>
      <rect class="cls-23" x="31.35" y="1640.37" width="6.5" height="117.06" rx="2.14" ry="2.14"/>
      <rect class="cls-23" x="129.37" y="1640.37" width="6.5" height="117.06" rx="2.14" ry="2.14"/>
      <rect class="cls-23" x="31.35" y="1684.27" width="104.52" height="6.5" rx="2.14" ry="2.14"/>
      <rect class="cls-23" x="31.35" y="1730.02" width="104.05" height="6.5" rx="2.14" ry="2.14"/>
      <rect class="cls-23" x="23.68" y="1706.47" width="68.98" height="6.5" rx="1.96" ry="1.96" transform="translate(-1191.92 541.89) rotate(-45)"/>
      <rect class="cls-23" x="70.71" y="1706.47" width="68.98" height="6.5" rx="1.96" ry="1.96" transform="translate(-1029.37 2993.06) rotate(-135)"/>
      <rect class="cls-23" x="78.39" y="1684.5" width="6.5" height="52.03" rx="2.14" ry="2.14"/>
    </g>
    <g>
      <rect class="cls-23" x="198.58" y="1640.37" width="6.5" height="117.06" rx="2.14" ry="2.14"/>
      <rect class="cls-23" x="296.59" y="1640.37" width="6.5" height="117.06" rx="2.14" ry="2.14"/>
      <rect class="cls-23" x="198.58" y="1684.27" width="104.52" height="6.5" rx="2.14" ry="2.14"/>
      <rect class="cls-23" x="198.58" y="1730.02" width="104.05" height="6.5" rx="2.14" ry="2.14"/>
      <rect class="cls-23" x="190.9" y="1706.47" width="68.98" height="6.5" rx="1.96" ry="1.96" transform="translate(-1142.94 660.14) rotate(-45)"/>
      <rect class="cls-23" x="237.93" y="1706.47" width="68.98" height="6.5" rx="1.96" ry="1.96" transform="translate(-743.9 3111.3) rotate(-135)"/>
      <rect class="cls-23" x="245.61" y="1684.5" width="6.5" height="52.03" rx="2.14" ry="2.14"/>
    </g>
    <path class="cls-39" d="M172.45,1477.6l155.89,174.73c1.98,2.26,.39,5.81-2.6,5.81h-6.35c-.41,0-.82-.1-1.18-.28l-8.19-4.16c-1.02-.52-2.25-.31-3.05,.5l-2.54,2.58c-.8,.81-2.03,1.01-3.05,.5l-7.56-3.84c-.74-.38-1.62-.38-2.37,0l-8.29,4.21c-.63,.32-1.36,.37-2.02,.15l-13.59-4.6c-.67-.23-1.39-.17-2.02,.15l-7.77,3.95c-1.02,.52-2.25,.31-3.05-.5l-2.54-2.58c-.8-.81-2.03-1.01-3.05-.5l-7.77,3.95c-.63,.32-1.36,.37-2.02,.15l-13.59-4.6c-.67-.23-1.39-.17-2.02,.15l-7.77,3.95c-1.02,.52-2.25,.31-3.05-.5l-8.34-8.48c-.49-.5-1.16-.78-1.86-.78h-70.97c-.7,0-1.37,.28-1.86,.78l-8.34,8.48c-.8,.81-2.03,1.01-3.05,.5l-7.77-3.95c-.63-.32-1.36-.37-2.02-.15l-13.59,4.6c-.67,.23-1.39,.17-2.02-.15l-7.77-3.95c-1.02-.52-2.25-.31-3.05,.5l-2.54,2.58c-.8,.81-2.03,1.01-3.05,.5l-7.77-3.95c-.63-.32-1.36-.37-2.02-.15l-13.59,4.6c-.67,.23-1.39,.17-2.02-.15l-8.29-4.21c-.74-.38-1.62-.38-2.37,0l-7.56,3.84c-1.02,.52-2.25,.31-3.05-.5l-2.54-2.58c-.8-.81-2.03-1.01-3.05-.5l-8.19,4.16c-.37,.19-.77,.28-1.18,.28h-6.35c-2.99,0-4.58-3.56-2.6-5.81l155.89-174.73s5.23-5.31,10.45,0Z"/>
    <g>
      <path class="cls-5" d="M52.26,1614.8c-.04-2.24,1.4-3.36,2.49-4.72,16.79-20.87,34.32-40.83,52.09-60.44,14.42-15.91,29.36-31.17,45.04-45.29,1.24-1.12,2.64-1.96,4.03-2.98,1.07,2.3-.42,3.03-1.26,3.93-20.04,21.63-40.13,43.2-60.16,64.86-13.04,14.1-25.99,28.31-38.97,42.49-.95,1.04-1.81,2.22-3.24,2.18l-.02-.02Z"/>
      <path class="cls-5" d="M235.98,1631.13c-17.94-42.61-39.59-82.53-60.78-122.79,28.1,35.26,47.54,76.79,60.78,122.79Z"/>
      <path class="cls-5" d="M165.38,1524.41c-5.47,16.57-10.92,33.16-16.4,49.72-7.09,21.4-13.74,42.97-18.71,65.26-.16,.71-.42,1.39-1.47,1.9,1.18-8.08,2.32-16.17,3.54-24.25,3.2-21.25,8.75-41.63,16.3-61.15,4.03-10.4,8.67-20.48,14.49-29.66,.62-.97,1.15-1.82,2.23-1.84l.02,.02Z"/>
      <path class="cls-5" d="M186.97,1504.33c31.94,30.45,58.58,67.22,84.77,104.52l-1.1,1.32c-28.2-34.81-56.4-69.61-84.6-104.42l.94-1.43Z"/>
      <path class="cls-5" d="M151.01,1517.46c-2.68,6.7-7.45,11.33-11.48,16.64-18.48,24.34-36.96,48.67-55.12,73.36-3.53,4.8-6.46,10.39-11.94,15.15,1.31-5.92,4.13-9.05,6.32-12.34,18.12-27.25,36.92-53.78,58.13-77.67,3.49-3.93,6.77-8.12,10.17-12.16,1.12-1.33,2.06-3.04,3.9-3.01l.02,.02Z"/>
      <path class="cls-5" d="M89.41,1640.75c12.4-34.13,30.85-63.16,49.64-91.93l1.16,.94c-16.93,30.33-33.87,60.67-50.8,91Z"/>
      <path class="cls-5" d="M168.2,1550.52c4.32,30.61,3.31,61.26,.51,91.94-3.12-30.62-1.52-61.28-.51-91.94Z"/>
      <path class="cls-5" d="M173.05,1530.19c3.73,2.16,5.16,6.62,6.7,10.66,9.29,24.34,14.44,50.24,19.13,76.29,.13,.72,.02,1.5-.37,2.36-7.92-30.03-17.12-59.48-25.47-89.29l.02-.02Z"/>
      <path class="cls-5" d="M243.82,1599.83c-6.68-10.43-13.16-20.56-19.65-30.68-4.28-6.67-8.59-13.31-12.89-19.96-.84-1.29-2.72-2.73-1.22-4.25,1.46-1.48,2.43,1.1,3.3,2.2,11.9,15.1,21.45,32.35,30.84,49.74,.33,.62,.69,1.33-.37,2.95Z"/>
      <path class="cls-5" d="M58.01,1621.75c7.96-12.01,15.73-24.25,26.84-32.45l.02,.02c.03,1.73-.9,2.79-1.8,3.9-7.47,9.21-14.93,18.42-22.38,27.65-.77,.95-1.71,.87-2.65,.9l-.02-.02Z"/>
      <path class="cls-5" d="M151.86,1608.08c.78-14.14,.96-28.45,7.4-41.05-2.47,13.68-4.93,27.36-7.4,41.05Z"/>
      <path class="cls-5" d="M201.66,1583.59c3.85,5.92,6.19,12.57,7.04,19.97-2.35-6.66-4.69-13.31-7.04-19.97Z"/>
    </g>
    <g>
      <path class="cls-31" d="M330.31,1645.55c-9.33-16.78-20.15-32.32-30.79-48.01,13.43,13.37,23.37,29.65,30.79,48.01Z"/>
      <path class="cls-31" d="M304.44,1595.43c14.91,11.24,27.77,25.29,40.46,39.58l-.43,.58c-13.46-13.18-26.92-26.36-40.38-39.54l.35-.62Z"/>
      <path class="cls-31" d="M332.52,1632.4c-3.27-4.02-6.44-7.92-9.62-11.82-2.1-2.57-4.2-5.13-6.3-7.69-.41-.5-1.27-1.01-.69-1.69,.57-.66,1.09,.35,1.51,.77,5.7,5.73,10.46,12.44,15.15,19.2,.17,.24,.35,.52-.05,1.22Z"/>
    </g>
    <g>
      <path class="cls-31" d="M396.6,1645.55c-9.33-16.78-20.15-32.32-30.79-48.01,13.43,13.37,23.37,29.65,30.79,48.01Z"/>
      <path class="cls-31" d="M370.73,1595.43c14.91,11.24,27.77,25.29,40.46,39.58l-.43,.58c-13.46-13.18-26.92-26.36-40.38-39.54l.35-.62Z"/>
      <path class="cls-31" d="M398.81,1632.4c-3.27-4.02-6.44-7.92-9.62-11.82-2.1-2.57-4.2-5.13-6.3-7.69-.41-.5-1.27-1.01-.69-1.69,.57-.66,1.09,.35,1.51,.77,5.7,5.73,10.46,12.44,15.15,19.2,.17,.24,.35,.52-.05,1.22Z"/>
    </g>
    <g>
      <path class="cls-31" d="M365.24,1645.55c-9.33-16.78-20.15-32.32-30.79-48.01,13.43,13.37,23.37,29.65,30.79,48.01Z"/>
      <path class="cls-31" d="M339.38,1595.43c14.91,11.24,27.77,25.29,40.46,39.58l-.43,.58c-13.46-13.18-26.92-26.36-40.38-39.54l.35-.62Z"/>
      <path class="cls-31" d="M367.45,1632.4c-3.27-4.02-6.44-7.92-9.62-11.82-2.1-2.57-4.2-5.13-6.3-7.69-.41-.5-1.27-1.01-.69-1.69,.57-.66,1.09,.35,1.51,.77,5.7,5.73,10.46,12.44,15.15,19.2,.17,.24,.35,.52-.05,1.22Z"/>
    </g>
  </g>
  <text class="cls-7" transform="translate(632.62 1053.44)"><tspan class="cls-21"><tspan class="cls-28" x="0" y="0">Sendero para niños</tspan></tspan><tspan class="cls-1"><tspan x="0" y="54.84">500m</tspan></tspan></text>
  <g>
    <path class="cls-42" d="M165.91,1460.51c-5.29-9.18-10.35-17.81-15.22-26.55-1.18-2.12-2.6-2.83-4.93-2.8-8.68,.11-17.36-.17-26.03,.1-11.8,.37-21.15-10.04-21.1-21.5,.09-18.4,0-36.79,.03-55.19,.03-13,8.73-21.87,21.67-21.89,21.17-.04,42.33,.1,63.5,.12,9.13,0,18.26-.12,27.39-.14,13.48-.03,22.02,8.52,22.03,22.06,.02,18.16-.29,36.33,.11,54.49,.27,12.24-9.61,22.67-21.86,22.06-8.08-.4-16.2,.14-24.29-.16-3.3-.12-4.95,1.15-6.42,3.83-4.22,7.66-8.62,15.21-12.97,22.79-.46,.79-1.04,1.51-1.92,2.78Z"/>
    <g>
      <path class="cls-7" d="M218.77,1393c.34,1.43,.08,2.83-.78,4.21-.86,1.39-1.99,2.25-3.42,2.59l-84.04,19.94c-1.63,.39-3.07,.19-4.33-.59s-2.08-1.98-2.47-3.61l-2.75-11.61c1.54-.8,2.84-2.08,3.92-3.83,1.64-2.66,2.11-5.48,1.45-8.49-.66-3.01-2.32-5.33-4.97-6.97-1.39-.86-3.23-1.4-5.53-1.59l-2.55-11.51c-.39-1.63-.19-3.07,.59-4.33,.78-1.27,1.98-2.08,3.61-2.47l84.04-19.94c1.43-.34,2.83-.08,4.21,.78,1.39,.86,2.25,1.99,2.59,3.42l2.56,11.5c-1.62,.92-2.91,2.2-3.92,3.83-1.64,2.66-2.07,5.45-1.31,8.46,.76,3.01,2.47,5.31,5.11,6.94,1.63,1.01,3.39,1.57,5.22,1.66l2.77,11.62"/>
      <g>
        <path class="cls-42" d="M188.58,1396.93c-5.84,1.45-11.67,2.88-17.51,4.32-5.91,1.45-11.81,2.91-17.72,4.37-1.15,.29-2.11,0-2.79-.93-.66-.9-.82-1.93-.27-2.97,.36-.67,.91-1.11,1.66-1.29,1.3-.31,2.59-.69,3.91-.95,.92-.18,1.17-.53,.92-1.48-.89-3.4-1.71-6.81-2.54-10.23-.28-1.16,.16-2.24,1.1-2.83,1.04-.66,2.34-.6,3.25,.15,.54,.43,.77,1.02,.92,1.67,.79,3.23,1.59,6.47,2.4,9.7q.35,1.42,1.81,1.06c.77-.19,1.54-.43,2.33-.56,.88-.15,1.09-.54,.86-1.42-.88-3.39-1.72-6.81-2.53-10.23-.49-2.06,1.32-3.81,3.33-3.24,1.02,.29,1.63,.98,1.89,2.03,.81,3.38,1.68,6.75,2.48,10.13,.2,.85,.52,1.17,1.41,.89,.89-.29,1.81-.51,2.74-.68,.84-.15,1.03-.53,.82-1.35-.88-3.44-1.72-6.88-2.56-10.33-.29-1.19,.22-2.34,1.2-2.89,1.09-.61,2.36-.48,3.24,.3,.49,.43,.69,1,.83,1.61,.82,3.34,1.66,6.68,2.45,10.02,.19,.82,.5,1.09,1.35,.84,1.21-.36,2.45-.63,3.69-.93,1.82-.44,3.1,.27,3.49,1.94,.38,1.61-.42,2.83-2.18,3.26Z"/>
        <path class="cls-42" d="M185.23,1371.75c.09-1.33-.56-2.35-1.98-2.91-6.76-2.7-13.51-5.39-20.28-8.07-1.45-.57-2.58-.29-3.6,.9-4.72,5.49-9.43,10.99-14.13,16.49-1.05,1.23-1.18,2.42-.45,3.59,.65,1.04,1.74,1.39,3.26,1.01,5.76-1.42,11.53-2.84,17.29-4.27,5.83-1.44,11.67-2.88,17.5-4.32,1.51-.37,2.3-1.19,2.39-2.43Zm-30.46,3.73c2.5-2.91,4.85-5.65,7.19-8.39,.36-.42,.71-.52,1.23-.31,3.35,1.35,6.71,2.67,10.27,4.09-6.29,1.56-12.38,3.06-18.7,4.61Z"/>
      </g>
    </g>
  </g>
  <g>
    <circle class="cls-20" cx="545.83" cy="1110.77" r="31.8"/>
    <text class="cls-10" transform="translate(529.72 1128.35)"><tspan x="0" y="0">2</tspan></text>
  </g>
  <g>
    <circle class="cls-20" cx="604.26" cy="811.89" r="31.8"/>
    <text class="cls-10" transform="translate(588.14 829.48)"><tspan x="0" y="0">3</tspan></text>
  </g>
  <g>
    <circle class="cls-20" cx="891.15" cy="734.38" r="31.8"/>
    <text class="cls-10" transform="translate(874.01 752.99)"><tspan x="0" y="0">4</tspan></text>
  </g>
  <g>
    <circle class="cls-20" cx="1168.23" cy="855.85" r="31.8"/>
    <text class="cls-10" transform="translate(1153.08 875.34)"><tspan x="0" y="0">5</tspan></text>
  </g>
  <g>
    <circle class="cls-20" cx="1246.51" cy="1140.81" r="31.8"/>
    <text class="cls-10" transform="translate(1229.37 1159.43)"><tspan x="0" y="0">6</tspan></text>
  </g>
  <g>
    <circle class="cls-20" cx="1149.76" cy="1392.22" r="31.8"/>
    <text class="cls-10" transform="translate(1135.3 1413.96)"><tspan x="0" y="0">7</tspan></text>
  </g>
  <g>
    <circle class="cls-20" cx="833.82" cy="1482.37" r="31.8"/>
    <text class="cls-10" transform="translate(817.74 1502.57)"><tspan x="0" y="0">8</tspan></text>
  </g>
  <g>
    <path class="cls-18" d="M984.02,821.59l-25.8-25.76c4.06,23.26,.37,47.7-10.4,68.91-7.3,14.38-17.67,27.13-25.57,41.21-10.5,18.72-16.25,39.75-17.17,60.97"/>
    <line class="cls-18" x1="957.25" y1="795.89" x2="938.37" y2="823.1"/>
  </g>
  <text class="cls-7" transform="translate(253.79 534.91)"><tspan class="cls-22"><tspan class="cls-40" x="0" y="0">Sendero Los Cantarillos</tspan></tspan><tspan class="cls-2"><tspan x="0" y="60.88">1100m</tspan></tspan></text>
  <g>
    <path class="cls-18" d="M848.88,361.38l34.81,8.69c-18.39,2.92-37.95,6.39-51.58,19.06-16.15,15.02-19.74,38.84-22.4,60.74"/>
    <line class="cls-18" x1="881.63" y1="370.86" x2="859.6" y2="396.57"/>
  </g>
  <g>
    <circle class="cls-4" cx="891.15" cy="1743.51" r="92.3"/>
    <text class="cls-34" transform="translate(864.48 1624.24)"><tspan x="0" y="0">N</tspan></text>
    <g class="cls-37">
      <polygon class="cls-27" points="891.96 1625.26 835.53 1773.76 891.26 1744.5 891.96 1625.26"/>
      <polygon class="cls-25" points="891.96 1625.26 946.63 1774.44 891.26 1744.5 891.96 1625.26"/>
    </g>
  </g>
  <g>
    <path class="cls-18" d="M157.65,1262.88l-30.76,18.46c10.94-15.07,22.32-31.35,22.99-49.95,.8-22.04-13.5-41.42-27.11-58.78"/>
    <line class="cls-18" x1="127.79" y1="1279.34" x2="125.18" y2="1245.58"/>
  </g>
  <text class="cls-8" transform="translate(31.35 1142.57)"><tspan class="cls-30" x="0" y="0">Caseta</tspan></text>
  <g>
    <circle class="cls-20" cx="374.77" cy="1353.83" r="31.8"/>
    <text class="cls-9" transform="translate(357.71 1374.82)"><tspan x="0" y="0">1</tspan></text>
  </g>
  <path class="cls-16" d="M779.42,1502.41s-16.65,9.47-20.17,10.84"/>
  <path class="cls-16" d="M726.37,1529.22s-9.69,4.14-23.25,5.6"/>
  <line class="cls-16" x1="665.33" y1="1536.8" x2="642.87" y2="1537.93"/>
  <line class="cls-16" x1="605.7" y1="1540.87" x2="582.44" y2="1543.56"/>
  <path class="cls-16" d="M520.46,1552.55c3.51-.64,7.06-1.26,10.64-1.87,5.13-.87,10.21-1.7,15.23-2.47"/>
  <path class="cls-16" d="M487.31,1559.61c-5.09,1.49-10.27,3.1-15.54,4.82-3.23,1.05-6.4,2.12-9.52,3.2"/>
  <path class="cls-16" d="M434.16,1586.71c-2.04,2.31-4.08,4.62-6.12,6.93"/>
  <path class="cls-27" d="M832.17,1382.29c-11.38,0-20.62,8.31-20.62,18.56,0,16.49,20.62,39.17,20.62,39.17,0,0,20.62-22.68,20.62-39.17,0-10.24-9.24-18.56-20.62-18.56Zm0,28.86c-1.63,0-3.23-.48-4.58-1.39-1.36-.91-2.41-2.19-3.04-3.7-.62-1.51-.79-3.17-.47-4.76,.32-1.6,1.1-3.07,2.26-4.22,1.15-1.15,2.62-1.94,4.22-2.26,1.6-.32,3.26-.15,4.76,.47,1.51,.62,2.79,1.68,3.7,3.04,.91,1.36,1.39,2.95,1.39,4.58,0,2.19-.87,4.28-2.42,5.83-1.55,1.55-3.64,2.42-5.83,2.42Z"/>
  <path class="cls-27" d="M445.37,1531.43c-7.48,10.01-15.01,20.1-22.72,30.42,5.61-.66,10.38-1.22,16.13-1.89-3.58,4.6-6.65,8.59-9.78,12.53-.31,.39-1.02,.57-1.56,.64-7.63,.99-15.27,1.95-23.21,2.95-1.03-7.92-2.07-15.63-3-23.35-.09-.71,.3-1.62,.75-2.23,2.79-3.72,5.67-7.37,9.12-11.82,.79,5.66,1.44,10.35,2.23,16.02l22.24-29.72"/>
</svg>