<?xml version="1.0" encoding="UTF-8"?><svg id="Capa_1" xmlns="http://www.w3.org/2000/svg" viewBox="0 0 80.11 57.34"><defs><style>.cls-1{fill:#ba7414;}.cls-2{fill:none;}</style></defs><g id="TmTRng"><path class="cls-1" d="M66.7,0h3.43c.62,.16,1.26,.26,1.85,.49,2.6,1.03,4.91,2.38,5.68,5.36,.03,.12,.11,.25,.2,.34,1.02,.91,1.7,2.06,2.24,3.29v1.63c-.36,.8-.7,1.62-1.65,2.15,.11-.49,.18-.86,.28-1.22,.06-.21,.08-.4-.17-.45-.7-.14-1.19-.64-1.76-.98-.95-.56-1.86-.7-2.75,.1-.1,.09-.21,.2-.33,.22-.91,.17-1.27,.83-1.46,1.64-.16,.69-.21,1.39-.47,2.07-.16,.41-.6,.38-.74,.8-.46,1.41-1.25,2.69-1.61,4.15-.13,.54-.35,1.06-.6,1.78l-.07-1.25c-.71,1.36-1.31,2.58-2.07,3.7-.36,.54-.64,1.1-.87,1.72-.57,1.55-1.18,3.09-2.13,4.46-.82,1.17-1.75,2.22-3.13,2.75-1.15,.44-2.07,1.18-2.86,2.1-.78,.91-1.4,1.99-2.31,2.73-.87,.71-1.05,1.53-1.06,2.48,0,.62,.06,1.25,.17,1.86,.38,2.15,.48,4.3,.07,6.46-.02,.13-.06,.3-.15,.36-.59,.37-.34,.81-.14,1.25,.22,.47,.43,.94,.68,1.39,.27,.48,.66,.78,1.25,.77,1.07-.03,2.14,.07,3.17-.44,1.08-.53,2.12-.2,2.81,.75-.63-.05-1.23,0-1.79,.2-.17,.06-.51,.08-.34,.41,.1,.19,.14,.61,.44,.48,.46-.2,.89,.01,1.34-.04,.85-.09,1.74-.19,2.59,.11,.76,.27,1.1,.81,1.01,1.63-.81-.72-1.34-1-1.9-.98-.15,0-.36-.07-.4,.15-.02,.11,.09,.24,.14,.36,.08,.17,.51,.11,.31,.43-.14,.23-.39,.18-.66,.13-.33-.06-.81-.11-1,.08-.28,.28-.42,.13-.64,.03-.57-.26-1.12-.55-1.75-.09-.14,.1-.42,.05-.63,.02-.48-.06-.96-.16-1.45-.21-1.11-.13-1.37,.11-1.4,1.25,0,.23,0,.45,0,.68l-.34,.23c-.52-.64-1.03-1.27-1.55-1.91-.11-.14-.26-.2-.43-.19-1.74,.17-3.28-.93-5.03-.81-.34,.02-.82-.07-.55-.69,.14-.33-.13-.39-.39-.45-.68-.18-1.3,.01-1.93,.28,.71-1.14,1.8-1.31,2.98-1.17,1.03,.12,2.06,.1,3.09-.04,.2-.03,.41-.04,.38-.31-.12-.88-.14-1.81-.73-2.54-.4-.49-.92-.38-1.07,.24-.11,.43-.25,.64-.72,.49-.29-.09-.43,.14-.6,.32-.21,.23-.28,.59-.6,.73-.15-.36,.11-.69,.07-1.05-1.48,.63-.94-.94-1.52-1.31-.16,.32-.11,.7-.18,1.06-.16,.8-.77,1.31-1.36,1.76-.52,.4-.53-.46-.9-.55-.03,0-.06,0-.08-.02-.73-.78-1.64-.2-2.45-.32-.54-.08-.99,.08-1.41,.47-.65,.6-1.66,.59-2.27-.03-.48-.49-.76-.15-1.09,.13-.26,.22-.21,.6-.38,.88-.54-1.05-.16-2.03,.91-2.31,.5-.13,1-.24,1.5-.35,.16-.04,.4-.09,.31-.27-.12-.26,.24-.62-.07-.74-.75-.3-1.17-.74-1.03-1.59,.01-.09-.13-.22-.22-.32-.1-.12-.41-.12-.24-.41,.19-.3,.41-.15,.63-.05,.7,.32,.82,1.16,1.46,1.6,.31-.86,.51-1.72,.51-2.62,0-.28,.09-.64-.32-.83-.64-.3-.9-.97-1.14-1.56-.08-.19-.01-.45-.28-.51-.35-.07-.23,.36-.4,.47-.29,0-.07-.51-.35-.37-.35,.17-.5,.11-.61-.29-.57,.7-1.2,1.31-2.07,1.54-.51,.13-1.05,.13-1.09-.55-.03-.56-.1-1.14,.27-1.7,.36-.55,.56-1.2,.89-1.97-2.73,.78-5.57,.46-8.05,2.18,.21-.5,.64-.54,.72-.96-.86,.25-1.77,.13-2.54,.6-.72,.44-1.51,.58-2.27,.37-1.11-.3-2.12-.25-3.12,.3-.02,.01-.08-.04-.14-.08,.23-.48,.71-.71,1.11-1.03-.49-.4-.92-.35-1.4-.12-1.25,.6-2.61,.82-4.01,1.05,2.28-.39,3.23-1.89,3.45-4.03l-4.25,1.47-.04-.12,1.75-1.07-.04-.09-4.31,1.21-.04-.1,1.89-1.5c-.3-.03-.55,.05-.79,.15-2.5,1.05-4.99,2.1-7.49,3.15-.38,.16-.77,.33-1.21,.07,.28-.5,.83-.74,.94-1.36-.73,.21-1.39,.48-2.07,.58-.45,.07-1.17,.13-1.08-.66,.06-.47-.15-.49-.44-.52-.32-.04-.65-.04-.98-.04q-1-.01-.78-.97L0,38.09c0-.05,0-.11,0-.16,.74-.54,1.51-1.06,2.22-1.63,.3-.24,1.04-.23,.63-1.02-.12-.22,.24-.69,.43-1.16l-2.67,1.22c1.38-1.29,2.86-2.4,4.02-3.85,.21-.26,.5-.43,.81-.53,.75-.26,1.45-.53,1.84-1.32,.14-.28,.51-.5,.82-.64,1.08-.48,2.05-1.05,2.63-2.16,.29-.56,.85-.9,1.33-1.3,1.38-1.13,3.19-1.55,4.53-2.68,.94-.8,2.03-1.02,3.12-1.32,.26-.07,.52-.18,.78-.21,.48-.06,.75-.3,.98-.73,.35-.66,.87-1.21,1.57-1.48,.79-.3,1.49-.77,2.22-1.18,1.16-.66,2.33-1.29,3.6-1.67,2.54-.75,5.07-1.55,7.52-2.55,1.69-.69,3.54-.75,5.23-1.44,2.45-.99,5.03-.97,7.62-.84,.55,.03,1,.35,1.57,.36,2.93,.05,5.5-1.05,8.02-2.36,.75-.39,1.27-.93,1.41-1.84,.07-.49,.3-1.03,.62-1.39,.68-.75,.91-1.74,1.29-2.59,.54-1.18,1.68-1.53,2.42-2.38,.41-.47,1.24-.59,1.9-.83,.22-.08,.31-.17,.25-.4Z"/></g><rect class="cls-2" y="0" width="80.11" height="57.34"/></svg>