<?xml version="1.0" encoding="UTF-8"?><svg id="Capa_1" xmlns="http://www.w3.org/2000/svg" viewBox="0 0 65.18 64.87"><defs><style>.cls-1{fill:#ba7414;}.cls-2{fill:none;}</style></defs><path class="cls-1" d="M65.18,15.48c-.2,.56-.36,1.13-.66,1.64-.58,1.01-1.14,2.03-1.76,3-.04,.06-.07,.13-.1,.2-.02,.04-.03,.09,.01,.12,.04,.03,.08,0,.11-.02,.15-.1,.29-.2,.44-.3,.08-.05,.18-.18,.26-.1,.09,.08-.04,.18-.09,.26-.7,1-1.54,1.85-2.66,2.37-.2,.09-.38,.22-.58,.32-.7,.38-1.38,.8-2.12,1.1-.43,.18-.86,.36-1.25,.61-.56,.36-1.1,.76-1.68,1.09-.59,.33-1.17,.69-1.82,.9-.28,.09-.49,.21-.65,.44-.12,.18-.21,.39-.4,.52-.5,.34-1.04,.63-1.64,.73-.55,.09-1,.32-1.38,.69-.44,.42-.95,.67-1.53,.8-.4,.09-.74,.28-1.05,.54-.95,.8-1.6,1.84-2.25,2.87-.06,.09-.05,.18,0,.26,.35,.5,.69,1.01,1.04,1.51,.58,.84,1.18,1.68,1.04,2.78-.08,.68-.02,1.41-.65,1.9-.07,.06-.11,.14-.06,.23,.21,.44,.12,.9,.1,1.35-.05,1.15-.71,1.94-1.68,2.5-.09,.05-.2,.09-.31,.11-.11,.03-.21,0-.25-.12-.04-.11,0-.18,.1-.23,.09-.04,.16-.11,.14-.22-.04-.25-.06-.51-.25-.71-.08-.08-.14-.18-.14-.29-.01-.24-.08-.47-.17-.69-.54-1.25-1.02-2.56-2.53-2.98-.02,0-.03-.01-.05-.02-.1-.08-.2-.05-.27,.04-.28,.31-.64,.58-.5,1.09,0,.04,.01,.09-.06,.1-.14-.08-.12-.24-.19-.36-.02-.04-.05-.11-.09-.12-.07-.01-.1,.06-.12,.11-.05,.15-.1,.31-.15,.46-.05,.13-.08,.36-.21,.33-.18-.04-.09-.25-.07-.39,0-.06,.01-.12-.04-.16-.07-.05-.13,0-.18,.04-.09,.07-.18,.11-.3,.12-.42,.02-.73,.2-.89,.6-.07,.16-.13,.34-.25,.47-.51,.57-.57,1.27-.58,1.98,0,.16,.04,.3,.12,.43,.08,.13,.15,.27,.17,.47-.4-.31-.51-.78-.79-1.16-.06,.1-.04,.16-.01,.23,.03,.07,.1,.15,.01,.23-.12,.11-.13-.09-.24-.08,0,.14,.02,.28,.02,.42,0,.35,.12,.69,.04,1.04-.17,.86-.46,1.68-.89,2.45-.11,.19-.11,.33,0,.53,.23,.42,.6,.71,.9,1.06,.36,.43,.65,.89,.59,1.49-.02,.19,.01,.39,.03,.58,.05,.46,.09,.92-.21,1.32-.08,.1,0,.13,.07,.17,.25,.13,.5,.24,.78,.28,.43,.06,.86,.14,1.26,.35,.1,.05,.26,0,.28,.17,.02,.18-.18,.15-.26,.24-.01,.02-.04,.02-.08,.05,.53,.32,.95,.75,1.42,1.13,.38,.3,.73,.65,.94,1.09,.19,.39,.46,.68,.78,.95,.37,.31,.73,.64,1.08,.96,.19,.17,.14,.34,.04,.49-.1,.15-.26,.24-.48,.07,.16,.21-.04,.37,0,.55l-.16-.17c.15,.66,.26,1.29,.36,1.92,.04,.27,.02,.56,.29,.78,.82,.64,1.68,1.24,2.2,2.18,.04,.07,.13,.12,.06,.22-.06,.08-.12,.19-.23,.16-.15-.04-.25,.03-.33,.12-.12,.15-.27,.21-.44,.26-.24,.07-.58-.1-.7,.28-.31,.02-.44,.24-.58,.47-.06,.1-.15,.19-.29,.12-.27-.14-.53-.3-.71-.56-.31-.44-.41-.96-.54-1.46-.16-.67-.12-1.38-.46-2.02-.18-.34-.35-.68-.58-1.01-.07,.19,0,.34,0,.48,0,.07,.03,.16-.07,.19-.2,.06-.4,.08-.56-.1-.19-.21-.23-.51-.11-.68,.22-.28,.22-.4-.02-.65-.42-.42-.92-.71-1.43-1-.13-.08-.2-.04-.27,.09-.13,.25-.3,.47-.49,.68-.03,.04-.07,.09-.13,.06-.06-.02-.05-.09-.04-.13,.02-.12,.05-.25,.08-.37,.14-.54,.14-.53-.38-.68-.17-.05-.23,0-.32,.13-.17,.26-.37,.51-.59,.81-.07-.33,.04-.58,.03-.88-.15,.15-.32,.1-.47,.14-.22,.06-.45,.1-.68,.12-.33,.02-.66-.04-.98,.02-.23,.04-.45,.08-.69,.06-.22-.02-.3-.09-.25-.32,.08-.33,.16-.66,.22-.99,.07-.34-.01-.48-.34-.57-.35-.09-.69-.23-1.03-.36-1.44-.51-2.87-1.07-4.23-1.77-.38-.19-.75-.41-1.03-.73-.47-.56-.95-1.13-1.31-1.78-.11-.2-.27-.4-.22-.66,.03-.19,.33-.26,.24-.52,0-.01,.06-.07,.09-.07,.11-.02,.22-.06,.35-.04,.53,.07,1.07,.12,1.61,.18,.53,.06,1.07-.07,1.6,.06,.28,.07,.57,.1,.86,.04,.27-.05,.53-.04,.78,.03,.86,.24,1.76,.23,2.64,.37,.05,0,.16,.06,.16-.05-.02-.37,.12-.74,0-1.11-.04-.11-.1-.22-.25-.22-.13,0-.2,.07-.26,.17-.17,.3-.31,.32-.57,.07-.12-.11-.26-.25-.41-.02-.02,.03-.05,.06-.08,.04-.16-.1-.38-.06-.5-.13-.44-.24-.92-.35-1.36-.55-.14-.07-.22-.17-.28-.31-.14-.32-.15-.68-.3-.99-.05-.11-.01-.23,.03-.35,.07-.18,.13-.37,.2-.55,.07-.19,.12-.38,.06-.57-.12-.41-.36-.75-.66-1.04-.15-.14-.24-.08-.29,.09-.07,.26-.14,.52-.21,.79-.08,.3-.14,.61-.26,.9-.03,.06-.05,.14-.13,.14-.07,0-.11-.07-.14-.13-.05-.09-.09-.18-.15-.26-.07-.09-.15-.13-.21,0-.08,.16-.22,.24-.36,.3-.3,.12-.5,.28-.52,.64,0,.16-.1,.28-.29,.21-.3-.12-.53,0-.71,.23-.11,.15-.23,.21-.37,.02-.04,.11-.06,.19-.09,.27-.04,.09-.06,.21-.18,.22-.11,.01-.16-.08-.22-.15-.1-.12-.19-.26-.3-.38-.1-.12-.2-.15-.3,.02-.14,.23-.3,.45-.41,.7-.13,.29-.23,.32-.46,.09-.25-.25-.54-.4-.87-.5-.23-.07-.47-.15-.7-.24-.33-.13-.36-.13-.59,.16-.12,.15-.2,.33-.39,.44-.07-.25-.05-.49-.02-.72,.03-.28-.07-.42-.39-.58-.24-.12-.17,.14-.25,.2-.03,.02-.07,.06-.11,.06-.17,.03-.25,.15-.33,.29-.09,.16-.19,.32-.3,.47-.07,.09-.13,.28-.26,.22-.1-.05,0-.21,.03-.33,.07-.27,.23-.54,.19-.81-.05-.29,.02-.55,.07-.82,.03-.12,.04-.25,.06-.38,.02-.18-.05-.23-.22-.17-1.09,.34-2.14,.76-2.98,1.57-.08,.08-.15,.1-.22-.01-.24-.36-.19-1.11,.09-1.43,.08-.09,.18-.16,.24-.33-.31,.14-.58,.25-.87,.31-.14,.03-.33,.14-.27-.17,.01-.08-.06-.09-.12-.1-.06,0-.11-.04-.1-.09,.07-.23-.06-.23-.22-.22-.07,0-.17-.01-.2-.08-.03-.09,.08-.12,.14-.16,.08-.05,.16-.1,.24-.14,.68-.35,1.24-.86,1.8-1.36,.05-.04,.12-.09,.08-.17-.03-.08-.11-.08-.17-.07-.15,0-.3,.02-.46,.03-.91,.07-1.82,.2-2.74,.05-.18-.03-.41,0-.48-.22-.07-.21,.11-.37,.24-.5,.44-.46,.93-.88,1.5-1.16,.57-.28,.99-.69,1.38-1.17,.04-.05,.08-.09,.05-.16-.03-.06-.08-.09-.14-.08-.13,.01-.25,.02-.38,.04-.31,.05-.62,.09-.94,.06-.28-.03-.56-.02-.84,0-.41,.02-.83,.1-1.24,.01-.27-.06-.29-.1-.11-.31,.05-.06,.11-.13,.15-.2,.39-.68,.95-1.14,1.7-1.37,.87-.26,1.74-.51,2.64-.65,.48-.08,.97-.14,1.42-.37,.07-.03,.2-.06,.15-.16-.13-.26,.06-.28,.22-.33,.31-.09,.6-.23,.88-.39,.06-.04,.16-.07,.15-.15-.01-.09-.11-.12-.19-.15-.19-.06-.38-.04-.58,0-.12,.03-.27,.04-.29-.12-.04-.27-.18-.47-.33-.67-.11-.14-.08-.25,.08-.33,.04-.02,.09-.05,.13-.09,.05-.04,.1-.08,.09-.15-.02-.07-.09-.06-.15-.07-.15,0-.31,0-.46,0-.08,0-.17,0-.19-.08-.04-.21-.22-.26-.38-.34-.09-.04-.22-.07-.25-.16-.07-.23-.26-.24-.43-.3-.11-.04-.25-.04-.26-.2,0-.16,.09-.25,.22-.31,.13-.06,.26-.12,.4-.17,.28-.12,.56-.24,.82-.41,.06-.04,.13-.07,.13-.14,0-.09-.1-.09-.16-.1-.47-.13-.94-.23-1.41,0-.13,.07-.29,.1-.44,.12-.81,.11-1.57,.07-2.08-.71-.17-.26-.16-.34,.1-.51,.16-.1,.34-.17,.51-.36-.61,.07-1.16,.1-1.71,.08-.87-.03-1.16-.24-1.46-1.07-.04-.1-.06-.21-.09-.32-.05-.15,0-.22,.14-.27,.31-.1,.61-.21,.93-.25,.14-.02,.24-.08,.18-.2-.1-.22-.01-.39,.07-.57,.07-.15,.03-.25-.16-.24-.06,0-.12,0-.18,0-.7,.15-1.34-.09-1.99-.29-.13-.04-.27-.1-.3-.27,.1-.03,.21,.05,.28-.04-.03-.06-.07-.06-.11-.06-.31,0-.48-.15-.57-.44-.06-.19-.13-.38-.22-.57-.1-.21-.04-.32,.18-.4,.47-.16,.94-.34,1.41-.51,.15-.06,.26-.17,.25-.34,0-.18-.15-.23-.29-.28-.29-.1-.6-.1-.9-.15-.42-.06-.78-.4-.86-.81-.05-.24,.03-.33,.28-.32,.11,0,.22,.02,.33,.03,.39,.04,.78,.11,1.18,.05-.07-.04-.15-.07-.23-.09-.85-.22-1.71-.43-2.56-.65-.08-.02-.17-.03-.23-.1-.29-.38-.59-.74-.65-1.24-.04-.31-.04-.32,.27-.29,.08,0,.19,.06,.21-.06,.02-.09-.1-.1-.16-.13-.1-.05-.3-.03-.27-.17,.03-.17,.22-.1,.35-.1,.07,0,.13,.01,.2,.02,.44,.07,.89,.13,1.33,.2,.1,.01,.21,.04,.31-.06-.04-.03-.07-.06-.1-.07-.18-.07-.36-.14-.55-.2-1.05-.31-2.06-.73-3.02-1.27-.48-.27-.81-.58-.77-1.19,.02-.39-.18-.69-.6-.79-.16-.04-.31-.13-.47-.18-.26-.09-.36-.28-.39-.54-.02-.25-.02-.51,.04-.76,.11-.45,.08-.51-.31-.78-.26-.18-.54-.35-.79-.56-.4-.35-.5-.71-.26-1.18,.14-.27,.06-.45-.11-.64-.11-.12-.23-.22-.37-.3-.81-.47-1.38-1.17-1.89-1.93-.04-.05-.1-.11-.06-.18,.06-.09,.14-.02,.2,0,.29,.11,.58,.23,.87,.34,.08-.41,.1-.44,.51-.35,.37,.08,.74,.19,1.11,.28,.05,.01,.11,.04,.13-.02,.01-.03,0-.08-.03-.12-.13-.22-.26-.44-.4-.65-.28-.4-.44-.88-.71-1.29-.03-.05-.07-.11-.03-.16,.04-.05,.11-.04,.17-.02,.08,.02,.17,.04,.24,.08,.23,.13,.44,.29,.67,.41,.86,.43,1.77,.71,2.71,.92,.04,0,.1,.03,.15-.04-.04-.06-.08-.14-.13-.2-.61-.71-1.19-1.44-1.87-2.08-.39-.37-.78-.75-1.18-1.12-.65-.58-.81-1.39-.88-2.21,0-.06,0-.15,.08-.17,.07-.02,.12,.06,.16,.11,.35,.44,.75,.81,1.27,1.03,.37,.16,.65,.42,.88,.75,.1,.15,.21,.31,.36,.43,.05,.04,.11,.1,.18,.04,.05-.04,.03-.11,.01-.17-.15-.46-.28-.93-.47-1.37-.27-.63-.3-1.28-.28-1.95,0-.06-.02-.15,.07-.17,.08-.02,.12,.06,.15,.11,.22,.29,.44,.58,.65,.88,.12,.16,.25,.3,.42,.4,.83,.51,1.53,1.18,2.2,1.88,.1,.1,.16,.36,.3,.27,.12-.08-.02-.29-.07-.44-.42-1.12-.86-2.23-1.21-3.37-.19-.62-.37-1.26-.38-1.91,0-.39,.09-.77,.27-1.19,.23,.44,.44,.81,.51,1.23,.04,.23,.12,.43,.3,.57,.21,.16,.35,.37,.45,.6,.16,.36,.32,.73,.43,1.11,.02,.07,.04,.13,.13,.11,.09-.01,.1-.08,.1-.15,0-.1-.02-.2-.03-.3-.05-.36-.18-.71-.12-1.08C8.02,1.42,8.24,.67,8.65,0h.05c.08,.31,.18,.62,.25,.93,.1,.42,.21,.84,.51,1.18,.22,.24,.38,.52,.51,.82,.69,1.48,1.25,3,1.67,4.57,.07,.26,.14,.52,.28,.76,.04,.06,.08,.16,.17,.13,.11-.03,.07-.14,.07-.22,0-.03-.01-.07-.02-.1-.27-.88-.42-1.78-.51-2.69-.02-.19-.03-.39-.12-.57-.42-.9-.27-1.77,.12-2.63,.06-.13,.12-.34,.28-.32,.13,.02,.11,.24,.15,.37,.1,.44,.14,.89,.39,1.28,.16,.24,.25,.52,.33,.79,.13,.48,.14,.99,.29,1.47,.27,.89,.66,1.74,.96,2.62,.08,.23,.18,.46,.28,.68,.03,.07,.07,.18,.17,.16,.09-.02,.08-.14,.08-.22,.04-.59,.06-1.19,.1-1.78,.06-.81,.25-1.59,.56-2.34,.04-.09,.08-.22,.2-.2,.12,.02,.12,.15,.12,.25-.02,1.34,.16,2.67,.32,4,.14,1.18,.42,2.33,.63,3.5,.03,.18,.11,.29,.29,.34,.41,.12,.77,.33,1.12,.58,.67,.49,1.12,1.14,1.54,1.84,.4,.66,.8,1.32,1.39,1.84,.38,.34,.73,.71,1.05,1.11,.42,.53,.82,1.09,1.29,1.57,.71,.72,1.43,1.42,2.14,2.14,1.17,1.19,2.32,2.38,3.16,3.84,.16,.28,.41,.47,.68,.64,.65,.4,1.23,.87,1.77,1.4,.08,.08,.16,.14,.28,.17,1.94,.47,3.85,1.07,5.82,1.42,1.06,.19,2.11,.43,3.2,.38,.55-.03,1.07-.13,1.57-.38,1.37-.66,2.69-1.44,4.09-2.04,1.55-.66,3.09-1.35,4.7-1.84,1.36-.41,2.76-.71,4.11-1.13,.97-.31,1.87-.76,2.68-1.37,.44-.34,.75-.81,1.15-1.18,.53-.49,.9-1.09,1.09-1.8,.12-.46,.28-.91,.42-1.36,.03-.1,.05-.22,.16-.28,.1,.09,.1,.21,.12,.32,.05,.27,.1,.53,.16,.8,.02,.09,.02,.23,.14,.25,.13,.01,.17-.12,.22-.22,.21-.41,.33-.85,.46-1.29,.11-.39,.2-.78,.35-1.16,.07,.03,.09,.08,.11,.13,.1,.31,.2,.63,.31,.94,.03,.08,.06,.2,.17,.2,.11,0,.14-.12,.16-.21,.21-.81,.6-1.56,.82-2.38,.21-.8,.47-1.59,.79-2.36,.03-.06,.04-.18,.13-.15,.08,.02,.06,.13,.06,.21-.01,.23-.03,.46-.03,.69-.01,.83,0,1.66-.19,2.48-.01,.05-.03,.1,.02,.14,.05,.03,.1,0,.14-.03,.25-.19,.45-.43,.59-.72,.12-.24,.23-.49,.44-.66v.15ZM29.65,44.71c.08,.28,.17,.57,.23,.86,.03,.17,.14,.22,.3,.18,.33-.07,.57-.33,.57-.62,0-.32-.25-.63-.56-.69-.09-.02-.18-.03-.22-.04-.33,0-.38,.05-.31,.31Zm4.9,6.54c.15,.02,.29,.08,.43,.15,.12,.05,.17,.03,.19-.1,.02-.16,.02-.32-.09-.46-.23-.29-.38-.62-.45-.98,0-.05-.03-.1-.05-.14-.03-.06-.06-.11-.13-.1-.07,.01-.08,.08-.08,.14-.03,.36-.07,.72-.11,1.15-.06,.19,.05,.3,.3,.34Zm-3.57-2.02c.1,0,.14-.05,.13-.14-.05-.31-.15-.61-.29-.89-.03-.05-.07-.11-.14-.06-.15,.12-.29,.25-.33,.41,0,.41,.28,.68,.63,.69Zm5.02,1.97c-.19-.04-.31,.18-.42,.32-.12,.15,.08,.18,.13,.19,.16,.04,.28,.27,.47,.13,.03-.02,.01-.11,.02-.15-.03-.2,0-.45-.21-.49Z"/><rect class="cls-2" width="65.18" height="64.87"/></svg>