<?xml version="1.0" encoding="UTF-8"?><svg id="Capa_1" xmlns="http://www.w3.org/2000/svg" xmlns:xlink="http://www.w3.org/1999/xlink" viewBox="0 0 147.17 143.92"><defs><style>.cls-1{fill:#343434;}.cls-2{fill:#b6aad4;}.cls-3{fill:#b4b4b4;}.cls-4{filter:url(#drop-shadow-1);}.cls-5{fill:url(#Degradado_sin_nombre_10-2);}.cls-6{fill:url(#Degradado_sin_nombre_10);}.cls-7{fill:#4e4d4d;}.cls-8{fill:#676767;}.cls-9{clip-path:url(#clippath);}.cls-10{fill:none;}.cls-11{fill:#b2dac8;}.cls-12{fill:#88cfe5;}.cls-13{fill:#b0cf6f;}.cls-14{fill:#f2f2f2;}</style><filter id="drop-shadow-1" filterUnits="userSpaceOnUse"><feOffset dx="4.21" dy="4.21"/><feGaussianBlur result="blur" stdDeviation="3.14"/><feFlood flood-color="#8a837f" flood-opacity=".35"/><feComposite in2="blur" operator="in"/><feComposite in="SourceGraphic"/></filter><clipPath id="clippath"><path class="cls-10" d="M121.78,103.25c-15.56,8.85-35.34,3.41-44.19-12.15-8.85-15.56-3.41-35.34,12.15-44.19,15.56-8.85,35.34-3.41,44.19,12.15,8.85,15.56,3.41,35.34-12.15,44.19Z"/></clipPath><linearGradient id="Degradado_sin_nombre_10" x1="481.73" y1="-261.47" x2="583.49" y2="-156.02" gradientTransform="translate(-289.03 496.52) rotate(-29.63)" gradientUnits="userSpaceOnUse"><stop offset="0" stop-color="#fff"/><stop offset="1" stop-color="#fff" stop-opacity="0"/></linearGradient><linearGradient id="Degradado_sin_nombre_10-2" x1="471.56" y1="-251.65" x2="573.31" y2="-146.2" xlink:href="#Degradado_sin_nombre_10"/></defs><g class="cls-4"><circle class="cls-13" cx="63.87" cy="66.79" r="63.87"/><g><rect class="cls-14" x="8.24" width="55.27" height="55.66" rx="8.71" ry="8.71"/><g><path class="cls-2" d="M34.12,12.53c.72-.42,1.42-.36,2.13-.2,1.27,.29,2.39,.92,3.48,1.59,.78,.48,1.53,1.02,2.28,1.55-.61-.94-1.44-1.66-2.36-2.28-.92-.62-1.91-1.08-2.99-1.46,1.6-1.79,3.4-3.08,5.92-2.86,1.3,.12,2.42,.66,3.44,1.44,2,1.52,3.33,3.55,4.32,5.82,1.17,2.69,1.7,5.5,1.51,8.43-.19,2.84-1.31,5.3-3.09,7.5-2.41,2.99-5.55,4.74-9.31,5.39-2.38,.41-3.66,.38-6.98-.04,.48,.75,.95,1.49,1.42,2.22,.56,.87,1.12,1.74,1.68,2.61,.07,.11,.13,.22,.31,.22,2.86,0,5.73,0,8.62-.07l-6.23-3.97c.61-.02,1.14,.04,1.66-.07,.04,0,.1,0,.13-.02,.51-.29,.87-.02,1.27,.27,1.68,1.21,3.37,2.4,5.05,3.6,.25,.18,.5,.26,.82,.26,4.16,0,8.32,0,12.48-.01,.34,0,.48,.08,.43,.43-.04,.3,.13,.72-.07,.88-.19,.15-.59,.06-.89,.06-2.13,0-4.25,0-6.38,0-.07,0-.16-.04-.25,.06l5.01,2.89c-.76,.05-1.39,.03-2.01-.36-1.4-.87-2.84-1.66-4.27-2.49-.15-.09-.29-.11-.45-.11-7.1,0-14.19,0-21.29,0-2.66,0-5.32,0-7.98,0-.26,0-.37-.06-.34-.33,.04-.33-.15-.78,.08-.98,.2-.16,.63-.05,.96-.05,3.89,0,7.78,0,11.67,0,.12,0,.25,0,.44,0-.29-.45-.56-.85-.82-1.25-.88-1.32-1.76-2.65-2.65-3.97-.11-.16-.14-.31-.11-.51,.3-1.9,1.01-3.65,1.97-5.3,.66-1.12,1.4-2.19,2.21-3.21,.31-.39,.65-.76,.98-1.15-.51,.15-2.75,2.03-3.94,3.33-1.18,1.3-2.3,2.64-3.3,4.08-.99,1.42-1.89,2.9-2.69,4.44,.17-2.89,1-5.6,2.21-8.2,1.44-3.1,3.36-5.9,5.41-8.61,1.01-1.33,2.06-2.63,3-4.02,.23-.34,.43-.7,.63-1.05,.42-.72,.34-1.43-.03-2.14-.6-1.16-1.62-1.81-2.79-2.27-.07-.03-.15-.05-.29-.1Zm10.46-.13c0-.45-.34-.8-.78-.81-.49,0-.85,.35-.85,.82,0,.43,.37,.8,.81,.81,.44,.01,.82-.37,.83-.82Z"/><path class="cls-2" d="M11.61,41.02l15.83-10.27c-.27,.56-.53,1.06-.75,1.56-.52,1.16-.98,2.35-1.24,3.59-.03,.15-.13,.23-.25,.3-2.49,1.57-4.98,3.14-7.47,4.71-.1,.06-.19,.12-.31,.13-1.93,.05-3.86,.08-5.81-.03Z"/></g></g><g><rect class="cls-14" x="69.43" width="55.27" height="55.66" rx="8.71" ry="8.71"/><g><path class="cls-11" d="M95.31,12.53c.72-.42,1.42-.36,2.13-.2,1.27,.29,2.39,.92,3.48,1.59,.78,.48,1.53,1.02,2.28,1.55-.61-.94-1.44-1.66-2.36-2.28-.92-.62-1.91-1.08-2.99-1.46,1.6-1.79,3.4-3.08,5.92-2.86,1.3,.12,2.42,.66,3.44,1.44,2,1.52,3.33,3.55,4.32,5.82,1.17,2.69,1.7,5.5,1.51,8.43-.19,2.84-1.31,5.3-3.09,7.5-2.41,2.99-5.55,4.74-9.31,5.39-2.38,.41-3.66,.38-6.98-.04,.48,.75,.95,1.49,1.42,2.22,.56,.87,1.12,1.74,1.68,2.61,.07,.11,.13,.22,.31,.22,2.86,0,5.73,0,8.62-.07l-6.23-3.97c.61-.02,1.14,.04,1.66-.07,.04,0,.1,0,.13-.02,.51-.29,.87-.02,1.27,.27,1.68,1.21,3.37,2.4,5.05,3.6,.25,.18,.5,.26,.82,.26,4.16,0,8.32,0,12.48-.01,.34,0,.48,.08,.43,.43-.04,.3,.13,.72-.07,.88-.19,.15-.59,.06-.89,.06-2.13,0-4.25,0-6.38,0-.07,0-.16-.04-.25,.06l5.01,2.89c-.76,.05-1.39,.03-2.01-.36-1.4-.87-2.84-1.66-4.27-2.49-.15-.09-.29-.11-.45-.11-7.1,0-14.19,0-21.29,0-2.66,0-5.32,0-7.98,0-.26,0-.37-.06-.34-.33,.04-.33-.15-.78,.08-.98,.2-.16,.63-.05,.96-.05,3.89,0,7.78,0,11.67,0,.12,0,.25,0,.44,0-.29-.45-.56-.85-.82-1.25-.88-1.32-1.76-2.65-2.65-3.97-.11-.16-.14-.31-.11-.51,.3-1.9,1.01-3.65,1.97-5.3,.66-1.12,1.4-2.19,2.21-3.21,.31-.39,.65-.76,.98-1.15-.51,.15-2.75,2.03-3.94,3.33-1.18,1.3-2.3,2.64-3.3,4.08-.99,1.42-1.89,2.9-2.69,4.44,.17-2.89,1-5.6,2.21-8.2,1.44-3.1,3.36-5.9,5.41-8.61,1.01-1.33,2.06-2.63,3-4.02,.23-.34,.43-.7,.63-1.05,.42-.72,.34-1.43-.03-2.14-.6-1.16-1.62-1.81-2.79-2.27-.07-.03-.15-.05-.29-.1Zm10.46-.13c0-.45-.34-.8-.78-.81-.49,0-.85,.35-.85,.82,0,.43,.37,.8,.81,.81,.44,.01,.82-.37,.83-.82Z"/><path class="cls-11" d="M72.8,41.02l15.83-10.27c-.27,.56-.53,1.06-.75,1.56-.52,1.16-.98,2.35-1.24,3.59-.03,.15-.13,.23-.25,.3-2.49,1.57-4.98,3.14-7.47,4.71-.1,.06-.19,.12-.31,.13-1.93,.05-3.86,.08-5.81-.03Z"/></g></g><g><rect class="cls-14" x="8.24" y="62.15" width="55.27" height="55.66" rx="8.71" ry="8.71"/><g><path class="cls-12" d="M34.12,74.68c.72-.42,1.42-.36,2.13-.2,1.27,.29,2.39,.92,3.48,1.59,.78,.48,1.53,1.02,2.28,1.55-.61-.94-1.44-1.66-2.36-2.28-.92-.62-1.91-1.08-2.99-1.46,1.6-1.79,3.4-3.08,5.92-2.86,1.3,.12,2.42,.66,3.44,1.44,2,1.52,3.33,3.55,4.32,5.82,1.17,2.69,1.7,5.5,1.51,8.43-.19,2.84-1.31,5.3-3.09,7.5-2.41,2.99-5.55,4.74-9.31,5.39-2.38,.41-3.66,.38-6.98-.04,.48,.75,.95,1.49,1.42,2.22,.56,.87,1.12,1.74,1.68,2.61,.07,.11,.13,.22,.31,.22,2.86,0,5.73,0,8.62-.07l-6.23-3.97c.61-.02,1.14,.04,1.66-.07,.04,0,.1,0,.13-.02,.51-.29,.87-.02,1.27,.27,1.68,1.21,3.37,2.4,5.05,3.6,.25,.18,.5,.26,.82,.26,4.16,0,8.32,0,12.48-.01,.34,0,.48,.08,.43,.43-.04,.3,.13,.72-.07,.88-.19,.15-.59,.06-.89,.06-2.13,0-4.25,0-6.38,0-.07,0-.16-.04-.25,.06l5.01,2.89c-.76,.05-1.39,.03-2.01-.36-1.4-.87-2.84-1.66-4.27-2.49-.15-.09-.29-.11-.45-.11-7.1,0-14.19,0-21.29,0-2.66,0-5.32,0-7.98,0-.26,0-.37-.06-.34-.33,.04-.33-.15-.78,.08-.98,.2-.16,.63-.05,.96-.05,3.89,0,7.78,0,11.67,0,.12,0,.25,0,.44,0-.29-.45-.56-.85-.82-1.25-.88-1.32-1.76-2.65-2.65-3.97-.11-.16-.14-.31-.11-.51,.3-1.9,1.01-3.65,1.97-5.3,.66-1.12,1.4-2.19,2.21-3.21,.31-.39,.65-.76,.98-1.15-.51,.15-2.75,2.03-3.94,3.33-1.18,1.3-2.3,2.64-3.3,4.08-.99,1.42-1.89,2.9-2.69,4.44,.17-2.89,1-5.6,2.21-8.2,1.44-3.1,3.36-5.9,5.41-8.61,1.01-1.33,2.06-2.63,3-4.02,.23-.34,.43-.7,.63-1.05,.42-.72,.34-1.43-.03-2.14-.6-1.16-1.62-1.81-2.79-2.27-.07-.03-.15-.05-.29-.1Zm10.46-.13c0-.45-.34-.8-.78-.81-.49,0-.85,.35-.85,.82,0,.43,.37,.8,.81,.81,.44,.01,.82-.37,.83-.82Z"/><path class="cls-12" d="M11.61,103.17l15.83-10.27c-.27,.56-.53,1.06-.75,1.56-.52,1.16-.98,2.35-1.24,3.59-.03,.15-.13,.23-.25,.3-2.49,1.57-4.98,3.14-7.47,4.71-.1,.06-.19,.12-.31,.13-1.93,.05-3.86,.08-5.81-.03Z"/></g></g><g><g><path class="cls-7" d="M118.84,109.85l17.86,31.4c1.45,2.54,4.68,3.43,7.22,1.98,2.54-1.45,3.43-4.68,1.98-7.22l-17.86-31.4-9.21,5.24Z"/><path class="cls-8" d="M118.84,109.85l17.86,31.4c.89,1.56,2.45,2.49,4.12,2.65l-20-35.17-1.97,1.12Z"/><rect class="cls-1" x="120.1" y="106.71" width="10.59" height="7.9" transform="translate(-38.31 76.47) rotate(-29.63)"/><path class="cls-1" d="M124.19,106.81l20.44,35.93c1.98-1.6,2.59-4.44,1.28-6.72l-17.86-31.4-3.86,2.2Z"/></g><g><g class="cls-9"><g><rect class="cls-14" x="53.26" y="7.1" width="93.91" height="94.57" rx="8.71" ry="8.71"/><path class="cls-3" d="M129.24,101.67l-3.57-18.3,.03-.35-15.25-8.53v.02l-2.95-1.65v-7.94l5.59-2.79c.85-.42,1.45-1.15,1.62-1.98l1.23-8.7c.6-.01,1.08-.4,1.42-.77,2.31-2.5,3.54-5.32,3.57-8.01,.01-1.02-.32-2.18-1.69-2.59-.58-.17-1.14-.18-1.68-.07l.57-4c1.5-11.24-6.38-21.45-16.99-21.54h0c-10.61,.08-18.49,10.3-16.99,21.54l.56,3.97c-.59-.16-1.24-.19-1.9-.01-1.38,.38-1.73,1.53-1.74,2.55-.02,2.69,1.16,5.53,3.42,8.07,.35,.39,.84,.82,1.48,.81,.13,0,.24-.03,.35-.06l.15,1.09h-.02l.06,.26,1.06,7.46c.17,.82,.77,1.55,1.62,1.98l3.92,1.96v3.65h0l-.08,4.69-3.2,2.11-10.07,5.71,.03-.02-4.92,2.79-3.64,18.65h58.04Z"/></g><g><rect class="cls-14" x="51.44" y="15.1" width="95.73" height="96.41" rx="15.09" ry="15.09"/><g><path class="cls-11" d="M96.28,36.81c1.24-.73,2.47-.63,3.69-.35,2.2,.5,4.13,1.6,6.03,2.76,1.36,.83,2.65,1.76,3.95,2.69-1.05-1.63-2.49-2.88-4.08-3.95-1.59-1.07-3.31-1.87-5.19-2.53,2.78-3.1,5.88-5.34,10.25-4.95,2.24,.2,4.2,1.15,5.96,2.49,3.46,2.64,5.77,6.15,7.48,10.08,2.03,4.66,2.95,9.53,2.61,14.61-.32,4.92-2.28,9.19-5.35,12.99-4.18,5.17-9.61,8.21-16.12,9.34-4.11,.71-6.35,.66-12.1-.06,.84,1.31,1.65,2.58,2.46,3.84,.97,1.51,1.94,3.01,2.91,4.51,.13,.2,.22,.38,.53,.38,4.96-.01,9.92,0,14.94-.11l-10.8-6.88c1.05-.03,1.97,.07,2.87-.12,.08-.02,.17,0,.23-.04,.88-.51,1.5-.03,2.19,.47,2.9,2.1,5.84,4.15,8.75,6.24,.43,.31,.87,.45,1.41,.45,7.21-.02,14.42,0,21.63-.02,.59,0,.83,.13,.74,.74-.08,.52,.22,1.24-.12,1.52-.33,.26-1.01,.1-1.54,.1-3.68,0-7.37,0-11.05,0-.13,0-.27-.07-.44,.1,2.87,1.66,5.71,3.3,8.67,5.01-1.31,.08-2.4,.05-3.49-.62-2.42-1.51-4.93-2.88-7.39-4.31-.25-.15-.5-.19-.78-.19-12.29,0-24.58,0-36.87,0-4.61,0-9.22,0-13.83,.01-.45,0-.64-.1-.58-.58,.07-.58-.26-1.36,.14-1.69,.34-.29,1.09-.09,1.66-.09,6.74,0,13.47,0,20.21,0,.22,0,.43,0,.76,0-.51-.78-.96-1.48-1.43-2.17-1.53-2.29-3.05-4.59-4.59-6.87-.19-.28-.24-.53-.18-.88,.53-3.29,1.75-6.32,3.41-9.18,1.14-1.95,2.43-3.8,3.82-5.57,.53-.68,1.12-1.31,1.7-1.99-.89,.25-4.77,3.51-6.82,5.77-2.04,2.24-3.99,4.57-5.72,7.06-1.71,2.47-3.28,5.02-4.65,7.7,.3-5.01,1.73-9.7,3.82-14.21,2.49-5.37,5.82-10.21,9.37-14.92,1.74-2.31,3.56-4.56,5.19-6.96,.4-.59,.74-1.2,1.1-1.82,.72-1.26,.58-2.48-.05-3.7-1.04-2.01-2.8-3.13-4.83-3.94-.13-.05-.26-.09-.49-.17Zm18.12-.22c0-.77-.59-1.39-1.36-1.4-.84-.01-1.48,.6-1.47,1.42,0,.74,.64,1.38,1.4,1.4,.76,.02,1.43-.64,1.43-1.42Z"/><path class="cls-11" d="M57.27,86.15c9.11-5.91,18.22-11.81,27.42-17.78-.47,.97-.91,1.83-1.31,2.71-.89,2.01-1.69,4.06-2.15,6.23-.06,.26-.22,.4-.43,.53-4.31,2.72-8.63,5.43-12.94,8.15-.17,.11-.33,.21-.54,.22-3.34,.08-6.68,.13-10.06-.05Z"/></g></g></g><g><path class="cls-6" d="M78.14,52.59c-.84,1.03-1.61,2.1-2.33,3.21,21.85,6,43.69,12.01,65.54,18.01-.04-1.32-.17-2.63-.36-3.95-20.95-5.76-41.91-11.52-62.86-17.28Z"/><path class="cls-5" d="M73.12,60.76c-1.84,4.19-2.86,8.71-3,13.3l66.79,18.36c2.23-4.01,3.65-8.42,4.22-12.96-22.67-6.23-45.34-12.46-68.01-18.69Z"/></g><path class="cls-8" d="M84.53,39.85c-19.25,10.95-25.98,35.43-15.03,54.67,10.95,19.25,35.43,25.98,54.67,15.03,19.25-10.95,25.98-35.43,15.03-54.67-10.95-19.25-35.43-25.98-54.67-15.03Zm37.25,63.4c-15.56,8.85-35.34,3.41-44.19-12.15-8.85-15.56-3.41-35.34,12.15-44.19,15.56-8.85,35.34-3.41,44.19,12.15,8.85,15.56,3.41,35.34-12.15,44.19Z"/><path class="cls-7" d="M85.93,40.24c-19.25,10.95-25.98,35.43-15.03,54.67,10.95,19.25,35.43,25.98,54.67,15.03,19.25-10.95,25.98-35.43,15.03-54.67-10.95-19.25-35.43-25.98-54.67-15.03Zm35.84,63.02c-15.56,8.85-35.34,3.41-44.19-12.15-8.85-15.56-3.41-35.34,12.15-44.19,15.56-8.85,35.34-3.41,44.19,12.15,8.85,15.56,3.41,35.34-12.15,44.19Z"/><path class="cls-8" d="M87.8,43.53c-17.43,9.91-23.52,32.08-13.61,49.51,9.91,17.43,32.08,23.52,49.51,13.61,17.43-9.91,23.52-32.08,13.61-49.51-9.91-17.43-32.08-23.52-49.51-13.61Zm33.97,59.73c-15.56,8.85-35.34,3.41-44.19-12.15-8.85-15.56-3.41-35.34,12.15-44.19,15.56-8.85,35.34-3.41,44.19,12.15,8.85,15.56,3.41,35.34-12.15,44.19Z"/><path class="cls-1" d="M88.13,44.1c-17.11,9.73-23.09,31.5-13.36,48.61,9.73,17.11,31.5,23.09,48.61,13.36s23.09-31.5,13.36-48.61c-9.73-17.11-31.5-23.09-48.61-13.36Zm33.65,59.15c-15.56,8.85-35.34,3.41-44.19-12.15-8.85-15.56-3.41-35.34,12.15-44.19,15.56-8.85,35.34-3.41,44.19,12.15,8.85,15.56,3.41,35.34-12.15,44.19Z"/><g><path class="cls-8" d="M86.45,41.14c-3.48,1.98-6.54,4.41-9.14,7.18l1.5,1.02c2.44-2.56,5.29-4.81,8.52-6.65,2.36-1.34,4.8-2.39,7.29-3.17l-.43-1.73c-2.64,.82-5.24,1.93-7.74,3.35Z"/><path class="cls-8" d="M66.71,74.8l1.78,.6c-.06-8.18,2.57-16.23,7.54-22.8l-1.53-.93c-5.01,6.69-7.72,14.83-7.78,23.12Z"/></g><g><path class="cls-1" d="M125.57,108.79c3.48-1.98,6.54-4.41,9.14-7.18l-1.5-1.02c-2.44,2.56-5.29,4.81-8.52,6.65-2.36,1.34-4.8,2.39-7.29,3.17l.43,1.73c2.64-.82,5.24-1.93,7.74-3.35Z"/><path class="cls-1" d="M145.31,75.12l-1.78-.6c.06,8.18-2.57,16.23-7.54,22.8l1.53,.93c5.01-6.69,7.72-14.83,7.78-23.12Z"/></g></g></g></g></svg>