<?xml version="1.0" encoding="UTF-8"?><svg id="Capa_1" xmlns="http://www.w3.org/2000/svg" viewBox="0 0 81.13 54.84"><defs><style>.cls-1{fill:#ba7414;}.cls-2{fill:none;}.cls-3{fill:#ffcd1f;}</style></defs><g><g><path class="cls-1" d="M60.91,21.92l-2.22-.94s.26-4.52-6.23-6.99-13.65-1.79-16.46-4.18C33.19,7.42,22.7,0,22.7,0l3.67,4.18-3.67-1.62s3.24,3.58,2.98,3.41c-.26-.17-7.76-3.84-7.76-3.84l7.68,5.29-3.07-.68s3.75,2.47,3.41,2.47h-3.84l6.4,3.24s-.09-.51-1.37,4.61c-1.28,5.12-2.39,11.94-5.46,15.44-3.07,3.5-8.1,8.36-8.1,8.36,0,0,15.43-1.83,22.34,1.88,7.16,3.84,12.88,12.11,12.88,12.11,0,0-2.56-7.33-1.53-12.79,1.02-5.46,4.78-8.27,9.89-8.53,5.12-.26,5.8,.24,6.74,.32,.94,.08-2.99-11.92-2.99-11.92"/><path class="cls-1" d="M63.03,29.77c-.05-2.49-.32-5.15-1.62-7.33-.37-.63-1.35-.06-.98,.57,1.2,2.01,1.42,4.47,1.47,6.76,.01,.73,1.15,.73,1.14,0h0Z"/><path class="cls-3" d="M50.18,20.3c.17,0,6.72,.11,6.72,3.28s-7.4,4.26-7.4,4.26c0,0,1.75-1.41,1.75-3.77s-1.07-3.77-1.07-3.77"/><path class="cls-3" d="M56.62,19.74s-3.45-3.45-7.52-3.45c-4.07,0-7.18,1.41-11.7,1.41-4.52,0-9.21-1.41-9.21-1.41,0,0,2.71,3.11,8.08,3.11,5.37,0,7.12-1.81,12.88-1.81,5.76,0,7.46,2.15,7.46,2.15"/><path class="cls-3" d="M39.61,21.92c-3.16,0-8.25-2.95-8.25-2.95,0,0,1.8,.98,4.92,.98,3.11,0,8.52-1.81,12.88-1.81,4.36,0,7.46,2.15,7.46,2.15,0,0-4.63-.73-7.57-.73-2.94,0-7.57,2.36-9.44,2.36"/><path class="cls-3" d="M48.15,29.39s-14.47,6.78-14.47,9.38,2.66,4.29,5.37,0c2.71-4.29,9.1-9.38,9.1-9.38"/><path class="cls-3" d="M46.95,51.42s-4.85-3.6-4.85-8.18c0-4.58,2.69-7.32,4.83-8.32,2.15-1,5.9-1,5.9-1,0,0-8.22,1.57-8.22,8.88,0,5.85,2.33,8.62,2.33,8.62"/><path class="cls-3" d="M56.21,33.56s-11.07,1.11-11.07,9.49c0,7.15,2.84,8.98,2.84,8.98,0,0-.88-5.6-.88-8.94,0-4.72,5.79-8.79,9.1-9.53"/><path class="cls-3" d="M63.01,27.81c0-4.12-2.1-5.89-2.1-5.89,0,0,1.84,.72,4.92,3.8,3.07,3.08,3.26,4.6,3.26,5.93s-.85,3.83-.85,3.83c0,0-.4-1.02-.91-1.56,0,0,.25-1.76-.4-2.45-.65-.69-4.27-2.08-4.27-2.08,0,0,3.76,2.16,3.95,2.43,.19,.27,.47,.38,.36,1.29-.04,.33-.12,.38-.15,.59-.55-.09-1.52,.57-2.62,.26-1.24-.34-4.7-.52-4.7-.52,0,0,3.5-3.27,3.5-5.64"/><g><path class="cls-3" d="M44.96,24.46c0,1.1,.94,2,2.09,2s2.09-.9,2.09-2-.94-2-2.09-2-2.09,.9-2.09,2"/><path class="cls-1" d="M46.05,24.74c0,.62,.5,1.12,1.12,1.12s1.13-.5,1.13-1.12c0-.62-.5-1.12-1.13-1.12s-1.12,.5-1.12,1.12"/></g></g><path class="cls-3" d="M63.01,27.81c0-1.57-.31-3.17-1.08-4.55-.19-.34-.46-.88-.77-1.11-.74-.54-1.9-.76-2.72-1.23,.17,.74,.7,1.33,1.18,1.91,1.15,1.4,2.1,2.95,2.84,4.6,.05,.11,.1,.24,.05,.36-.03,.09-.12,.14-.19,.2-1.16,.77-2.35,1.5-3.57,2.17,.16,.27,.46,.46,.77,.49-1.1,.84-2.16,1.74-3.17,2.69,.89,.02,2.58,.37,3.34-.05,.44-.25,.87-.9,1.18-1.28,.96-1.13,2.15-2.63,2.15-4.19"/></g><rect class="cls-2" y="0" width="81.13" height="54.84"/></svg>