<?xml version="1.0" encoding="UTF-8"?><svg id="Capa_5" xmlns="http://www.w3.org/2000/svg" viewBox="0 0 271.88 20.81"><defs><style>.cls-1{fill:#f4e000;}.cls-2{fill:#c789bb;}.cls-3{fill:#ef7865;}.cls-4{fill:#458fc6;}.cls-5{fill:#40b9be;}.cls-6{fill:#a65139;}.cls-7{fill:#95c11f;}.cls-8{fill:#f7b05d;}.cls-9{fill:#f7bcc6;}</style></defs><path class="cls-7" d="M6.81,.39c1.1-.16,2.22-.28,3.34-.34,1.45-.08,2.87-.07,4.22,.04,1.46,.12,2.83,.36,4.07,.7,.65,.18,1.27,.4,1.86,.66,.26,.11,1.2,.68,1.41,.85,.39,.32,.75,.71,1.06,1.15,.29,.41,.54,.88,.75,1.39,.19,.47,.35,.99,.48,1.56,.11,.52,.19,1.07,.24,1.67,.04,.53,.05,1.1,.03,1.69-.02,.54-.07,1.1-.14,1.66-.07,.52-.16,1.04-.28,1.55-.13,.59-.3,1.16-.48,1.71-.39,1.16-.88,2.12-1.48,2.93-.3,.41-.65,.78-1.04,1.12-.37,.33-.8,.62-1.27,.87-.46,.24-.96,.44-1.53,.61-.27,.08-1.7,.32-1.88,.34-1.67,.18-3.37,.23-5.05,.23-1.89,0-4.44-.37-4.8-.45-.69-.16-1.35-.4-1.97-.72-.3-.15-.59-.33-.86-.53-.24-.17-.47-.37-.71-.6-.39-.38-.76-.84-1.08-1.36-.57-.93-.99-2.02-1.28-3.34C.18,12.68,.04,11.45,0,10.02c-.03-1.11,0-7.33,3-8.72,.41-.19,.89-.33,1.49-.48,.58-.14,1.15-.24,1.69-.33,.21-.03,.42-.07,.63-.1"/><path class="cls-4" d="M31.57,.39c1.1-.16,2.22-.28,3.34-.34,1.45-.08,2.87-.07,4.22,.04,1.46,.12,2.83,.36,4.07,.7,.65,.18,1.27,.4,1.86,.66,.26,.11,1.2,.68,1.41,.85,.39,.32,.75,.71,1.06,1.15,.29,.41,.54,.88,.75,1.39,.19,.47,.35,.99,.48,1.56,.11,.52,.19,1.07,.24,1.67,.04,.53,.05,1.1,.03,1.69-.02,.54-.07,1.1-.14,1.66-.07,.52-.16,1.04-.28,1.55-.13,.59-.3,1.16-.48,1.71-.39,1.16-.88,2.12-1.48,2.93-.3,.41-.65,.78-1.04,1.12-.37,.33-.8,.62-1.27,.87-.46,.24-.96,.44-1.53,.61-.27,.08-1.7,.32-1.88,.34-1.67,.18-3.37,.23-5.05,.23-1.89,0-4.44-.37-4.8-.45-.69-.16-1.35-.4-1.97-.72-.3-.15-.59-.33-.86-.53-.24-.17-.47-.37-.71-.6-.39-.38-.76-.84-1.08-1.36-.57-.93-.99-2.02-1.28-3.34-.25-1.12-.38-2.35-.42-3.78-.03-1.11,0-7.33,3-8.72,.41-.19,.89-.33,1.49-.48,.58-.14,1.15-.24,1.69-.33,.21-.03,.42-.07,.63-.1"/><path class="cls-1" d="M56.33,.39c1.1-.16,2.22-.28,3.34-.34,1.45-.08,2.87-.07,4.22,.04,1.46,.12,2.83,.36,4.07,.7,.65,.18,1.27,.4,1.86,.66,.26,.11,1.2,.68,1.41,.85,.39,.32,.75,.71,1.06,1.15,.29,.41,.54,.88,.75,1.39,.19,.47,.35,.99,.48,1.56,.11,.52,.19,1.07,.24,1.67,.04,.53,.05,1.1,.03,1.69-.02,.54-.07,1.1-.14,1.66-.07,.52-.16,1.04-.28,1.55-.13,.59-.3,1.16-.48,1.71-.39,1.16-.88,2.12-1.48,2.93-.3,.41-.65,.78-1.04,1.12-.37,.33-.8,.62-1.27,.87-.46,.24-.96,.44-1.53,.61-.27,.08-1.7,.32-1.88,.34-1.67,.18-3.37,.23-5.05,.23-1.89,0-4.44-.37-4.8-.45-.69-.16-1.35-.4-1.97-.72-.3-.15-.59-.33-.86-.53-.24-.17-.47-.37-.71-.6-.39-.38-.76-.84-1.08-1.36-.57-.93-.99-2.02-1.28-3.34-.25-1.12-.38-2.35-.42-3.78-.03-1.11,0-7.33,3-8.72,.41-.19,.89-.33,1.49-.48,.58-.14,1.15-.24,1.69-.33,.21-.03,.42-.07,.63-.1"/><path class="cls-7" d="M81.09,.39c1.1-.16,2.22-.28,3.34-.34,1.45-.08,2.87-.07,4.22,.04,1.46,.12,2.83,.36,4.07,.7,.65,.18,1.27,.4,1.86,.66,.26,.11,1.2,.68,1.41,.85,.39,.32,.75,.71,1.06,1.15,.29,.41,.54,.88,.75,1.39,.19,.47,.35,.99,.48,1.56,.11,.52,.19,1.07,.24,1.67,.04,.53,.05,1.1,.03,1.69-.02,.54-.07,1.1-.14,1.66-.07,.52-.16,1.04-.28,1.55-.13,.59-.3,1.16-.48,1.71-.39,1.16-.88,2.12-1.48,2.93-.3,.41-.65,.78-1.04,1.12-.37,.33-.8,.62-1.27,.87-.46,.24-.96,.44-1.53,.61-.27,.08-1.7,.32-1.88,.34-1.67,.18-3.37,.23-5.05,.23-1.89,0-4.44-.37-4.8-.45-.69-.16-1.35-.4-1.97-.72-.3-.15-.59-.33-.86-.53-.24-.17-.47-.37-.71-.6-.39-.38-.76-.84-1.08-1.36-.57-.93-.99-2.02-1.28-3.34-.25-1.12-.38-2.35-.42-3.78-.03-1.11,0-7.33,3-8.72,.41-.19,.89-.33,1.49-.48,.58-.14,1.15-.24,1.69-.33,.21-.03,.42-.07,.63-.1"/><path class="cls-3" d="M105.85,.39c1.1-.16,2.22-.28,3.34-.34,1.45-.08,2.87-.07,4.22,.04,1.46,.12,2.83,.36,4.07,.7,.65,.18,1.27,.4,1.86,.66,.26,.11,1.2,.68,1.41,.85,.39,.32,.75,.71,1.06,1.15,.29,.41,.54,.88,.75,1.39,.19,.47,.35,.99,.48,1.56,.11,.52,.19,1.07,.24,1.67,.04,.53,.05,1.1,.03,1.69-.02,.54-.07,1.1-.14,1.66-.07,.52-.16,1.04-.28,1.55-.13,.59-.3,1.16-.48,1.71-.39,1.16-.88,2.12-1.48,2.93-.3,.41-.65,.78-1.04,1.12-.37,.33-.8,.62-1.27,.87-.46,.24-.96,.44-1.53,.61-.27,.08-1.7,.32-1.88,.34-1.67,.18-3.37,.23-5.05,.23-1.89,0-4.44-.37-4.8-.45-.69-.16-1.35-.4-1.97-.72-.3-.15-.59-.33-.86-.53-.24-.17-.47-.37-.71-.6-.39-.38-.76-.84-1.08-1.36-.57-.93-.99-2.02-1.28-3.34-.25-1.12-.38-2.35-.42-3.78-.03-1.11,0-7.33,3-8.72,.41-.19,.89-.33,1.49-.48,.58-.14,1.15-.24,1.69-.33,.21-.03,.42-.07,.63-.1"/><path class="cls-7" d="M130.61,.39c1.1-.16,2.22-.28,3.34-.34,1.45-.08,2.87-.07,4.22,.04,1.46,.12,2.83,.36,4.07,.7,.65,.18,1.27,.4,1.86,.66,.26,.11,1.2,.68,1.41,.85,.39,.32,.75,.71,1.06,1.15,.29,.41,.54,.88,.75,1.39,.19,.47,.35,.99,.48,1.56,.11,.52,.19,1.07,.24,1.67,.04,.53,.05,1.1,.03,1.69-.02,.54-.07,1.1-.14,1.66-.07,.52-.16,1.04-.28,1.55-.13,.59-.3,1.16-.48,1.71-.39,1.16-.88,2.12-1.48,2.93-.3,.41-.65,.78-1.04,1.12-.37,.33-.8,.62-1.27,.87-.46,.24-.96,.44-1.53,.61-.27,.08-1.7,.32-1.88,.34-1.67,.18-3.37,.23-5.05,.23-1.89,0-4.44-.37-4.8-.45-.69-.16-1.35-.4-1.97-.72-.3-.15-.59-.33-.86-.53-.24-.17-.47-.37-.71-.6-.39-.38-.76-.84-1.08-1.36-.57-.93-.99-2.02-1.28-3.34-.25-1.12-.38-2.35-.42-3.78-.03-1.11,0-7.33,3-8.72,.41-.19,.89-.33,1.49-.48,.58-.14,1.15-.24,1.69-.33,.21-.03,.42-.07,.63-.1"/><path class="cls-8" d="M155.37,.39c1.1-.16,2.22-.28,3.34-.34,1.45-.08,2.87-.07,4.22,.04,1.46,.12,2.83,.36,4.07,.7,.65,.18,1.27,.4,1.86,.66,.26,.11,1.2,.68,1.41,.85,.39,.32,.75,.71,1.06,1.15,.29,.41,.54,.88,.75,1.39,.19,.47,.35,.99,.48,1.56,.11,.52,.19,1.07,.24,1.67,.04,.53,.05,1.1,.03,1.69-.02,.54-.07,1.1-.14,1.66-.07,.52-.16,1.04-.28,1.55-.13,.59-.3,1.16-.48,1.71-.39,1.16-.88,2.12-1.48,2.93-.3,.41-.65,.78-1.04,1.12-.37,.33-.8,.62-1.27,.87-.46,.24-.96,.44-1.53,.61-.27,.08-1.7,.32-1.88,.34-1.67,.18-3.37,.23-5.05,.23-1.89,0-4.44-.37-4.8-.45-.69-.16-1.35-.4-1.97-.72-.3-.15-.59-.33-.86-.53-.24-.17-.47-.37-.71-.6-.39-.38-.76-.84-1.08-1.36-.57-.93-.99-2.02-1.28-3.34-.25-1.12-.38-2.35-.42-3.78-.03-1.11,0-7.33,3-8.72,.41-.19,.89-.33,1.49-.48,.58-.14,1.15-.24,1.69-.33,.21-.03,.42-.07,.63-.1"/><path class="cls-2" d="M180.13,.39c1.1-.16,2.22-.28,3.34-.34,1.45-.08,2.87-.07,4.22,.04,1.46,.12,2.83,.36,4.07,.7,.65,.18,1.27,.4,1.86,.66,.26,.11,1.2,.68,1.41,.85,.39,.32,.75,.71,1.06,1.15,.29,.41,.54,.88,.75,1.39,.19,.47,.35,.99,.48,1.56,.11,.52,.19,1.07,.24,1.67,.04,.53,.05,1.1,.03,1.69-.02,.54-.07,1.1-.14,1.66-.07,.52-.16,1.04-.28,1.55-.13,.59-.3,1.16-.48,1.71-.39,1.16-.88,2.12-1.48,2.93-.3,.41-.65,.78-1.04,1.12-.37,.33-.8,.62-1.27,.87-.46,.24-.96,.44-1.53,.61-.27,.08-1.7,.32-1.88,.34-1.67,.18-3.37,.23-5.05,.23-1.89,0-4.44-.37-4.8-.45-.69-.16-1.35-.4-1.97-.72-.3-.15-.59-.33-.86-.53-.24-.17-.47-.37-.71-.6-.39-.38-.76-.84-1.08-1.36-.57-.93-.99-2.02-1.28-3.34-.25-1.12-.38-2.35-.42-3.78-.03-1.11,0-7.33,3-8.72,.41-.19,.89-.33,1.49-.48,.58-.14,1.15-.24,1.69-.33,.21-.03,.42-.07,.63-.1"/><path class="cls-6" d="M204.89,.39c1.1-.16,2.22-.28,3.34-.34,1.45-.08,2.87-.07,4.22,.04,1.46,.12,2.83,.36,4.07,.7,.65,.18,1.27,.4,1.86,.66,.26,.11,1.2,.68,1.41,.85,.39,.32,.75,.71,1.06,1.15,.29,.41,.54,.88,.75,1.39,.19,.47,.35,.99,.48,1.56,.11,.52,.19,1.07,.24,1.67,.04,.53,.05,1.1,.03,1.69-.02,.54-.07,1.1-.14,1.66-.07,.52-.16,1.04-.28,1.55-.13,.59-.3,1.16-.48,1.71-.39,1.16-.88,2.12-1.48,2.93-.3,.41-.65,.78-1.04,1.12-.37,.33-.8,.62-1.27,.87-.46,.24-.96,.44-1.53,.61-.27,.08-1.7,.32-1.88,.34-1.67,.18-3.37,.23-5.05,.23-1.89,0-4.44-.37-4.8-.45-.69-.16-1.35-.4-1.97-.72-.3-.15-.59-.33-.86-.53-.24-.17-.47-.37-.71-.6-.39-.38-.76-.84-1.08-1.36-.57-.93-.99-2.02-1.28-3.34-.25-1.12-.38-2.35-.42-3.78-.03-1.11,0-7.33,3-8.72,.41-.19,.89-.33,1.49-.48,.58-.14,1.15-.24,1.69-.33,.21-.03,.42-.07,.63-.1"/><path class="cls-9" d="M204.89,.39c1.1-.16,2.22-.28,3.34-.34,1.45-.08,2.87-.07,4.22,.04,1.46,.12,2.83,.36,4.07,.7,.65,.18,1.27,.4,1.86,.66,.26,.11,1.2,.68,1.41,.85,.39,.32,.75,.71,1.06,1.15,.29,.41,.54,.88,.75,1.39,.19,.47,.35,.99,.48,1.56,.11,.52,.19,1.07,.24,1.67,.04,.53,.05,1.1,.03,1.69-.02,.54-.07,1.1-.14,1.66-.07,.52-.16,1.04-.28,1.55-.13,.59-.3,1.16-.48,1.71-.39,1.16-.88,2.12-1.48,2.93-.3,.41-.65,.78-1.04,1.12-.37,.33-.8,.62-1.27,.87-.46,.24-.96,.44-1.53,.61-.27,.08-1.7,.32-1.88,.34-1.67,.18-3.37,.23-5.05,.23-1.89,0-4.44-.37-4.8-.45-.69-.16-1.35-.4-1.97-.72-.3-.15-.59-.33-.86-.53-.24-.17-.47-.37-.71-.6-.39-.38-.76-.84-1.08-1.36-.57-.93-.99-2.02-1.28-3.34-.25-1.12-.38-2.35-.42-3.78-.03-1.11,0-7.33,3-8.72,.41-.19,.89-.33,1.49-.48,.58-.14,1.15-.24,1.69-.33,.21-.03,.42-.07,.63-.1"/><path class="cls-6" d="M229.65,.39c1.1-.16,2.22-.28,3.34-.34,1.45-.08,2.87-.07,4.22,.04,1.46,.12,2.83,.36,4.07,.7,.65,.18,1.27,.4,1.86,.66,.26,.11,1.2,.68,1.41,.85,.39,.32,.75,.71,1.06,1.15,.29,.41,.54,.88,.75,1.39,.19,.47,.35,.99,.48,1.56,.11,.52,.19,1.07,.24,1.67,.04,.53,.05,1.1,.03,1.69-.02,.54-.07,1.1-.14,1.66-.07,.52-.16,1.04-.28,1.55-.13,.59-.3,1.16-.48,1.71-.39,1.16-.88,2.12-1.48,2.93-.3,.41-.65,.78-1.04,1.12-.37,.33-.8,.62-1.27,.87-.46,.24-.96,.44-1.53,.61-.27,.08-1.7,.32-1.88,.34-1.67,.18-3.37,.23-5.05,.23-1.89,0-4.44-.37-4.8-.45-.69-.16-1.35-.4-1.97-.72-.3-.15-.59-.33-.86-.53-.24-.17-.47-.37-.71-.6-.39-.38-.76-.84-1.08-1.36-.57-.93-.99-2.02-1.28-3.34-.25-1.12-.38-2.35-.42-3.78-.03-1.11,0-7.33,3-8.72,.41-.19,.89-.33,1.49-.48,.58-.14,1.15-.24,1.69-.33,.21-.03,.42-.07,.63-.1"/><path class="cls-9" d="M229.65,.39c1.1-.16,2.22-.28,3.34-.34,1.45-.08,2.87-.07,4.22,.04,1.46,.12,2.83,.36,4.07,.7,.65,.18,1.27,.4,1.86,.66,.26,.11,1.2,.68,1.41,.85,.39,.32,.75,.71,1.06,1.15,.29,.41,.54,.88,.75,1.39,.19,.47,.35,.99,.48,1.56,.11,.52,.19,1.07,.24,1.67,.04,.53,.05,1.1,.03,1.69-.02,.54-.07,1.1-.14,1.66-.07,.52-.16,1.04-.28,1.55-.13,.59-.3,1.16-.48,1.71-.39,1.16-.88,2.12-1.48,2.93-.3,.41-.65,.78-1.04,1.12-.37,.33-.8,.62-1.27,.87-.46,.24-.96,.44-1.53,.61-.27,.08-1.7,.32-1.88,.34-1.67,.18-3.37,.23-5.05,.23-1.89,0-4.44-.37-4.8-.45-.69-.16-1.35-.4-1.97-.72-.3-.15-.59-.33-.86-.53-.24-.17-.47-.37-.71-.6-.39-.38-.76-.84-1.08-1.36-.57-.93-.99-2.02-1.28-3.34-.25-1.12-.38-2.35-.42-3.78-.03-1.11,0-7.33,3-8.72,.41-.19,.89-.33,1.49-.48,.58-.14,1.15-.24,1.69-.33,.21-.03,.42-.07,.63-.1"/><path class="cls-5" d="M254.41,.39c1.1-.16,2.22-.28,3.34-.34,1.45-.08,2.87-.07,4.22,.04,1.46,.12,2.83,.36,4.07,.7,.65,.18,1.27,.4,1.86,.66,.26,.11,1.2,.68,1.41,.85,.39,.32,.75,.71,1.06,1.15,.29,.41,.54,.88,.75,1.39,.19,.47,.35,.99,.48,1.56,.11,.52,.19,1.07,.24,1.67,.04,.53,.05,1.1,.03,1.69-.02,.54-.07,1.1-.14,1.66-.07,.52-.16,1.04-.28,1.55-.13,.59-.3,1.16-.48,1.71-.39,1.16-.88,2.12-1.48,2.93-.3,.41-.65,.78-1.04,1.12-.37,.33-.8,.62-1.27,.87-.46,.24-.96,.44-1.53,.61-.27,.08-1.7,.32-1.88,.34-1.67,.18-3.37,.23-5.05,.23-1.89,0-4.44-.37-4.8-.45-.69-.16-1.35-.4-1.97-.72-.3-.15-.59-.33-.86-.53-.24-.17-.47-.37-.71-.6-.39-.38-.76-.84-1.08-1.36-.57-.93-.99-2.02-1.28-3.34-.25-1.12-.38-2.35-.42-3.78-.03-1.11,0-7.33,3-8.72,.41-.19,.89-.33,1.49-.48,.58-.14,1.15-.24,1.69-.33,.21-.03,.42-.07,.63-.1"/></svg>