<?xml version="1.0" encoding="UTF-8"?><svg id="Objects" xmlns="http://www.w3.org/2000/svg" viewBox="0 0 154.28 161.27"><defs><style>.cls-1{fill:#c06536;}.cls-2{fill:#00d0ce;}.cls-3{fill:#d88a4a;}.cls-4{fill:#009db3;}</style></defs><path class="cls-1" d="M126.78,10.56V0H27.51V10.56H0L1.26,31.38c1.24,20.41,12.65,38.84,30.36,49.06l16.43,9.48c3.73,4.71,7.87,8.96,12.45,12.59l8.39,6.65-.04,13.33c-16.11,2.73-29.46,13.31-36.22,27.63h-10.26v11.15h109.58v-11.15h-10.32c-6.77-14.32-20.11-24.9-36.22-27.63l-.04-13.33,8.39-6.65c4.58-3.63,8.73-7.88,12.45-12.59l16.43-9.48c17.71-10.22,29.12-28.65,30.36-49.06l1.26-20.82h-27.51ZM16.72,36.51l-.66-10.83h11.44v1.77c0,12.93,2.26,25.47,6.42,36.87-10.04-5.79-16.5-16.24-17.21-27.81Zm120.84,0c-.7,11.57-7.17,22.01-17.21,27.81,4.16-11.4,6.42-23.94,6.42-36.87v-1.77h11.44l-.66,10.83Z"/><path class="cls-3" d="M45.31,58.62c-3.68-13.24-3.81-26.9-3.92-38.96-.03-2.78,2.21-5.06,4.99-5.09,2.53-.01,5.06,2.21,5.09,4.99,.11,11.43,.23,24.39,3.56,36.35,.75,2.68-.82,5.46-3.5,6.21-.45,.13-.91,.19-1.35,.19-2.21,0-4.23-1.46-4.85-3.69Z"/><path class="cls-3" d="M55.21,75.54c-2.9,0-5.25-2.35-5.25-5.25s2.35-5.25,5.25-5.25,5.25,2.35,5.25,5.25-2.35,5.25-5.25,5.25Z"/><path class="cls-3" d="M126.78,10.56V0h-.67L46.94,89.28l1.11,.64c3.73,4.71,7.87,8.96,12.45,12.59l8.39,6.65-.04,13.33c-16.11,2.73-29.46,13.31-36.22,27.63h-10.26v11.15h109.58v-11.15h-10.32c-6.77-14.32-20.11-24.9-36.22-27.63l-.04-13.33,8.39-6.65c4.58-3.63,8.73-7.88,12.45-12.59l16.43-9.48c17.71-10.22,29.12-28.65,30.36-49.06l1.26-20.82h-27.51Zm10.78,25.95c-.7,11.57-7.17,22.01-17.21,27.81,4.16-11.4,6.42-23.94,6.42-36.87v-1.77h11.44l-.66,10.83Z"/><path class="cls-2" d="M85.43,122.48s-3.4,1.84-8.42,1.84c-4.36,0-8.15-1.84-8.15-1.84-16.11,2.73-29.46,13.31-36.22,27.63h-10.26v11.15h109.58v-11.15h-10.32c-6.77-14.32-20.11-24.9-36.22-27.63Z"/><rect class="cls-4" x="22.38" y="150.11" width="109.58" height="11.15"/></svg>