<?xml version="1.0" encoding="utf-8"?>
<!-- Generator: Adobe Illustrator 26.3.1, SVG Export Plug-In . SVG Version: 6.00 Build 0)  -->
<svg version="1.1" id="Capa_1" xmlns="http://www.w3.org/2000/svg" xmlns:xlink="http://www.w3.org/1999/xlink" x="0px" y="0px"
	 viewBox="0 0 103.2 88.5" style="enable-background:new 0 0 103.2 88.5;" xml:space="preserve">
<style type="text/css">
	.st0{fill:#E0E0E0;}
</style>
<path class="st0" d="M28.9,1.7c4.7-0.7,9.4-1.2,14.2-1.5c6.2-0.3,12.2-0.3,17.9,0.2c6.2,0.5,12,1.5,17.3,3c2.7,0.8,5.4,1.7,7.9,2.8
	c1.1,0.5,5.1,2.9,6,3.6c1.7,1.4,3.2,3,4.5,4.9c1.2,1.7,2.3,3.7,3.2,5.9c0.8,2,1.5,4.2,2,6.6c0.5,2.2,0.8,4.5,1,7.1
	c0.2,2.3,0.2,4.7,0.1,7.2c-0.1,2.3-0.3,4.7-0.6,7.1c-0.3,2.2-0.7,4.4-1.2,6.6c-0.6,2.5-1.3,4.9-2,7.3c-1.7,4.9-3.7,9-6.3,12.4
	c-1.3,1.7-2.8,3.3-4.4,4.8c-1.6,1.4-3.4,2.6-5.4,3.7c-1.9,1-4.1,1.9-6.5,2.6c-1.2,0.3-7.2,1.4-8,1.5c-7.1,0.8-14.3,1-21.5,1
	c-8,0-18.9-1.6-20.4-1.9c-2.9-0.7-5.7-1.7-8.4-3.1c-1.3-0.7-2.5-1.4-3.7-2.2c-1-0.7-2-1.6-3-2.6c-1.7-1.6-3.2-3.6-4.6-5.8
	C4.8,68.9,3,64.3,1.8,58.7c-1-4.7-1.6-10-1.8-16.1c-0.1-4.7,0-31.2,12.8-37.1c1.8-0.8,3.8-1.4,6.3-2c2.5-0.6,4.9-1,7.2-1.4
	C27.2,1.9,28.1,1.8,28.9,1.7"/>
</svg>
