<?xml version="1.0" encoding="UTF-8"?>
<svg id="Capa_1" data-name="Capa 1" xmlns="http://www.w3.org/2000/svg" viewBox="0 0 103.19 88.46">
  <defs>
    <style>
      .cls-1 {
        fill: #88cfe5;
      }
    </style>
  </defs>
  <path class="cls-1" d="M28.94,1.66c4.67-.7,9.44-1.19,14.19-1.45,6.15-.34,12.18-.28,17.92,.18,6.21,.5,12.03,1.51,17.3,2.99,2.74,.77,5.41,1.71,7.92,2.79,1.12,.48,5.09,2.87,6,3.63,1.66,1.37,3.18,3.02,4.51,4.91,1.22,1.73,2.3,3.72,3.2,5.92,.83,2.02,1.49,4.19,2.03,6.64,.49,2.22,.82,4.55,1.01,7.11,.17,2.27,.21,4.69,.13,7.2-.08,2.29-.28,4.66-.6,7.07-.29,2.19-.69,4.41-1.19,6.59-.57,2.5-1.26,4.94-2.04,7.26-1.66,4.93-3.72,9-6.3,12.45-1.29,1.73-2.78,3.33-4.4,4.75-1.59,1.39-3.4,2.63-5.4,3.7-1.94,1.04-4.06,1.89-6.49,2.59-1.16,.33-7.21,1.38-8,1.47-7.09,.77-14.31,.96-21.46,.98-8.03,.02-18.89-1.56-20.4-1.92-2.93-.68-5.74-1.72-8.36-3.08-1.27-.66-2.5-1.42-3.66-2.25-1.01-.73-2-1.56-3.03-2.55-1.67-1.63-3.21-3.57-4.57-5.77-2.43-3.93-4.22-8.58-5.46-14.2C.75,53.93,.17,48.67,.02,42.6c-.12-4.73,0-31.17,12.75-37.06,1.76-.81,3.79-1.41,6.33-2.03,2.45-.6,4.9-1.04,7.18-1.42,.89-.15,1.78-.29,2.67-.42"/>
</svg>