<?xml version="1.0" encoding="UTF-8"?>
<svg id="Capa_5" data-name="Capa 5" xmlns="http://www.w3.org/2000/svg" viewBox="0 0 150.57 161.68">
  <defs>
    <style>
      .cls-1 {
        fill: #332d15;
      }

      .cls-2 {
        fill: #343434;
      }

      .cls-3 {
        fill: #5aad99;
      }

      .cls-4 {
        fill: #7c6c2d;
      }

      .cls-5 {
        fill: #1c3f61;
      }

      .cls-6 {
        fill: #2e2f2f;
      }

      .cls-7 {
        fill: #fff;
      }

      .cls-8 {
        fill: #585858;
      }

      .cls-9 {
        fill: #0e1813;
      }

      .cls-10 {
        fill: #2c1319;
      }

      .cls-11 {
        fill: #2d2612;
      }

      .cls-12 {
        fill: #51461e;
      }

      .cls-13 {
        fill: #2b1218;
      }

      .cls-14 {
        fill: #f8f7f8;
      }

      .cls-15 {
        fill: #1d1d1b;
        font-family: TrustSans-Regular, 'Trust Sans';
        font-size: 7.3px;
        letter-spacing: .2em;
      }

      .cls-16 {
        fill: #57a896;
      }

      .cls-17 {
        fill: #050e11;
      }

      .cls-18 {
        fill: #f9f9fa;
      }

      .cls-19 {
        fill: #020203;
      }

      .cls-20 {
        fill: #373838;
      }

      .cls-21 {
        fill: #ebeaeb;
      }

      .cls-22 {
        fill: #5c5b5b;
      }

      .cls-23 {
        fill: #e3c654;
      }

      .cls-24 {
        fill: #09111a;
      }

      .cls-25 {
        fill: #b5484a;
      }

      .cls-26 {
        fill: #323232;
      }

      .cls-27 {
        fill: #36675b;
      }

      .cls-28 {
        fill: #10211d;
      }

      .cls-29 {
        fill: #1b446a;
      }

      .cls-30 {
        fill: #d8bf50;
      }

      .cls-31 {
        fill: #2f2f2f;
      }

      .cls-32 {
        fill: #3f1a1e;
      }

      .cls-33 {
        fill: #feffff;
      }

      .cls-34 {
        fill: #30190a;
      }

      .cls-35 {
        fill: #363116;
      }

      .cls-36 {
        fill: #4a4748;
      }

      .cls-37 {
        fill: #1c4367;
      }

      .cls-38 {
        fill: #313131;
      }

      .cls-39 {
        fill: #763036;
      }

      .cls-40 {
        fill: #333;
      }

      .cls-41 {
        fill: #091118;
      }

      .cls-42 {
        fill: #132724;
      }

      .cls-43 {
        fill: #313a46;
      }

      .cls-44 {
        fill: #2a2a2a;
      }

      .cls-45 {
        fill: #282828;
      }

      .cls-46 {
        fill: #2a2a2b;
      }

      .cls-47 {
        fill: #fbfafb;
      }

      .cls-48 {
        fill: #444;
      }

      .cls-49 {
        fill: #142726;
      }

      .cls-50 {
        fill: #787878;
      }

      .cls-51 {
        fill: #767676;
      }

      .cls-52 {
        fill: #091117;
      }

      .cls-53 {
        fill: #4e2024;
      }

      .cls-54 {
        fill: #3a3a3a;
      }

      .cls-55 {
        fill: #040503;
      }

      .cls-56 {
        fill: #797878;
      }

      .cls-57 {
        fill: #e3c755;
      }

      .cls-58 {
        fill: #356358;
      }

      .cls-59 {
        fill: #d85a63;
      }

      .cls-60 {
        fill: #32151a;
      }

      .cls-61 {
        fill: #322d14;
      }

      .cls-62 {
        fill: #ceb94d;
      }

      .cls-63 {
        fill: #311417;
      }

      .cls-64 {
        fill: #212121;
      }

      .cls-65 {
        fill: #3c2828;
      }

      .cls-66 {
        fill: #080f15;
      }

      .cls-67 {
        fill: #5d5d5d;
      }

      .cls-68 {
        fill: #2c2c2c;
      }

      .cls-69 {
        fill: #313232;
      }

      .cls-70 {
        fill: #303131;
      }

      .cls-71 {
        fill: #2e2e2e;
      }

      .cls-72 {
        fill: #132725;
      }

      .cls-73 {
        fill: #132321;
      }

      .cls-74 {
        fill: #5db29e;
      }

      .cls-75 {
        fill: #535353;
      }

      .cls-76 {
        fill: #2c2b2c;
      }

      .cls-77 {
        fill: #767575;
      }

      .cls-78 {
        fill: #252525;
      }

      .cls-79 {
        fill: #040505;
      }

      .cls-80 {
        fill: #2d2d2e;
      }

      .cls-81 {
        fill: #162c29;
      }

      .cls-82 {
        fill: #280b0b;
      }

      .cls-83 {
        fill: #070e15;
      }

      .cls-84 {
        fill: #1c456b;
      }

      .cls-85 {
        fill: #283d38;
      }

      .cls-86 {
        fill: #213f38;
      }

      .cls-87 {
        fill: #121316;
      }

      .cls-88 {
        fill: #f8f8f8;
      }

      .cls-89 {
        fill: #1c3f63;
      }

      .cls-90 {
        fill: #322d15;
      }

      .cls-91 {
        fill: #010101;
      }

      .cls-92 {
        fill: #3f1c26;
      }

      .cls-93 {
        fill: #3c3c3c;
      }

      .cls-94 {
        fill: #ce565e;
      }

      .cls-95 {
        fill: #e3c754;
      }

      .cls-96 {
        fill: #e3e3e3;
      }

      .cls-97 {
        fill: #fcfcfc;
      }

      .cls-98 {
        fill: #171f1d;
      }

      .cls-99 {
        fill: #f2f1f2;
      }
    </style>
  </defs>
  <path class="cls-87" d="M75.34,77.66c-24.53,0-49.07-.01-73.6,.03-1.3,0-1.65-.29-1.64-1.62,.06-10.91,.05-21.82,0-32.73,0-1.12,.29-1.42,1.42-1.42,49.2,.03,98.41,.03,147.61,0,1.13,0,1.42,.29,1.42,1.41-.04,10.96-.05,21.91,0,32.87,0,1.19-.27,1.49-1.48,1.49-24.58-.04-49.16-.03-73.74-.03Z"/>
  <path class="cls-55" d="M75.31,119.72c-24.53,0-49.06-.01-73.6,.03-1.34,0-1.62-.36-1.61-1.65,.05-10.86,.06-21.73,0-32.59,0-1.3,.39-1.53,1.59-1.53,49.11,.03,98.22,.03,147.33,0,1.29,0,1.53,.38,1.53,1.58-.04,10.91-.05,21.82,0,32.73,0,1.25-.35,1.47-1.51,1.46-24.58-.03-49.16-.03-73.73-.03Z"/>
  <path class="cls-69" d="M128.55,35.6c-7.01,.05-14.01,.08-21.02,.05-9.45-.04-18.9-.04-28.35-.05-25.64-.03-51.28-.01-76.92,0-.63,0-1.27,.02-1.9,.03-.2-.28-.13-.61-.13-.92,0-11.22,0-22.44,0-33.66,0-.27-.02-.54,.09-.8h.02c.33-.02,.47,.2,.58,.46,.13,.35,.15,.71,.15,1.07,0,5.38,.05,10.77-.02,16.15,.07,5.01,0,10.03,.03,15.05,0,1.87,.06,1.92,1.88,1.93,5.47,0,10.93,0,16.4,0,1.66,0,1.76-.1,1.77-1.77,.03-5.06-.04-10.12,.03-15.18-.07-5.38-.02-10.76-.02-16.14,0-.41,.02-.81,.17-1.2,.2-.37,.46-.56,.87-.3,.43,.6,.3,1.3,.3,1.96,.02,5.22,0,10.43,.02,15.65,.09,4.97,.01,9.95,.04,14.92,.01,2.03,.03,2.05,2.03,2.06,6.1,.03,12.21-.05,18.31,.04,.26,0,.52,0,.78,0,6.05-.08,12.11-.01,18.16-.04,2.16,0,2.21-.06,2.22-2.19,.03-4.92-.05-9.85,.04-14.77,.03-5.24,0-10.48,.02-15.72,0-.62-.1-1.27,.26-1.85,.13-.16,.29-.18,.46-.06,.46,.65,.31,1.39,.31,2.1,.01,10.16,0,20.33,.01,30.49,0,.61-.18,1.28,.4,1.77,.5,.29,1.05,.23,1.58,.23,5.58,0,11.16,0,16.73,0,.54,0,1.09,.06,1.57-.25,.57-.5,.38-1.17,.39-1.78,0-10.06,0-20.13,.01-30.19,0-.7-.17-1.46,.35-2.08,.18-.11,.33-.07,.45,.1,.24,.4,.27,.86,.27,1.3,0,5.31,.05,10.61-.02,15.92,.07,4.97,0,9.95,.03,14.92,0,2.02,.03,2.05,2.03,2.06,5.97,.02,11.93-.03,17.9,.02,.17,0,.35,.02,.52,.02,.18,0,.35,0,.52-.01,6.37-.06,12.73-.02,19.1-.02,.5,0,1,0,1.45,.26,.18,.11,.22,.26,.13,.45Z"/>
  <path class="cls-27" d="M64.72,.31h-.27c-.16,.21-.32,.42-.59,.51-.17,.06-.35,.11-.53,.11-6.49,.04-12.98,.14-19.47-.05-.48-.14-.97-.15-1.46,0-5.78,.21-11.56,.04-17.34,.09-.81,0-1.63,.09-2.42-.15-.26-.09-.42-.31-.58-.52-.24,0-.45,.03-.55,.28-.53,.46-1.18,.4-1.81,.4-5.74,.01-11.47,.01-17.21,0-.62,0-1.28,.07-1.81-.38-.12-.13-.24-.25-.36-.38C.77-.11,1.29,.06,1.77,.06c49.05,0,98.1,0,147.14,0,.51,0,1.08-.25,1.53,.22-.19,.3-.46,.49-.81,.57-2.11,.23-4.22,.1-6.33,.1-4.54,0-9.08,.08-13.63-.04-.16-.01-.32-.04-.48-.08-.39-.13-.78-.17-1.18-.02-.58,.13-1.16,.16-1.75,.16-6.09-.04-12.19,.11-18.28-.08-.41-.08-.83-.08-1.24,0-6.33,.17-12.67,.06-19,.06-.46,0-.91-.07-1.26-.41-.03,.06-.08,.09-.15,.08-.23-.28-.4,.04-.61,.07-.2,.09-.41,.15-.63,.19-6.37,.16-12.74,.07-19.11,.05-.23,0-.45-.05-.67-.12-.27-.09-.42-.3-.58-.51Z"/>
  <path class="cls-36" d="M.37,126.1c.5-.02,.99-.05,1.49-.05,41.84,0,83.69,0,125.53-.03,1.3,0,1.75,.21,1.74,1.66-.07,10.77-.04,21.53-.04,32.3,0,.45-.04,.9-.06,1.35-.2,.03-.34-.05-.42-.23-.26-.65-.16-1.34-.16-2.01,0-10.12,0-20.24-.01-30.36,0-.61,.18-1.29-.41-1.77-.59-.32-1.24-.22-1.86-.22-6.08,0-12.16,0-18.24,0-.26-.01-.52,.06-.77,.06-6.49-.13-12.97-.03-19.46-.05-.32,0-.63,.04-.93,.12-.71,.36-.46,1.02-.46,1.56-.02,4.54,0,9.08-.02,13.62,0,.62,.11,1.27-.28,1.83-.15,.14-.3,.14-.45,0-.45-.64-.34-1.39-.35-2.1-.01-4.39,0-8.78,0-13.17,0-1.78-.09-1.87-1.81-1.87-5.38,0-10.77,0-16.15,0-1.72,0-1.81,.09-1.81,1.87-.01,4.34,0,8.69,0,13.03,0,.77,.04,1.54-.14,2.3-.21,.61-.17,1.25-.17,1.88,0,4.61,0,9.23,0,13.84,0,.67,.13,1.37-.38,1.94h-.53c-.22-.49-.12-.99-.12-1.48,0-4.78,0-9.56,0-14.34,0-.63,.03-1.26-.18-1.88-.27-1.48-.13-2.97-.14-4.46-.02-3.66,0-7.31-.01-10.97,0-1.65-.1-1.74-1.78-1.75-6.09-.03-12.19,.05-18.28-.04-.26,0-.52,0-.78,0-5.64,.07-11.27,.01-16.91,.03-1.22,0-2.43,0-3.65,.06-.34,0-.68-.11-1.03-.08-6.73,.06-13.47-.03-20.2,.06-.25,0-.5-.05-.69-.24-.12-.13-.14-.28-.05-.44Z"/>
  <path class="cls-51" d="M64.32,143.95c.28,1.52,.1,3.05,.12,4.58,.03,3.79,0,7.58,.01,11.36,0,.58,.05,1.18-.26,1.71-.54,0-1.09,.03-1.63,.03-20.59,0-41.18,0-61.77,.05-1,0-.73-.52-.73-.98-.01-6.02,0-12.04,0-18.06,0-5.07,0-10.14,.02-15.21,0-.44-.3-1,.3-1.33,0,.08,0,.16,0,.24,.4,.65,.36,1.38,.36,2.1,0,10.43,0,20.86,.01,31.29,0,.35-.28,.79,.2,1.06,.77-.18,1.54-.14,2.31-.14,5.97,.05,11.94-.11,17.91,.08,.41,.1,.82,.09,1.24,0,5.86-.18,11.73-.04,17.59-.08,2.57-.02,2.57,0,2.57-2.61,0-3.93,0-7.85,0-11.78,0-.63-.04-1.26,.11-1.89,.05-.17,.14-.32,.26-.45,.16-.08,.34-.1,.51-.06,.15,.09,.27,.22,.34,.39,.23,.66,.17,1.34,.17,2.02,0,4.16,0,8.33,0,12.49,0,1.78,.1,1.88,1.81,1.88,5.38,0,10.77,0,16.15,0,1.72,0,1.81-.1,1.82-1.87,.01-4.16,0-8.33,0-12.49,0-.68-.07-1.36,.18-2.02,.08-.17,.21-.27,.38-.32Z"/>
  <path class="cls-77" d="M128.79,161.31c.08,0,.16,.01,.24,.02-.24,.51-.71,.29-1.08,.29-21.08,0-42.16,0-63.23,0,0-5.41,0-10.82,.02-16.22,0-.49-.12-.99,.15-1.46,.16,.08,.28,.2,.35,.37,.24,.66,.17,1.34,.18,2.01,0,4.21,0,8.41,0,12.62,0,1.58,.13,1.71,1.7,1.71,5.47,.01,10.94,.01,16.41,0,1.54,0,1.66-.13,1.66-1.75,.01-4.21,0-8.41,0-12.62,0-.67-.07-1.36,.19-2.01,.08-.17,.21-.27,.39-.31h.12c.23,.33,.13,.7,.13,1.05,0,5.21,0,10.42,0,15.62,0-3.65-.02-7.31,.01-10.96,.02-1.89-.17-3.79,.12-5.68,.18-.1,.32-.07,.43,.11,.34,.63,.27,1.32,.27,1.99,.01,4.25,0,8.51,0,12.76,0,1.68,.1,1.78,1.76,1.79,5.48,.01,10.95,0,16.43,0,1.75,0,1.86-.1,1.87-1.83,.01-4.3,0-8.6,0-12.9,0-.54-.02-1.09,.16-1.61,.07-.17,.18-.3,.33-.4,.09,.02,.17,.04,.26,.06,.05,.07,.1,.14,.16,.21,.29,.65,.21,1.33,.22,2.01,0,4.25,0,8.51,0,12.76,0,1.59,.12,1.7,1.7,1.71,5.43,.01,10.86,0,16.29,0,.72,0,1.45-.06,2.16,.14,.26,.09,.44,.28,.57,.51Z"/>
  <path class="cls-79" d="M149.97,.58c.08-.23,.29-.23,.48-.29,.03,.45,.08,.9,.08,1.35,0,10.85,0,21.7,0,32.55,0,.51,.25,1.1-.32,1.5-.02,.02-.08,.02-.1,0-.04-.02-.06-.07-.09-.1-.12-.14-.21-.29-.28-.45-.13-.35-.14-.71-.14-1.07,0-5.38-.05-10.76,.02-16.14-.07-5.32-.03-10.63-.02-15.95,0-.49,.02-1,.39-1.4Z"/>
  <path class="cls-40" d="M149.98,35.27l.02,.33c-7.06,0-14.12,0-21.18,0-.34-.51-.38-1.09-.38-1.69,0-10.6,0-21.21,.02-31.81,0-.54-.19-1.22,.56-1.5l.13-.02c.35,.41,.38,.91,.38,1.4,0,5.31,.05,10.63-.02,15.94,.07,5.01,.01,10.02,.03,15.03,0,1.91,.04,1.95,1.99,1.95,5.46,0,10.92,0,16.38,0,.71,0,1.46-.12,2.08,.38Z"/>
  <path class="cls-98" d="M129.01,.59c-.3,.35-.18,.78-.18,1.17,0,11.28,0,22.56,0,33.83-.09,.2-.18,.23-.28,0l-.03-.35c-.38-.4-.39-.91-.39-1.4,0-5.29-.05-10.59,.02-15.88-.07-5.5,0-10.99-.04-16.49,0-.41,.04-.81,.2-1.19,.25,.07,.62-.16,.7,.3Z"/>
  <path class="cls-22" d="M.31,.23c0,11.12,.02,22.23,.02,33.35,0,.68,.02,1.36,.03,2.03-.54,0-.26-.43-.26-.62-.02-11.35-.02-22.7-.01-34.04,0-.26-.08-.55,.22-.72Z"/>
  <path class="cls-84" d="M129.11,60.04c0-5.48,0-10.95-.04-16.43,0-.98,.33-1.21,1.25-1.2,6.15,.03,12.31,.03,18.46,0,.78,0,1.25,.07,1.24,1.07-.05,5.52-.04,11.04-.05,16.56-.52,.48-1.18,.41-1.8,.41-5.75,.01-11.5,.01-17.25,0-.63,0-1.28,.05-1.8-.42Z"/>
  <path class="cls-84" d="M.69,60.07c-.01-5.47,0-10.94-.05-16.41,0-.96,.33-1.25,1.26-1.24,6.15,.03,12.29,.03,18.44,0,.94,0,1.24,.27,1.24,1.22-.04,5.47-.03,10.94-.03,16.41-.48,.43-1.08,.42-1.67,.43-5.84,.01-11.67,.01-17.51,0-.58,0-1.19,.05-1.67-.4Z"/>
  <path class="cls-84" d="M22.15,60.08c-.01-5.47,0-10.94-.05-16.41,0-.94,.31-1.26,1.25-1.25,6.15,.03,12.29,.03,18.44,0,.93,0,1.25,.25,1.25,1.22-.05,5.47-.03,10.94-.04,16.41-.42,.44-.98,.43-1.52,.43-5.93,.02-11.86,.02-17.79,0-.54,0-1.1,.02-1.54-.39Z"/>
  <path class="cls-84" d="M64.97,60.03c0-5.42,.01-10.85-.03-16.27,0-.95,.17-1.36,1.25-1.35,6.1,.05,12.2,.04,18.3,0,.94,0,1.39,.2,1.38,1.27-.05,5.47-.04,10.94-.06,16.41-.54,.45-1.19,.37-1.82,.38-5.7,.01-11.4,.01-17.1,0-.67,0-1.37,.1-1.93-.44Z"/>
  <path class="cls-84" d="M107.64,60.04c0-5.47,0-10.94-.04-16.41,0-.96,.3-1.23,1.24-1.22,6.15,.04,12.3,.03,18.44,0,.92,0,1.28,.27,1.27,1.24-.05,5.47-.04,10.94-.05,16.41-.52,.48-1.17,.4-1.79,.4-5.76,.01-11.52,.01-17.27,0-.62,0-1.27,.07-1.79-.42Z"/>
  <path class="cls-84" d="M86.44,60.03c0-5.47,0-10.94-.03-16.41,0-.83,.16-1.21,1.11-1.21,6.24,.04,12.48,.02,18.71,.02,.31,0,.64-.04,.89,.22,.22,1.84,.1,3.69,.09,5.53-.02,3.96,.13,7.93-.08,11.89-.53,.45-1.19,.39-1.81,.4-5.7,.01-11.39,.01-17.09,0-.62,0-1.28,.07-1.79-.44Z"/>
  <path class="cls-84" d="M43.52,60.02c0-5.48,0-10.95-.04-16.43,0-.89,.26-1.18,1.15-1.18,6.15,.03,12.31,.04,18.46,0,1.06,0,1.14,.48,1.14,1.32-.03,5.43-.01,10.86-.02,16.29-.5,.51-1.16,.44-1.78,.44-5.72,.01-11.43,.01-17.15,0-.62,0-1.28,.07-1.77-.45Z"/>
  <path class="cls-7" d="M64.97,60.03c6.95,.02,13.9,.04,20.85,.06,0,5.33,0,10.67,.03,16,0,.85-.24,1.06-1.07,1.05-6.33-.03-12.65-.02-18.98-.01-.52,0-.98,.06-.97-.72,.09-5.46-.14-10.92,.13-16.38Z"/>
  <path class="cls-7" d="M22.15,60.08c6.95-.01,13.9-.03,20.85-.04v.02c.44,.48,.37,1.08,.37,1.66,0,4.58,0,9.17,0,13.75,0,.58,.08,1.19-.43,1.64-6.6,0-13.2,0-19.79,.04-.86,0-1.05-.25-1.04-1.07,.04-5.33,.04-10.67,.04-16Z"/>
  <path class="cls-7" d="M43.52,60.02c6.9,0,13.8,0,20.7,0,.29,.56,.12,1.15,.13,1.73,.02,4.75,0,9.5,.03,14.25,0,.86-.19,1.15-1.12,1.15-6.56-.05-13.12-.03-19.68-.04-.38-.36-.31-.83-.31-1.27,0-4.83,0-9.67,0-14.5,0-.45-.05-.91,.25-1.3v-.02Z"/>
  <path class="cls-7" d="M86.44,60.03c6.89,0,13.78-.01,20.67-.02,.11-.11,.18-.09,.23,.06h-.01c.45,.41,.41,.97,.41,1.51,0,4.68,.01,9.36,0,14.05,0,.53,.06,1.1-.47,1.47l-20.88-.03c-.08-5.68-.19-11.36,.06-17.03h0Z"/>
  <path class="cls-7" d="M.69,60.07c6.95,0,13.9-.02,20.85-.03,.02,5.42,.02,10.84,.09,16.26,.01,.97-.54,.83-1.12,.83-4.74,0-9.49,0-14.23,0-1.54,0-3.07-.03-4.61,.01-.72,.02-1.03-.12-1.03-.94,.05-5.38,.04-10.75,.05-16.13Z"/>
  <path class="cls-7" d="M129.11,60.04c6.95,0,13.9,0,20.85,.01,.01,5.38,0,10.76,.05,16.13,0,.8-.27,.95-1,.95-6.33-.03-12.65-.02-18.98,0-.6,0-1,0-.99-.82,.05-5.42,.05-10.84,.07-16.27Z"/>
  <path class="cls-7" d="M107.64,60.04c6.95,0,13.9,.01,20.85,.02,0,5.34-.01,10.68,.05,16.02,.01,1-.4,1.06-1.19,1.05-6.56-.02-13.13-.02-19.69-.02-.23-.22-.17-.5-.17-.76,0-5.22,0-10.45,0-15.67,0-.23,0-.45,.13-.65h0Z"/>
  <path class="cls-50" d="M43.52,60.04c-.03,5.69-.14,11.38,.05,17.07h-.63c.02-5.69,.03-11.37,.05-17.06h.53Z"/>
  <path class="cls-43" d="M107.34,60.07h-.12l-.1-.06c0-5.79,0-11.57,.01-17.36,.29,.23,.25,.56,.25,.87-.01,5.52-.02,11.03-.04,16.55Z"/>
  <path class="cls-84" d="M86.45,60.03c-.02,5.68-.04,11.36-.06,17.03-.33-.23-.21-.57-.21-.87,0-5.06,0-10.12,0-15.19,0-.34-.13-.74,.27-.98Z"/>
  <path class="cls-43" d="M107.63,60.04c.01,5.69,.03,11.39,.04,17.08l-.41-.03c.02-5.68,.04-11.35,.06-17.03l.31-.03Z"/>
  <path class="cls-57" d="M43.6,84.55c6.55,0,13.11,0,19.66-.03,.67,0,1.09,.06,1.09,.92,0,11.12,.03,22.24,.04,33.36,0,.08-.08,.16-.12,.23-.69-.53-.52-1.31-.52-2-.02-4.16,0-8.33-.01-12.49,0-1.9-.06-1.96-2-1.96-5.34,0-10.68,0-16.02,0-.76,0-1.55,.12-2.23-.4-.35-.41-.34-.92-.34-1.41-.01-4.9-.01-9.81,0-14.71,0-.53-.05-1.1,.44-1.49Z"/>
  <path class="cls-23" d="M.71,102.14c-.02-5.56-.02-11.12-.06-16.68,0-.69,.18-.95,.91-.95,6.37,.02,12.75,.02,19.12,0,.73,0,.92,.26,.91,.94-.04,5.56-.04,11.12-.06,16.68-.52,.46-1.17,.43-1.8,.43-5.75,0-11.49,.01-17.24,0-.62,0-1.28,.08-1.79-.43Z"/>
  <path class="cls-23" d="M64.96,102.13c-.02-5.56-.03-11.12-.09-16.67-.01-.99,.54-.93,1.21-.93,5.02,0,10.03,0,15.05,0,1.18,0,2.35,.05,3.52-.02,.85-.04,1.19,.17,1.19,1.11,0,10.94,.02,21.88,.04,32.81,0,.21-.08,.43-.13,.64-.72-.51-.54-1.29-.54-1.98-.02-4.2,0-8.41-.01-12.61,0-1.83-.08-1.9-1.91-1.9-5.42,0-10.85,0-16.27-.01-.71,0-1.46,.14-2.06-.43Z"/>
  <path class="cls-95" d="M129.12,102.14c-.02-5.56-.02-11.12-.06-16.69,0-.7,.2-.94,.92-.93,6.38,.02,12.75,.02,19.13,0,.73,0,.91,.24,.91,.94-.04,5.56-.04,11.13-.06,16.69-.51,.5-1.17,.43-1.79,.43-5.75,.01-11.5,.01-17.24,0-.63,0-1.28,.05-1.8-.44Z"/>
  <path class="cls-23" d="M22.18,102.14c-.02-5.55-.02-11.11-.07-16.66,0-.81,.31-.97,1.04-.97,6.59,.03,13.18,.03,19.78,.04,.38,.29,.33,.72,.33,1.12,0,5.15,0,10.29,0,15.44,0,.36,.02,.73-.22,1.04-.52,.46-1.17,.41-1.8,.42-5.76,.01-11.52,.01-17.28,0-.62,0-1.28,.07-1.78-.43Z"/>
  <path class="cls-23" d="M86.43,102.13c-.02-5.55-.02-11.11-.08-16.66-.01-.97,.5-.95,1.19-.95,6.5,0,13.01,0,19.51,0,.7,.27,.69,.89,.69,1.47,.02,4.97,.02,9.93,0,14.9,0,.45-.02,.91-.34,1.28-.58,.46-1.28,.4-1.95,.4-5.69,.01-11.39,0-17.08,0-.67,0-1.37,.05-1.93-.44Z"/>
  <path class="cls-23" d="M107.71,84.53c6.46,0,12.92,.04,19.38-.04,1.24-.01,1.48,.36,1.46,1.51-.08,5.38-.06,10.75-.08,16.13-.51,.51-1.17,.43-1.79,.43-5.74,.01-11.49,.01-17.23,0-.63,0-1.28,.05-1.81-.4-.02-.04-.06-.08-.06-.12-.17-5.77-.06-11.55-.05-17.32,0-.07,.11-.14,.17-.2Z"/>
  <path class="cls-7" d="M129.12,102.14c6.94,0,13.89,0,20.83,0,.02,5.42,.02,10.84,.06,16.26,0,.67-.24,.82-.86,.82-6.42-.02-12.83-.02-19.25,0-.63,0-.87-.16-.86-.83,.04-5.42,.05-10.84,.08-16.26Z"/>
  <path class="cls-7" d="M107.68,102.12c6.93,0,13.87,.01,20.8,.02,.02,5.38,0,10.76,.08,16.14,.01,1.01-.51,.93-1.17,.93-6.56-.01-13.12-.01-19.68-.01-.45-.35-.44-.86-.44-1.36-.01-4.78-.01-9.57,0-14.35,0-.4,0-.82,.24-1.18,.06-.07,.12-.13,.18-.2Z"/>
  <path class="cls-7" d="M.71,102.14c6.94,0,13.89,0,20.83,0,.02,5.42,.04,10.84,.08,16.25,0,.67-.23,.83-.87,.83-6.41-.02-12.83-.02-19.24,0-.62,0-.88-.15-.87-.82,.04-5.42,.05-10.84,.07-16.26Z"/>
  <path class="cls-7" d="M86.43,102.13c6.93,0,13.86,0,20.79,0,.2,.04,.29,.16,.27,.36,0,5.1,0,10.2,0,15.3,0,.5,.26,1.12-.44,1.42-6.43,0-12.85-.04-19.28,.03-1.25,.01-1.48-.37-1.46-1.51,.06-4.75,.02-9.5,.03-14.26,0-.45,.06-.9,.09-1.34Z"/>
  <path class="cls-7" d="M22.18,102.14c6.92,0,13.84-.02,20.77-.03,.07,.06,.13,.12,.2,.18,.29,.5,.23,1.05,.23,1.59,0,4.51,.01,9.02,0,13.54,0,.61,.13,1.28-.44,1.77-6.6,0-13.2,.01-19.79,.03-.58,0-1.04,.03-1.03-.81,.05-5.42,.06-10.84,.08-16.27Z"/>
  <path class="cls-7" d="M43.55,102.11c6.45,0,12.91,.04,19.36,0,1.07,0,1.35,.29,1.35,1.35-.04,5.19,0,10.38,.03,15.56-.3,.29-.68,.18-1.03,.18-6.55,0-13.1,0-19.65-.01-.32-.26-.32-.62-.32-.98,0-5.17-.03-10.33,.02-15.5,0-.14,.05-.26,.09-.39,.06-.07,.11-.14,.17-.2Z"/>
  <path class="cls-7" d="M64.96,102.13c6.5,0,12.99,.03,19.49-.01,.99,0,1.31,.24,1.3,1.27-.04,5.23,0,10.46,.02,15.69-.38,.23-.79,.13-1.19,.13-6.15,0-12.3-.02-18.45,.03-1,0-1.31-.22-1.3-1.26,.06-4.97,.02-9.95,.03-14.92,0-.31,.07-.62,.11-.93Z"/>
  <path class="cls-4" d="M42.95,102.12c0-5.85-.01-11.71-.02-17.56h.67c-.02,5.85-.03,11.7-.05,17.56l-.1,.05c-.14,.14-.28,.14-.43,.02l-.07-.06Z"/>
  <path class="cls-56" d="M43.02,102.18c.14,0,.29-.01,.43-.02,.01,5.14,.02,10.28,.04,15.42,0,.54,.07,1.08,.11,1.61h-.66c.02-5.09,.04-10.18,.06-15.27,0-.59,.02-1.17,.03-1.75Z"/>
  <path class="cls-12" d="M107.71,84.53c-.01,5.86-.02,11.73-.03,17.59l-.07,.04c-.09,.1-.18,.11-.28,.02l-.11-.05c.02-5.62,.04-11.24,.05-16.86,0-.25-.15-.5-.23-.76h.67Z"/>
  <path class="cls-67" d="M107.33,102.18c.09,0,.18-.01,.28-.02,0,5.14,.02,10.28,.03,15.42,0,.54,.04,1.08,.07,1.62l-.66,.02c.38-.48,.23-1.04,.23-1.57,.03-5.16,.04-10.31,.06-15.47Z"/>
  <path class="cls-74" d="M86.47,.55l20.63-.02c.89,.32,.62,1.1,.63,1.71,.03,5.23,.01,10.46,.02,15.69-.01,5.15,0,10.31-.01,15.46,0,.66,.17,1.38-.46,1.9l-.11-.05c-.66-.55-.5-1.32-.51-2.02-.02-4.3,0-8.59-.01-12.89,0-1.92-.04-1.96-1.98-1.96-5.38,0-10.76,0-16.14,0-.71,0-1.46,.1-2.08-.4,0-5.8,.01-11.6,.02-17.4Z"/>
  <path class="cls-74" d="M.69,.6c6.94,0,13.89-.02,20.83-.02,0,5.8,0,11.59,0,17.39-.53,.46-1.18,.4-1.81,.4-5.73,.01-11.46,.01-17.2,0-.62,0-1.28,.07-1.81-.39L.69,.6Z"/>
  <path class="cls-7" d="M64.4,18.1c-.02,5.2-.09,10.4-.04,15.6,.01,1.31-.36,1.65-1.66,1.64-6.38-.07-12.75-.04-19.13-.05-.45-.42-.42-.97-.42-1.51,0-4.81-.01-9.62,0-14.44,0-.49-.02-1,.32-1.42,.44-.4,.99-.41,1.53-.41,6-.02,12-.02,18.01,0,.36,0,.72,.03,1.06,.18,.17,.09,.28,.22,.33,.41Z"/>
  <path class="cls-7" d="M128.48,17.96c.01,5.76,.03,11.52,.04,17.29-6.94,.01-13.89,.02-20.83,.04-.24-.21-.18-.49-.18-.76,0-5.31,0-10.63,0-15.94,0-.23,0-.45,.13-.65,.51-.5,1.16-.43,1.79-.43,5.76-.01,11.53-.01,17.29,0,.62,0,1.28-.06,1.77,.46Z"/>
  <path class="cls-33" d="M.72,17.97c6.94,0,13.87,0,20.81-.01,.02,5.52,.03,11.04,.08,16.55,0,.71-.3,.8-.89,.8-6.38-.02-12.76-.02-19.14,0-.71,0-.92-.21-.92-.92,.04-5.47,.04-10.95,.06-16.42Z"/>
  <path class="cls-7" d="M86.45,17.96c6.45,0,12.91,.03,19.36-.04,1.19-.01,1.4,.4,1.39,1.47-.05,5.28-.02,10.56-.02,15.84-6.69,.02-13.38,.04-20.07,.08-.63,0-.75-.26-.74-.81,.04-5.51,.06-11.03,.09-16.54Z"/>
  <path class="cls-7" d="M42.94,35.28c-6.59,0-13.18,0-19.76,.05-1,0-1.06-.41-1.05-1.2,.02-5.37,0-10.74,0-16.11,.11-.15,.25-.26,.41-.34,.34-.14,.7-.17,1.06-.17,5.96-.02,11.92-.02,17.88,0,.54,0,1.09,0,1.54,.39,.32,.39,.24,.85,.24,1.29,0,4.9,0,9.79,0,14.69,0,.48,.11,1-.31,1.4Z"/>
  <path class="cls-7" d="M85.78,35.28l-20.78,.04c-.04-.08-.12-.16-.12-.24,.01-5.72-.12-11.44,.06-17.17,.39-.38,.9-.4,1.4-.4,6.09-.02,12.19-.03,18.28,0,.32,0,.63,.03,.93,.14,.17,.06,.32,.17,.43,.31,.12,5.59,.02,11.18,.05,16.77,0,.22,.03,.46-.26,.55Z"/>
  <path class="cls-26" d="M85.78,35.28c.01-5.25,.02-10.49,.04-15.74,0-.5,.03-.99,.05-1.49-.28-.44-.34-.92-.34-1.42,0-4.96,0-9.93,0-14.89,0-.51,.09-.99,.38-1.41,.23-.01,.46-.03,.41,.31-.27,.47-.14,.98-.14,1.46,0,10.53,0,21.07-.02,31.6,0,.53,.33,1.2-.38,1.58Z"/>
  <path class="cls-85" d="M64.99,17.95c-.24,4.13-.06,8.26-.09,12.39-.01,1.66-.16,3.32,.11,4.97-.47-.39-.28-.92-.28-1.39,0-11.2,0-22.4,0-33.61,.09,.08,.19,.16,.28,.24,.47,.52,.42,1.17,.42,1.8,.01,4.6,.01,9.2,0,13.8,0,.63,.02,1.27-.44,1.79Z"/>
  <path class="cls-50" d="M42.94,35.28V17.97l.12-.14c.12-.04,.24-.04,.36,0l.13,.13c-.11,5.77-.15,11.55,.02,17.32h-.63Z"/>
  <path class="cls-85" d="M64.4,18.1c-.07-.05-.13-.1-.19-.16-.49-.51-.47-1.15-.47-1.78-.01-4.6,0-9.2,0-13.81,0-.63-.03-1.28,.43-1.8,.09-.08,.18-.15,.27-.23-.02,5.93-.03,11.85-.05,17.78Z"/>
  <path class="cls-58" d="M22.31,17.91c-.06,.04-.12,.08-.18,.11-.02-5.91-.04-11.82-.06-17.72,.09,.09,.19,.17,.28,.26,.43,.48,.43,1.07,.43,1.66,.01,4.69,.01,9.37,0,14.06,0,.59,0,1.18-.48,1.64Z"/>
  <path class="cls-67" d="M107.69,17.96c0,5.78,0,11.55,0,17.33-.14,0-.27,0-.41,0,.02-5.17,.05-10.33,.08-15.5,0-.63,0-1.26,.01-1.89l.18-.06,.15,.12Z"/>
  <path class="cls-74" d="M129.13,17.96c0-5.8,0-11.6,0-17.4,6.94,0,13.89,.01,20.83,.02l-.02,17.38c-.52,.48-1.18,.4-1.8,.4-5.74,.01-11.48,.01-17.21,0-.62,0-1.28,.07-1.8-.4Z"/>
  <path class="cls-74" d="M128.48,17.96c-6.93,0-13.86,0-20.78,0l-.11-.05c-.16-5.7-.05-11.41-.05-17.11,0-.08,.08-.16,.13-.23,6.22,0,12.45-.02,18.67-.01,.68,0,1.35-.02,1.99-.26,.07,.34,.19,.69,.19,1.03,0,5.55-.02,11.09-.03,16.64Z"/>
  <path class="cls-74" d="M22.31,17.91c.02-5.78,.03-11.57,.05-17.35,6.79,0,13.58-.01,20.37-.02,.63,.08,.62,.6,.62,1.03,.04,5.15,.05,10.31,0,15.46,0,.32-.09,.63-.31,.87l-.09,.07c-6.88-.02-13.76-.04-20.64-.06Z"/>
  <path class="cls-74" d="M64.18,.55c.01,5.79,.02,11.59,.04,17.38-6.89,0-13.77,.02-20.66,.03-.04-.03-.09-.05-.13-.07-.19-.38-.15-.79-.15-1.19,0-4.95,0-9.9,0-14.84,0-.44-.1-.91,.29-1.27l20.62-.03Z"/>
  <path class="cls-74" d="M64.99,17.95c0-5.8,0-11.59,.01-17.39,6.88,0,13.76-.01,20.64-.02,.13,.2,.13,.43,.12,.65-.04,5.58,.09,11.16-.07,16.74-6.9,0-13.81,.01-20.71,.02Z"/>
  <path class="cls-58" d="M43.56,.58c-.01,5.23-.02,10.46-.04,15.7,0,.54-.06,1.07-.09,1.61-.13,0-.26,0-.38,0-.02-5.32-.03-10.64-.07-15.96,0-.47,.22-1-.24-1.4,.3-.36,.58-.33,.83,.04Z"/>
  <path class="cls-86" d="M107.66,.56c-.03,5.78-.05,11.56-.08,17.34h-.21c-.03-5.27-.05-10.54-.09-15.8,0-.52,.17-1.08-.17-1.57,.2-.27,.38-.25,.55,.03Z"/>
  <path class="cls-85" d="M85.7,17.93c.02-5.8,.13-11.59-.06-17.39,.09-.07,.18-.14,.27-.21-.01,5.91-.03,11.82-.04,17.73-.06-.04-.12-.08-.17-.12Z"/>
  <path class="cls-59" d="M.67,126.59c.49-.34,1.05-.22,1.58-.22,6.42-.02,12.83-.03,19.25-.04,.44,.42,.42,.97,.42,1.51,0,4.91,.01,9.82,0,14.73,0,.49,.01,1-.33,1.42-.57,.48-1.27,.41-1.94,.41-5.74,.01-11.47,.01-17.21,0-.63,0-1.28,.06-1.82-.37-.22-.43-.12-.89-.12-1.33,0-4.93,0-9.87,0-14.8,0-.44-.16-.91,.16-1.31Z"/>
  <path class="cls-59" d="M22.14,126.61c.43-.34,.94-.24,1.43-.24,6.44,0,12.88,0,19.33,0,.53,.37,.47,.95,.47,1.48,.01,4.88,.01,9.76,0,14.64,0,.49,.04,1-.33,1.41l-.09,.09c-.52,.48-1.17,.41-1.79,.41-5.77,.01-11.53,.01-17.3,0-.63,0-1.27,.05-1.82-.36-.32-.44-.22-.95-.22-1.44,0-4.83-.01-9.65,0-14.48,0-.52-.17-1.1,.32-1.52Z"/>
  <path class="cls-59" d="M86.52,126.33c6.41,.01,12.81,.02,19.22,.04,.53,0,1.09-.14,1.56,.26,.52,.38,.44,.96,.44,1.48,.02,4.76,.01,9.53,0,14.29,0,.53,.05,1.09-.41,1.51-.06,.02-.11,.05-.16,.08-.53,.47-1.18,.4-1.8,.4-5.69,.01-11.38,.01-17.07,0-.62,0-1.28,.07-1.8-.41-.04-.03-.08-.06-.13-.07-.2-.33-.18-.69-.18-1.05,0-5.09,0-10.19,0-15.28,0-.44-.07-.92,.33-1.26Z"/>
  <path class="cls-59" d="M107.72,126.34c6.91,0,13.82,0,20.74-.01,.32,.17,.22,.47,.22,.72,0,5.47,0,10.94,0,16.42,0,.18-.02,.36-.09,.53-.52,.47-1.18,.4-1.8,.41-5.77,.01-11.54,.01-17.3,0-.62,0-1.28,.07-1.79-.41l-.1-.08c-.22-2.06-.07-4.13-.09-6.19-.03-3.37-.02-6.74,0-10.11,0-.42-.2-.9,.2-1.27Z"/>
  <path class="cls-59" d="M43.62,126.37c6.42,0,12.83,.02,19.25-.02,1.05,0,1.39,.26,1.38,1.35-.06,4.88-.03,9.76-.02,14.64,0,.54,.06,1.08,.09,1.62-.05,0-.1,0-.15,.03-.52,.46-1.17,.42-1.8,.42-5.68,.01-11.35,.01-17.03,0-.63,0-1.27,.04-1.8-.42-.04-.03-.07-.06-.11-.09-.22-.42-.16-.88-.16-1.32,0-4.9,0-9.8,0-14.7,0-.52-.17-1.1,.35-1.51Z"/>
  <path class="cls-59" d="M64.89,143.94c.02-5.33,.09-10.66,.04-15.99-.01-1.33,.39-1.63,1.67-1.62,5.92,.07,11.84,.06,17.75,0,1.06,0,1.39,.27,1.38,1.36-.06,4.88-.03,9.76-.02,14.64,0,.54,.05,1.08,.08,1.62-.05,0-.1,0-.14,.02-.53,.45-1.17,.42-1.8,.42-5.68,0-11.35,.01-17.03,0-.62,0-1.28,.06-1.79-.42-.04-.02-.09-.04-.14-.05Z"/>
  <path class="cls-82" d="M22.14,126.61l.05,17.35c.36,.57,.32,1.21,.32,1.84,0,4.43,0,8.85,0,13.28,0,.67,.1,1.37-.38,1.95-.14,.34-.34,.35-.57,.09-.02-.08-.04-.16-.05-.25-.14-5.55-.09-11.11-.03-16.67,.02-.08,.03-.17,.05-.25,0-5.87-.02-11.75-.03-17.62,.25,0,.5,.03,.65,.28Z"/>
  <path class="cls-65" d="M86.52,126.33c-.23,3.24-.05,6.49-.1,9.74-.04,2.62-.04,5.23-.06,7.85-.31,.45-.17,.97-.17,1.45-.01,4.84,0,9.68,0,14.52v1.28h-.28c0-5.74,0-11.48,0-17.22,0-5.47,0-10.93,.01-16.4,0-.47-.3-1.17,.6-1.23Z"/>
  <path class="cls-39" d="M43.62,126.37c-.03,3.24-.07,6.47-.1,9.71-.03,2.61-.06,5.21-.09,7.82-.13,0-.26,0-.4,0-.02-5.26-.04-10.52-.06-15.79,0-.58-.05-1.17-.08-1.75,.24,0,.48,0,.72,0Z"/>
  <path class="cls-91" d="M.67,126.59l.05,17.38c.31,.43,.34,.93,.34,1.43,.01,4.75,.02,9.5,0,14.25,0,.5-.01,1-.38,1.4-.8-.03-.32-.64-.32-.9-.04-5.61-.04-11.23-.03-16.84,.01-5.66,.04-11.31,.06-16.97l.29,.25Z"/>
  <path class="cls-19" d="M128.48,143.96c0-5.88-.01-11.76-.02-17.63,.51,.22,.35,.68,.35,1.06,0,11.31-.01,22.61-.02,33.92l-.27-.26c-.4-.44-.4-.99-.4-1.53-.02-4.67-.01-9.34,0-14.02,0-.54,0-1.08,.36-1.55Z"/>
  <path class="cls-53" d="M107.72,126.34c-.03,4.78-.05,9.55-.08,14.33,0,1.08-.02,2.16-.03,3.24-.09,0-.18,0-.27,0-.01-5.76-.02-11.52-.04-17.29,.14-.1,.28-.19,.42-.29Z"/>
  <path class="cls-7" d="M22.13,161.03c.02-5.69,.04-11.38,.06-17.06,6.92,0,13.84,.02,20.76,.03,.01,5.43,.02,10.85,.05,16.28,0,.59-.11,.91-.81,.9-6.56-.03-13.12-.03-19.67-.05-.13,0-.26-.07-.39-.1Z"/>
  <path class="cls-7" d="M.66,161.04c.02-5.69,.03-11.39,.05-17.08,6.94,0,13.87,0,20.81-.01l.05,.04c.22,3.28,.08,6.56,.08,9.83,0,2.42,.14,4.85-.09,7.27h0c-6.79,.03-13.58,.04-20.37,.05-.18,0-.35-.07-.53-.11Z"/>
  <path class="cls-7" d="M43.55,143.99c6.87,0,13.75,0,20.62,0,.02,5.43,.03,10.86,.08,16.28,0,.74-.29,.91-.96,.91-6.29-.02-12.58-.02-18.87,0-.67,0-.97-.17-.96-.91,.05-5.43,.06-10.86,.08-16.28Z"/>
  <path class="cls-7" d="M86.49,143.99c6.89,0,13.79,0,20.68,.01,.03,5.46,.04,10.92,.09,16.39,0,.98-.67,.77-1.22,.78-5.42,0-10.84,0-16.26,0-.86,0-1.72-.02-2.57,0-.59,.02-.78-.22-.78-.79,.03-5.46,.05-10.93,.06-16.39Z"/>
  <path class="cls-7" d="M128.48,143.96c.01,5.7,.03,11.39,.04,17.09-1.89,.26-3.79,.09-5.69,.11-4.7,.03-9.41,0-14.11,.02-.65,0-1.09,0-1.08-.9,.05-5.43,.05-10.86,.06-16.28,6.93,0,13.85-.02,20.78-.03Z"/>
  <path class="cls-7" d="M65.03,143.99c6.87,0,13.75,0,20.62,0,.03,5.47,.05,10.95,.09,16.42,0,.6-.26,.77-.82,.77-6.38-.01-12.76-.01-19.14,0-.69,0-.82-.3-.82-.9,.04-5.43,.05-10.86,.07-16.29Z"/>
  <path class="cls-7" d="M129.13,17.96c6.94,0,13.88,0,20.82,0,0,5.77,.02,11.54,.03,17.31-6.69,.01-13.37,.01-20.06,.04-.62,0-.87-.14-.86-.82,.04-5.51,.05-11.02,.07-16.53Z"/>
  <path class="cls-66" d="M138.7,53.24c.39-.93,.73-1.88,1.18-2.78,.5-.97,.38-1.43-.82-1.3-.3,.03-.64,.08-1-.27,.91-.48,1.83-.24,2.71-.2,.26,.01,.34,.33,.26,.54-.54,1.45-1.04,2.92-1.92,4.2l-.42-.19Z"/>
  <path class="cls-52" d="M11.26,48.62c.72,.13,1.07,.58,1.04,1.31-.04,.73-.41,1.17-1.18,1.16-.85,0-1.03-.54-1.01-1.26,.03-.74,.38-1.16,1.15-1.22Z"/>
  <path class="cls-24" d="M31.46,50.2c-.34-.82,.07-1.25,.64-1.48,.56-.23,1.16-.18,1.64,.29,.49,.49,.47,1.11,.18,1.63-.36,.66-.88,1.24-1.39,1.93,.4,.29,.86,.11,1.27,.18,.24,.04,.48,.12,.46,.39-.02,.26-.27,.33-.5,.34-.09,0-.18,.02-.27,0-.69-.1-1.65,.37-2.02-.27-.39-.67,.67-1.02,.95-1.61,.06-.12,.16-.22,.24-.32,.44-.57,1.37-1.14,.49-1.9-.79-.68-1.03,.51-1.68,.82Z"/>
  <path class="cls-17" d="M76.2,53.42c-.24-1.15-1.02-1-1.73-.99-.64,.02-.83-.19-.45-.79,.5-.8,.95-1.63,1.44-2.44,.16-.26,.34-.59,.72-.48,.34,.1,.21,.44,.27,.68,.2,.89-.51,1.98,.59,2.72,.04,.03-.76,.6-.84,1.29Z"/>
  <path class="cls-24" d="M119.34,48.69c-.36,.66-1.09,.49-1.23,1.2,1.25,.18,1.95,.86,1.76,2.23-.09,.66-.47,1.09-1.05,1.3-.66,.23-1.14-.15-1.49-.66-.7-1.02-.49-2.07-.01-3.09,.36-.78,.99-1.1,2.02-.98Z"/>
  <path class="cls-83" d="M98.32,48.75c-.12,.4-.32,.39-.48,.44-.43,.12-1.15-.3-1.25,.4-.1,.68,.68,.36,1.03,.57,.85,.52,.91,1.3,.78,2.13-.11,.7-.6,1.13-1.29,1.17-.72,.04-1.27-.28-1.43-1.04,.47-.4,.61,.05,.86,.17,.52,.26,1.02,.23,1.22-.36,.2-.6,.09-1.18-.63-1.41-.53-.17-1.5,.53-1.32-.96,.17-1.38,.92-1.29,1.83-1.22,.21,.01,.42,.07,.68,.12Z"/>
  <path class="cls-41" d="M53.51,50.86c.64-.47,1.8-.33,1.29-1.26-.65-1.19-1.2,.31-1.93,.3-.08-1.09,.65-1.27,1.43-1.26,.8,0,1.36,.5,1.18,1.29-.16,.71,0,1.25,.17,1.9,.2,.74-.31,1.27-1.01,1.54-.67,.26-1.24,.01-1.7-.48-.1-.11-.14-.34-.11-.49,.05-.19,.26-.27,.42-.13,.52,.43,1.17,.85,1.56,.05,.46-.94-.56-1.1-1.31-1.45Z"/>
  <path class="cls-69" d="M74.68,68.22c1.04-.65,1.29-1.83,2.48-1.98-.17,1.02-1.64,1.31-1.29,2.32,.29,.81,1,1.48,1.57,2.26-1.08,.3-1.12-.73-1.6-1.13-.26-.22-.34-.74-.77-.66-.44,.09-.35,.55-.4,.9-.05,.35,.25,.98-.39,.93-.58-.05-.28-.66-.29-1.01-.04-.99-.02-1.99-.01-2.98,0-.25-.07-.6,.33-.6,.37,0,.37,.31,.38,.59,0,.39,0,.79,0,1.36Z"/>
  <path class="cls-75" d="M33.26,68.55c0,.58,0,1.16,0,1.75,0,.25,.07,.58-.32,.61-.37,.03-.42-.26-.42-.54,0-1.21,0-2.42,0-3.63,0-.24,.07-.47,.34-.49,.4-.03,.39,.28,.39,.55,0,.58,0,1.16,0,1.75Z"/>
  <path class="cls-78" d="M52.75,69.55c.7,.38,1.04,1.18,1.77,.72,.61-.39,.37-1.05,.39-1.61,.03-.63,0-1.26,0-1.88,0-.21-.02-.48,.29-.5,.32-.02,.33,.24,.33,.46,0,1.03,.06,2.07-.04,3.09-.07,.79-.68,1.12-1.45,1.09-.71-.03-1.31-.22-1.3-1.37Z"/>
  <path class="cls-93" d="M98.52,70.8c-.81,.26-1.56,.09-2.29,.14-.4,.02-.55-.18-.54-.57,.01-1.17,0-2.35,0-3.52,0-.26-.04-.6,.36-.57,.36,.03,.35,.35,.35,.62,0,.72,.07,1.45-.01,2.17-.11,1.03,.21,1.51,1.3,1.33,.24-.04,.55-.1,.82,.42Z"/>
  <path class="cls-76" d="M12.87,68.67c0,.14,.03,.28,0,.41-.15,.6,.41,1.57-.37,1.72-.43,.08-.15-.98-.24-1.52-.17-.98-.92-.41-1.4-.51-.44-.1-.86-.09-.88,.63-.02,.5,.44,1.45-.37,1.43-.61-.02-.23-.98-.27-1.51-.07-.76-.03-1.54,0-2.31,0-.27-.16-.74,.34-.71,.45,.03,.37,.48,.33,.75-.16,.99,.29,1.14,1.19,1.18,1.11,.05,1.15-.5,1.08-1.3-.02-.23-.11-.61,.29-.62,.4,0,.31,.36,.31,.61,.01,.59,0,1.18,0,1.76Z"/>
  <path class="cls-40" d="M138.34,67.97c0,.81,0,1.62,0,2.43,0,.22,0,.47-.32,.48-.31,.01-.35-.22-.35-.45,0-1.22,0-2.43,0-3.65,0-.23,.03-.46,.32-.51,.26-.05,.43,.12,.55,.31,.59,.9,1.17,1.8,2.03,2.7,0-.81,0-1.62,0-2.44,0-.26-.02-.6,.38-.55,.28,.03,.27,.32,.27,.54,0,1.13,0,2.25,0,3.38,0,.25,.1,.57-.26,.68-.32,.09-.5-.13-.65-.36-.57-.89-1.14-1.78-1.71-2.68l-.24,.11Z"/>
  <path class="cls-44" d="M116.58,68.18c0,.68,0,1.35,0,2.03,0,.25,.1,.61-.29,.64-.42,.03-.33-.34-.33-.58-.01-1.13,0-2.26,0-3.38,0-.26-.03-.56,.34-.62,.39-.06,.55,.16,.68,.49,.36,.95,.75,1.89,1.27,3.19,.47-1.21,.8-2.11,1.16-3,.13-.31,.19-.74,.69-.69,.58,.05,.4,.51,.4,.83,.02,1.08,0,2.17,0,3.25,0,.21,.04,.5-.25,.53-.41,.04-.36-.31-.36-.56,0-.77,0-1.53-.19-2.35-.28,.68-.54,1.37-.84,2.04-.15,.34-.11,.91-.65,.89-.45-.02-.41-.53-.55-.83-.29-.64-.55-1.29-.82-1.94l-.26,.08Z"/>
  <path class="cls-1" d="M52.97,92.05c0-1.26,.79-1.42,1.62-1.3,.83,.11,1.35,.72,.98,1.54-.24,.54-.17,.84,.07,1.32,.35,.72,.07,1.37-.64,1.69-.7,.32-1.42,.25-1.96-.41-.12-.15-.33-.36-.08-.58,.15-.14,.36-.1,.48,.04,.54,.63,1.23,.86,1.58,0,.4-.99-.59-1.08-1.32-1.25,.3-.68,1.94-.39,1.14-1.53-.64-.91-1.17,.24-1.86,.49Z"/>
  <path class="cls-34" d="M10.07,91.81c.79-.76,1.34-.88,2.05-1.03,0,1.39,0,2.73,0,4.06,0,.2,.02,.48-.3,.49-.32,0-.31-.27-.31-.48-.01-.67-.08-1.36,0-2.02,.12-.88-.15-1.29-1.44-1.02Z"/>
  <path class="cls-61" d="M77.22,94.31c-.57,.14-.44,.88-.87,1.03-.45,.16-.31-.43-.49-.63-.28-.32-.68-.19-1.02-.17-1.07,.07-1.03-.36-.57-1.09,.49-.76,.93-1.55,1.4-2.33,.15-.24,.34-.43,.66-.37,.38,.08,.27,.4,.31,.65,.14,.96-.39,2.04,.58,2.91Z"/>
  <path class="cls-1" d="M138.82,95.29c.55-1.29,1.1-2.58,1.65-3.87-.81-.33-1.62,.1-2.49-.44,1.17-.48,2.2-.15,3.41-.29-.7,1.77-1.27,3.35-2.11,4.81l-.47-.21Z"/>
  <path class="cls-35" d="M32.52,94.72c.66,.3,1.36-.11,2.05,.51-.99,.38-1.87,.22-2.71,.18-.62-.03-.4-.45-.15-.75,.52-.63,1.07-1.22,1.58-1.85,.34-.42,.47-.95,.02-1.34-.47-.4-.92-.18-1.22,.32-.13,.22-.25,.57-.58,.33-.29-.21-.09-.51,.05-.72,.5-.77,1.23-.9,2.01-.53,.82,.39,.91,1.1,.46,1.82-.42,.68-.95,1.29-1.5,2.02Z"/>
  <path class="cls-90" d="M98.51,90.91c-.38,.55-.77,.35-1.11,.4-.34,.04-.78-.1-.82,.45-.05,.69,.48,.34,.76,.39,.95,.17,1.24,.84,1.25,1.67,0,.77-.23,1.47-1.13,1.6-.82,.12-1.5-.09-1.71-1.02,.28-.24,.47-.15,.62,.05,.32,.42,.73,.55,1.18,.28,.46-.28,.41-.78,.32-1.22-.1-.55-.51-.75-1.01-.65-.55,.11-1.07,.2-.91-.6,.11-.59-.36-1.61,.91-1.53,.51,.03,1.05-.11,1.65,.19Z"/>
  <path class="cls-11" d="M119.34,91.07c-.38,.36-1.21,.29-1.34,1.02,1.67,.13,2.43,1.14,1.87,2.48-.36,.85-1.45,1.2-2.12,.6-.85-.76-.74-1.79-.55-2.77,.17-.91,.71-1.54,1.7-1.66,.16-.02,.36-.02,.44,.33Z"/>
  <path class="cls-48" d="M137.67,108.59c1.35-.35,2.49-.36,3.64-.22-.03,.16-.04,.32-.05,.32-1.27,.01-1.47,.74-1.33,1.82,.08,.62,.02,1.26,.01,1.89,0,.26,.03,.59-.35,.6-.38,.01-.38-.3-.38-.57,0-.54,.01-1.08,0-1.62-.03-.98,.53-2.33-1.53-2.22Z"/>
  <path class="cls-71" d="M119.64,109.7c-.65,.13-.58-.44-.85-.63-.37-.26-.76-.29-1.15-.12-.26,.11-.45,.34-.38,.64,.08,.39,.39,.58,.76,.69,.17,.05,.34,.13,.51,.18,.71,.2,1.27,.58,1.23,1.39-.03,.68-.51,1.04-1.14,1.15-.81,.14-1.52-.08-2.02-.78-.12-.17-.27-.41-.02-.6,.25-.18,.43-.02,.53,.19,.19,.4,.45,.66,.92,.66,.42,0,.86,.02,1.01-.48,.14-.48-.15-.76-.59-.91-.3-.1-.61-.18-.89-.32-.65-.31-1.22-.75-.93-1.57,.29-.82,1.02-.98,1.79-.87,.78,.11,1.26,.52,1.22,1.38Z"/>
  <path class="cls-68" d="M10.01,110.07c0,.78,0,1.56,0,2.34,0,.26,.02,.59-.37,.57-.4-.02-.31-.37-.31-.62-.01-1.13,0-2.26,0-3.38,0-.25-.09-.58,.3-.64,.32-.05,.49,.16,.64,.4,.58,.91,1.16,1.82,2,2.71,0-.72-.02-1.44,.01-2.16,.02-.32-.22-.86,.26-.9,.55-.04,.32,.53,.33,.83,.03,.99,.03,1.98,0,2.98,0,.28,.18,.69-.28,.78-.38,.08-.53-.27-.7-.53-.53-.81-1.06-1.62-1.59-2.43l-.29,.05Z"/>
  <path class="cls-8" d="M10.04,107.49c.13-.42,.4-.58,.82-.47,.24,.07,.38,.43,.7,.29,.22-.09,.47-.61,.61,0,.07,.31-.22,.59-.57,.63-.44,.05-.79-.65-1.32-.13-.13,.13-.26-.13-.23-.33Z"/>
  <path class="cls-70" d="M98.39,113.01c-.83,0-.82-.74-1.1-1.17-.24-.38-.38-.84-.97-.75-.66,.1-.3,.63-.41,.96-.1,.33,.27,.96-.41,.92-.51-.03-.28-.58-.29-.9-.03-.72-.07-1.45,0-2.17,.05-.53-.41-1.37,.36-1.53,.83-.17,1.85-.38,2.53,.47,.5,.62,.36,1.3-.21,1.82-.38,.35-.15,.62-.01,.95,.18,.44,.56,.8,.51,1.4Z"/>
  <path class="cls-71" d="M34.59,110.64c0,1.51-.63,2.35-1.79,2.38-1.2,.03-1.95-.9-1.92-2.41,.02-1.46,.72-2.32,1.88-2.3,1.19,.01,1.82,.82,1.83,2.34Z"/>
  <path class="cls-70" d="M53.71,108.3c1.14-.05,2.07,.15,2.11,1.42,.04,1.21-.75,1.68-1.85,1.6-.89-.07-.76,.51-.76,1.04,0,.26,.05,.6-.32,.63-.54,.04-.36-.41-.37-.68-.02-.9,.05-1.81-.03-2.7-.09-1.04,.2-1.56,1.22-1.3Z"/>
  <path class="cls-46" d="M77.47,113.62c-.91-.35-1.58-.57-2.32-.7-1.06-.19-1.33-1.17-1.36-2.09-.03-.95,.1-1.93,1.15-2.4,.94-.41,1.95,0,2.35,.97,.32,.78,.35,1.61,.04,2.38-.24,.61-.86,1.15,.13,1.83Z"/>
  <path class="cls-28" d="M98.5,6.79c-.5,.45-.93,.29-1.32,.32-.34,.02-.63,.07-.64,.51-.01,.49,.33,.44,.65,.45,.82,.03,1.24,.48,1.29,1.27,.05,.74,.05,1.46-.76,1.86-.86,.42-1.59,.04-1.95-1.04,.33-.22,.47,.05,.64,.25,.3,.35,.66,.49,1.07,.2,.48-.35,.46-.86,.32-1.35-.12-.45-.48-.68-.94-.56-.62,.16-1.13,.23-.95-.67,.12-.6-.34-1.61,.93-1.5,.5,.04,1.05-.14,1.65,.26Z"/>
  <path class="cls-9" d="M10.19,7.43c.64-.52,1.18-.68,1.75-.79,.25,1.53,.2,3.69-.14,4.75-.63-.87-.27-1.77-.32-2.6-.07-1.19-.02-1.19-1.28-1.36Z"/>
  <path class="cls-80" d="M52.38,26.83c-.02-1.25,.11-2.15,1.13-2.55,.72-.28,1.43-.21,1.99,.4,.2,.22,.51,.55,.23,.81-.39,.35-.46-.17-.66-.37-.66-.65-1.54-.56-1.87,.24-.3,.73-.29,1.53,0,2.26,.33,.85,1.26,.92,1.94,.17,.18-.21,.28-.53,.58-.3,.29,.21,.04,.5-.1,.7-.4,.59-1,.73-1.67,.65-.7-.08-1.18-.46-1.41-1.11-.13-.38-.14-.8-.15-.9Z"/>
  <path class="cls-26" d="M120.04,24.38c-.39,.99-2.28-.65-2.18,1.27,.07,1.44,1.44,.16,1.79,.94-.04,.42-.38,.33-.6,.3-.93-.14-1.34,.19-1.18,1.16,.04,.28,.12,.72-.34,.75-.51,.03-.35-.43-.36-.7-.02-.63,0-1.27,0-1.9,0-2.28,.45-2.57,2.88-1.82Z"/>
  <path class="cls-26" d="M11.38,27.69c-.56-.09-.99,.02-1.15,.63-.07,.26-.17,.58-.52,.46-.43-.14-.13-.45-.06-.65,.4-1.15,.83-2.28,1.25-3.42,.09-.26,.15-.53,.49-.55,.37-.02,.42,.28,.51,.52,.44,1.18,.88,2.36,1.31,3.54,.06,.18,.29,.42-.03,.55-.25,.1-.46-.07-.51-.3-.16-.73-.62-.93-1.27-.79Z"/>
  <path class="cls-6" d="M98.27,24.26c-.51,.61-1.03,.4-1.48,.43-.43,.04-.89-.13-.91,.62-.02,.73,.32,.79,.89,.78,.35,0,.81-.2,1.05,.28-.4,.82-1.95-.58-1.93,1.07,.02,1.82,1.73,.2,2.28,1.38-1.01,.02-2.57,.35-2.72-.14-.4-1.32-.55-2.93-.11-4.2,.27-.81,1.78-.28,2.93-.22Z"/>
  <path class="cls-64" d="M31.04,26.38c0-.27-.04-.55,0-.81,.08-.46-.3-1.19,.24-1.33,.75-.19,1.64-.33,2.34,.24,.53,.43,.57,1.01,.16,1.56-.29,.39,.09,.55,.21,.8,.28,.59,.27,1.16-.22,1.62-.72,.66-1.65,.45-2.46,.32-.57-.09-.22-.76-.27-1.17-.05-.4-.01-.81-.01-1.22Z"/>
  <path class="cls-38" d="M73.97,26.37c0-.23-.03-.46,0-.68,.08-.5-.3-1.25,.26-1.46,.69-.26,1.52-.21,2.22,.24,.86,.55,1.17,2.27,.62,3.34-.45,.87-1.72,1.33-2.71,1.05-.44-.13-.39-.42-.39-.73,0-.59,0-1.17,0-1.76Z"/>
  <path class="cls-42" d="M138.78,11.18c.54-1.3,1.08-2.6,1.66-4.02l-2.3-.15-.03-.34c.92-.3,1.9-.13,2.86-.09,.21,0,.25,.25,.18,.42-.58,1.49-1.12,2.99-1.93,4.37l-.45-.19Z"/>
  <path class="cls-73" d="M119.33,6.88c-.46,.35-1.2,.29-1.34,1.16,.63,.04,1.37-.08,1.73,.61,.29,.54,.3,1.14,.12,1.7-.31,.98-1.44,1.34-2.15,.67-.88-.82-.71-1.89-.5-2.91,.18-.86,.77-1.4,1.65-1.56,.18-.03,.36,0,.48,.33Z"/>
  <path class="cls-81" d="M32.43,10.62c.69,.31,1.36-.05,2.02,.44-.96,.53-1.86,.31-2.7,.25-.57-.04-.38-.49-.12-.79,.46-.55,.97-1.06,1.42-1.63,.4-.5,.83-1.12,.13-1.64-.7-.51-1.01,.15-1.33,.65-.06,.09-.21,.13-.4,.23-.32-.75,.14-1.13,.61-1.43,.55-.35,1.13-.28,1.64,.11,.47,.36,.63,.82,.41,1.43-.32,.93-1.15,1.48-1.69,2.36Z"/>
  <path class="cls-49" d="M52.73,7.85c.33-1.11,.99-1.5,1.92-1.27,.8,.21,1.26,.86,.82,1.66-.29,.53-.04,.81,.12,1.21,.34,.83-.03,1.43-.77,1.76-.75,.33-1.42,.1-1.9-.57-.09-.12-.12-.36-.06-.48,.1-.2,.37-.15,.47-.03,.5,.59,1.12,1.06,1.57,.14,.48-.97-.45-1.16-1.23-1.33,.26-.7,1.89-.42,1.14-1.53-.72-1.07-1.2,.4-2.08,.43Z"/>
  <path class="cls-72" d="M76.15,11.48c-.15-1.09-.78-1.25-1.61-1.16-.68,.08-.78-.26-.45-.81,.51-.85,1.01-1.7,1.52-2.55,.14-.24,.31-.45,.63-.42,.29,.03,.3,.26,.35,.48,.22,.98-.49,2.12,.51,3.01,.05,.05-.54,.82-.95,1.43Z"/>
  <path class="cls-92" d="M10.19,133.6c.6-.76,1.26-1.06,1.78-.94,.56,.12,.24,.85,.26,1.31,.05,.85,.02,1.7,0,2.55,0,.31,.02,.69-.43,.67-.36-.02-.32-.37-.32-.63-.01-.58-.02-1.17,0-1.75,.03-.75,.16-1.56-1.29-1.21Z"/>
  <path class="cls-32" d="M32.56,136.53c.65,.32,1.35-.13,1.97,.49-.94,.46-1.86,.28-2.73,.2-.62-.06-.28-.52-.07-.78,.48-.59,1.02-1.14,1.5-1.73,.36-.45,.56-1.03,.02-1.44-.48-.36-.93-.1-1.18,.45-.1,.21-.26,.42-.51,.29-.33-.17-.19-.46-.06-.7,.44-.85,1.22-.93,1.97-.66,.81,.28,1.01,.95,.67,1.76-.34,.81-1.09,1.3-1.58,2.13Z"/>
  <path class="cls-63" d="M95.76,136.19c.4-.19,.57-.05,.71,.14,.3,.4,.69,.45,1.07,.21,.46-.28,.42-.77,.33-1.22-.09-.47-.44-.73-.88-.64-.81,.18-1.13,.02-1.06-.91,.06-.87,.24-1.39,1.24-1.23,.41,.06,.86-.07,1.33,.21-1.31,.62-1.31,.71-.41,1.54,.59,.54,.67,1.25,.45,2-.19,.63-.61,.97-1.29,.98-.75,0-1.31-.23-1.49-1.08Z"/>
  <path class="cls-13" d="M119.44,132.78c-.42,.5-1.3,.39-1.39,1.15,1.66,.07,2.52,1.31,1.8,2.61-.41,.75-1.47,1.03-2.07,.48-.89-.8-.75-1.87-.52-2.89,.2-.92,.77-1.5,1.77-1.54,.1,0,.21,.1,.42,.2Z"/>
  <path class="cls-60" d="M52.9,133.87c.14-1.18,.82-1.41,1.69-1.3,.85,.12,1.35,.68,1.03,1.52-.19,.51-.26,.8,.02,1.31,.36,.66,.13,1.36-.6,1.7-.71,.33-1.42,.26-1.98-.35-.14-.15-.32-.36-.12-.59,.14-.16,.37-.15,.48-.02,.54,.62,1.22,.9,1.61,.04,.45-1-.67-1.01-1.27-1.38,.37-.51,1.69-.34,1.14-1.3-.65-1.14-1.21,.21-2,.36Z"/>
  <path class="cls-10" d="M77.18,136.12c-.44,.2-.4,.83-.72,1-.52,.29-.42-.37-.62-.6-.24-.27-.59-.19-.89-.16-1.25,.09-1.13-.42-.6-1.22,.47-.71,.88-1.46,1.32-2.19,.15-.24,.34-.42,.66-.36,.21,.04,.27,.17,.31,.37,.18,1.04-.4,2.21,.53,3.17Z"/>
  <path class="cls-51" d="M21.57,161.1c0-5.7,0-11.4,0-17.1,.27,.18,.21,.47,.21,.73,0,5.17,0,10.33,0,15.5,0,.3,.08,.64-.22,.87Z"/>
  <path class="cls-2" d="M32.56,153.81c.41-1.17,.73-2.1,1.07-3.03,.1-.27,.08-.72,.55-.6,.55,.14,.17,.53,.1,.76-.37,1.11-.79,2.21-1.2,3.31-.09,.24-.12,.56-.48,.58-.36,.03-.42-.26-.51-.52-.43-1.19-.86-2.38-1.28-3.57-.07-.2-.21-.45,.11-.55,.26-.08,.42,.09,.5,.33,.35,1.01,.7,2.03,1.13,3.3Z"/>
  <path class="cls-54" d="M13.09,152.09c0,.45,.05,.91,0,1.35-.12,.97-.79,1.39-1.69,1.4-.93,.01-1.58-.41-1.62-1.42-.04-.86-.02-1.72-.01-2.57,0-.24-.11-.61,.28-.63,.39-.02,.34,.34,.34,.59,0,.77,0,1.54,0,2.3,0,.67,.22,1.16,.99,1.17,.77,.01,1.02-.45,1.02-1.13,0-.77,0-1.54,0-2.3,0-.26-.04-.63,.3-.65,.49-.04,.38,.39,.39,.68,.02,.41,0,.81,0,1.22h0Z"/>
  <path class="cls-26" d="M55.33,153.44c.46-.9,.48-1.82,.71-2.69,.07-.25,.09-.6,.45-.55,.42,.05,.26,.38,.2,.63-.26,1.14-.53,2.29-.81,3.43-.06,.24-.05,.58-.44,.57-.35-.01-.4-.31-.47-.57-.23-.8-.45-1.61-.92-2.44-.25,.84-.51,1.67-.76,2.51-.08,.27-.16,.53-.52,.49-.29-.04-.29-.3-.34-.51-.28-1.18-.57-2.37-.86-3.55-.05-.21-.2-.47,.12-.56,.37-.11,.45,.2,.52,.46,.21,.87,.4,1.75,.67,2.98,.33-1.18,.56-2.03,.81-2.87,.07-.24,.07-.58,.44-.59,.37-.01,.39,.33,.46,.56,.25,.86,.48,1.74,.74,2.69Z"/>
  <path class="cls-20" d="M96.64,152.35c.39-.77,.66-1.29,.92-1.81,.13-.27,.35-.49,.63-.37,.4,.18,.07,.45-.03,.65-.57,1.16-1.42,2.22-1.2,3.64,.03,.19-.1,.35-.31,.36-.29,.02-.41-.19-.38-.43,.2-1.37-.57-2.41-1.16-3.51-.11-.2-.42-.49-.08-.68,.36-.21,.55,.11,.7,.41,.26,.52,.53,1.03,.9,1.73Z"/>
  <path class="cls-31" d="M117.34,154.15c.87,.33,1.71-.1,2.41,.7-.98,0-1.98,.1-2.94-.03-.71-.09-.25-.62-.07-.9,.65-1.01,1.34-2,2.05-3.04-.76-.42-1.58,.03-2.52-.55,1.17-.33,2.08-.22,2.97-.16,.75,.05,.38,.55,.17,.86-.65,1.02-1.33,2.02-2.06,3.13Z"/>
  <path class="cls-45" d="M75.45,153.29q-1.03,1.35-1.87,1.51c1.44-1.51,1.78-3,.04-4.57,1.31-.13,1.2,1.03,1.84,1.37,.77-.13,.55-1.53,1.88-1.39-1.53,1.57-1.6,3.06,.18,4.52-1.42,.21-1.3-1.05-2.07-1.44Z"/>
  <path class="cls-71" d="M139.95,26.73c.53-.18,1.17-.33,1.56,.09,.22,.24,.15,.89,.02,1.3-.19,.58-.76,.69-1.32,.73-1.43,.09-2.22-.76-2.2-2.4,.01-1.58,.71-2.37,2-2.3,.53,.03,.97,.23,1.26,.66,.13,.19,.4,.47,.12,.7-.3,.24-.46-.05-.61-.28-.44-.66-1.09-.77-1.6-.27-.75,.74-.68,1.72-.3,2.64,.29,.72,.93,.78,1.59,.65,.31-.06,.41-.31,.43-.6,.02-.35-.15-.47-.48-.49-.22,0-.46-.03-.46-.43Z"/>
  <path class="cls-89" d="M11.11,50.51c-.44-.08-.42-.41-.42-.72,0-.36,.14-.64,.55-.56,.36,.07,.5,.36,.47,.71-.03,.36-.24,.57-.6,.58Z"/>
  <path class="cls-5" d="M74.58,51.85l.99-1.71,.32,.18c-.21,.58,.54,1.68-1.3,1.53Z"/>
  <path class="cls-37" d="M119.28,51.7c-.08,.47-.15,1.01-.82,1-.56,0-.76-.4-.78-.91-.03-.57,.14-1,.79-1,.56,0,.78,.36,.8,.91Z"/>
  <path class="cls-62" d="M75.68,92.23c.19,.81,.77,1.85-1,1.66l1-1.66Z"/>
  <path class="cls-30" d="M119.36,93.82c0,.53-.13,1.03-.78,1.01-.69-.02-.83-.58-.86-1.14-.03-.59,.32-.96,.88-.94,.6,.03,.77,.52,.76,1.06Z"/>
  <path class="cls-88" d="M96.61,108.84c.71,.03,1.11,.26,1.05,.89-.06,.7-.58,.79-1.17,.8-.88,.02-.53-.63-.59-1.04-.11-.7,.37-.68,.7-.65Z"/>
  <path class="cls-18" d="M31.56,110.61c.02-.77,.03-1.69,1.14-1.72,1.19-.03,1.27,.95,1.27,1.82,0,.83-.15,1.74-1.23,1.73-1.1-.01-1.16-.91-1.17-1.82Z"/>
  <path class="cls-14" d="M53.96,110.79c-.74,.15-.77-.36-.77-.96,0-.59,0-1.06,.82-.99,.65,.06,1.18,.18,1.17,.96,0,.74-.47,1-1.23,1Z"/>
  <path class="cls-47" d="M76.91,110.66c-.07,.83-.12,1.76-1.21,1.77-1.18,.01-1.24-.95-1.24-1.84,0-.86,.14-1.74,1.24-1.71,1.08,.03,1.15,.94,1.21,1.78Z"/>
  <path class="cls-96" d="M11.27,25.14c.49,.69,.8,1.24,.68,1.89-.01,.08-.83,.21-.96,.05-.53-.64,.24-1.14,.28-1.94Z"/>
  <path class="cls-99" d="M32.49,28.31c-.6,.1-.82-.18-.8-.82,.01-.58,.08-.93,.79-.88,.62,.04,1.06,.19,1.05,.9,0,.65-.43,.82-1.04,.81Z"/>
  <path class="cls-21" d="M32.45,24.68c.59,0,1.04,.14,.97,.73-.07,.62-.56,.69-1.1,.7-.59,.01-.62-.31-.64-.76-.04-.69,.38-.7,.77-.67Z"/>
  <path class="cls-97" d="M76.68,26.26c.03,.86-.1,1.41-.6,1.81-.34,.27-.77,.3-1.15,.17-.39-.13-.23-.53-.24-.82-.02-.49-.07-1,.01-1.47,.07-.44-.42-1.17,.52-1.24,.8-.06,1.26,.37,1.42,1.13,.05,.22,.05,.44,.04,.42Z"/>
  <path class="cls-3" d="M119.31,9.45c0,.72-.12,1.26-.74,1.27-.68,.01-.85-.57-.89-1.14-.03-.53,.23-.89,.77-.92,.66-.04,.82,.43,.86,.79Z"/>
  <path class="cls-16" d="M75.74,8.12c0,.55,.54,1.2-.2,1.62-.16,.09-.61,.03-.63-.03-.17-.7,.47-1.06,.82-1.59Z"/>
  <path class="cls-94" d="M119.36,135.75c-.01,.39-.1,.91-.77,.89-.63-.01-.79-.53-.84-1.04-.06-.57,.22-1.01,.81-1.01,.61,0,.81,.46,.8,1.16Z"/>
  <path class="cls-25" d="M75.9,134.06c.09,.81,.61,1.92-1.08,1.7,.15-.73,.56-1.24,1.08-1.7Z"/>
  <rect class="cls-29" x="8.31" y="46.87" width="5.96" height="5.96"/>
  <text class="cls-15" transform="translate(9.14 53.7)"><tspan x="0" y="0">1</tspan></text>
</svg>