<?xml version="1.0" encoding="UTF-8"?>
<svg id="Capa_5" data-name="Capa 5" xmlns="http://www.w3.org/2000/svg" xmlns:xlink="http://www.w3.org/1999/xlink" viewBox="0 0 451.64 385.03">
  <defs>
    <style>
      .cls-1 {
        letter-spacing: 0em;
      }

      .cls-2 {
        letter-spacing: 0em;
      }

      .cls-3 {
        font-size: 13px;
      }

      .cls-3, .cls-4 {
        fill: #1d1d1b;
        font-family: MartelSans-DemiBold, 'Martel Sans';
      }

      .cls-5 {
        letter-spacing: .01em;
      }

      .cls-6 {
        letter-spacing: 0em;
      }

      .cls-7 {
        letter-spacing: 0em;
      }

      .cls-8 {
        fill: #b0cf6f;
        filter: url(#drop-shadow-1);
      }

      .cls-9 {
        fill: #ba7414;
      }

      .cls-10 {
        letter-spacing: 0em;
      }

      .cls-11 {
        letter-spacing: 0em;
      }

      .cls-12 {
        fill: #dfecd1;
      }

      .cls-4 {
        font-size: 14px;
      }

      .cls-13 {
        letter-spacing: 0em;
      }

      .cls-14 {
        letter-spacing: 0em;
      }

      .cls-15 {
        letter-spacing: 0em;
      }

      .cls-16 {
        letter-spacing: 0em;
      }

      .cls-17 {
        letter-spacing: 0em;
      }

      .cls-18 {
        letter-spacing: .01em;
      }

      .cls-19 {
        letter-spacing: 0em;
      }

      .cls-20 {
        fill: #ffcd1f;
      }
    </style>
    <filter id="drop-shadow-1" filterUnits="userSpaceOnUse">
      <feOffset dx="3.45" dy="3.45"/>
      <feGaussianBlur result="blur" stdDeviation="2.57"/>
      <feFlood flood-color="#8a837f" flood-opacity=".35"/>
      <feComposite in2="blur" operator="in"/>
      <feComposite in="SourceGraphic"/>
    </filter>
  </defs>
  <path class="cls-12" d="M153.22,19.45c47.88,0,84.71-6.5,130.76-16.25,49.72-11.37,117.86,8.12,143.65,48.75,25.78,37.37,27.62,102.36,20.26,146.23-6.94,61.2-93.9,90.7-180.91,99.36-61.29,14.18-116.22,11.43-174.53-19.75C-54.89,199.81-19.9,25.95,153.22,19.45Z"/>
  <path class="cls-8" d="M149.85,309.5c.54-6.01,3.01-12.16,7.75-19.38,6.3-9.57,15.12-17.62,26.21-23.93,2.93-1.67,6.04-3.25,9.04-4.78,1.38-.7,2.76-1.41,4.13-2.12l.86-.45,2.26,1.52-.45,.48c-1.97,2.1-2.78,4.5-3.31,6.58-.78,3.03,.03,5.62,2.28,7.3,1.87,1.4,4.67,2.13,8.31,2.16,.5,0,1,0,1.5,0,5.57,0,11.19-.28,16.68-.84,9.1-.92,17.33-1.72,25.85-2.24,8.42-.5,16.97-.73,25.24-.95,7.75-.2,15.77-.41,23.63-.86,2.53-.14,5.04-.21,7.48-.21,7.91,0,15.51,.76,22.58,2.27,10.31,2.2,17.5,6.99,21.35,14.23,4.08,7.67,4.91,15.53,5.51,24.28,.61,8.86-.98,17.69-2.81,26.71-.55,2.73-1.23,5.48-2.02,8.17-1.38,4.71-5.29,8.12-12.68,11.04-5.86,2.32-12.73,4.92-20.17,6.47l-1.53,.32c-5.68,1.19-11.56,2.42-17.5,3.33-7.06,1.09-14.37,2.21-21.86,2.89-2.32,.21-4.69,.47-6.97,.72-5.08,.55-10.34,1.12-15.61,1.27-3.02,.08-6.09,.13-9.11,.13-8.54,0-17.2-.34-25.73-1.01-2.56-.2-5.21-.24-7.79-.29-1.78-.03-3.62-.06-5.44-.14l-2.16-.09c-7.91-.34-16.1-.7-23.89-2.45-3.36-.75-6.84-1.7-10.64-2.9-3.03-.95-4.71-2.71-6.34-4.41-.33-.34-.66-.69-.99-1.02-4.45-4.38-7.74-9.56-10.06-15.84-3.81-10.3-4.92-21.39-3.6-35.98Z"/>
  <text class="cls-4" transform="translate(161.47 311.6)"><tspan class="cls-2" x="0" y="0">Según el tipo de pico, </tspan><tspan class="cls-19" x="0" y="16.8">podemos identificar de que </tspan><tspan class="cls-18" x="0" y="33.6">se alimentan las aves.</tspan></text>
  <text class="cls-3" transform="translate(286.83 80.49)"><tspan class="cls-5" x="0" y="0">semillero</tspan></text>
  <g>
    <path class="cls-9" d="M370.51,58.73s17.98-5.46,14.81-7.79c-3.18-2.33-8.15-4.66-8.15-4.66,0,0-7.84-10.91-19.8-10.91s-22.34,4.55-29.12,13.77c-6.78,9.21-9,11.44-9,11.44,0,0,11.78,.58,22.05,7.56,10.27,6.99,22.63,21.77,22.63,21.77,0,0,0-5.72,3.6-11.97,3.6-6.25,6.99-9.43,6.99-9.43,0,0,5.61-1.91,10.17-4.13,4.55-2.22-14.17-5.66-14.17-5.66"/>
    <path class="cls-20" d="M363.92,89.91s2.15-9.84,4.23-13.03c2.09-3.19,2.35-3.56,2.35-3.56,0,0-.15-.76-1.04-2.4-.89-1.63-1.49-1.03-1.49-4.56s3.05-3.84,.37-6.73c-2.68-2.9-5.05-9.14-15.31-6.09-10.26,3.05-6.39,2.82-11.15,4.09-4.76,1.26-20.78,.8-20.78,.8l-1.88,2.17s13.07,1.39,22.51,7.87c9.44,6.48,22.18,21.46,22.18,21.46"/>
    <path class="cls-20" d="M378.7,47.04c.27,.14,.36,4.93-1.35,6.79-1.71,1.86-6.84,4.91-6.84,4.91l21.98-.97s-3.51-4.1-6.2-6.04c-2.7-1.94-7.59-4.68-7.59-4.68"/>
    <path class="cls-20" d="M392.83,58.73h-22.33s1.56,1.04,3.05,3.49c1.49,2.45,1.34,2.9-.67,4.76s1.88,1.46,2.08,1.39c.2-.07,7.57-2.66,10.28-4.26,2.7-1.59,7.59-5.38,7.59-5.38"/>
    <path class="cls-9" d="M355.05,53.53c0,2.5,2.03,4.53,4.53,4.53s4.53-2.03,4.53-4.53-2.03-4.53-4.53-4.53c-2.5,0-4.53,2.03-4.53,4.53"/>
    <path class="cls-20" d="M357,54.12c0,1.64,1.39,2.97,3.11,2.97s3.11-1.33,3.11-2.97-1.39-2.97-3.11-2.97-3.11,1.33-3.11,2.97"/>
    <path class="cls-9" d="M358.62,54.54c0,.92,.75,1.66,1.67,1.66s1.67-.74,1.67-1.66-.75-1.66-1.67-1.66-1.67,.74-1.67,1.66"/>
  </g>
  <text class="cls-3" transform="translate(176.15 152.52)"><tspan x="0" y="0">insectívoro</tspan></text>
  <g>
    <path class="cls-9" d="M290.23,118.52s-6.99-16.74-25.22-16.74-29.15,15.42-29.15,15.42l-18.97,19.95s16.62-4.68,27.39,1.87c10.77,6.55,13.1,13.59,13.1,13.59,0,0,3.85-11.8,14.61-18.95,10.76-7.15,16.94-9.15,16.94-9.15l1.29-5.99Z"/>
    <path class="cls-20" d="M312.38,124.38c-.74-.2-23.32-7.72-23.32-7.72l-2.97,4.88,26.29,2.84Z"/>
    <polygon class="cls-20" points="311.84 125.19 286.96 125.26 286.09 121.54 311.84 125.19"/>
    <g>
      <path class="cls-20" d="M280.54,114.66c0,1.79-1.52,3.24-3.39,3.24s-3.39-1.45-3.39-3.24,1.52-3.24,3.39-3.24,3.39,1.45,3.39,3.24"/>
      <path class="cls-9" d="M278.79,115.12c0,1-.81,1.81-1.82,1.81s-1.82-.81-1.82-1.81,.82-1.81,1.82-1.81,1.82,.81,1.82,1.81"/>
    </g>
  </g>
  <text class="cls-3" transform="translate(259.03 247.52)"><tspan x="0" y="0">nectarívoro</tspan></text>
  <g>
    <g>
      <path class="cls-20" d="M377.05,213.3s14.85,1.32,22.6,6.77c14.98,10.55,15.5,20.58,15.5,20.58,0,0-3.36-11.81-17.44-19.52-8.51-4.66-20.92-4.64-20.92-4.64l-2.08,1.06,2.34-4.25Z"/>
      <path class="cls-20" d="M376.85,216.22c2.91,0,15.76,1.26,23.63,6.96,13.8,9.98,13.8,17.48,13.8,17.48,0,0-6.83-12.81-17.17-17.57-10.34-4.76-20.95-3.65-20.95-3.65v-3.22h.69Z"/>
      <path class="cls-9" d="M377.48,213.29s-7.18-17.19-25.89-17.19-29.93,15.83-29.93,15.83l-19.48,20.48s17.07-4.81,28.12,1.92c11.06,6.73,13.45,13.96,13.45,13.96,0,0,3.96-12.12,15.01-19.46,11.05-7.34,17.4-9.4,17.4-9.4l1.32-6.15Z"/>
      <path class="cls-20" d="M377.48,213.29s-.62,.23-1.17,.96c-.56,.74-.94,1.64-.95,1.78l-.02,.14v.14s-.23,.36,0,1.1c.23,.74,.82,2.01,.82,2.01l1.16-.94s.13-2.54,.16-2.74c.03-.2,0-2.48,0-2.48"/>
    </g>
    <g>
      <path class="cls-20" d="M367.71,208.54c0,1.52-1.29,2.76-2.88,2.76s-2.89-1.23-2.89-2.76,1.29-2.76,2.89-2.76,2.88,1.23,2.88,2.76"/>
      <path class="cls-9" d="M366.22,208.93c0,.85-.69,1.54-1.55,1.54s-1.55-.69-1.55-1.54,.7-1.54,1.55-1.54,1.55,.69,1.55,1.54"/>
    </g>
  </g>
  <text class="cls-3"><tspan class="cls-5" x="75.6" y="250.61">carnívoro</tspan></text>
  <g>
    <g>
      <path class="cls-9" d="M171.44,208.79l-3.09-1.31s.36-6.29-8.67-9.74c-9.03-3.44-19-2.49-22.92-5.82-3.92-3.32-18.52-13.66-18.52-13.66l5.11,5.82-5.11-2.26s4.51,4.99,4.16,4.75c-.36-.24-10.81-5.34-10.81-5.34l10.69,7.36-4.28-.95s5.23,3.44,4.75,3.44h-5.34l8.91,4.51s-.12-.71-1.9,6.41c-1.78,7.12-3.32,16.63-7.6,21.49-4.27,4.87-11.28,11.64-11.28,11.64,0,0,21.49-2.54,31.11,2.61,9.97,5.34,17.93,16.86,17.93,16.86,0,0-3.56-10.21-2.14-17.81,1.43-7.6,6.65-11.52,13.78-11.88,7.12-.36,8.08,.33,9.39,.45,1.31,.12-4.16-16.6-4.16-16.6"/>
      <path class="cls-9" d="M174.39,219.72c-.07-3.47-.45-7.17-2.26-10.21-.52-.87-1.89-.08-1.37,.8,1.67,2.8,1.98,6.22,2.04,9.41,.02,1.02,1.6,1.02,1.58,0h0Z"/>
      <path class="cls-20" d="M156.5,206.53c.24,0,9.36,.16,9.36,4.56s-10.31,5.92-10.31,5.92c0,0,2.44-1.97,2.44-5.24s-1.5-5.24-1.5-5.24"/>
      <path class="cls-20" d="M165.47,205.76s-4.8-4.8-10.47-4.8c-5.66,0-9.99,1.97-16.29,1.97-6.29,0-12.83-1.97-12.83-1.97,0,0,3.78,4.33,11.25,4.33,7.48,0,9.91-2.52,17.94-2.52s10.39,2.99,10.39,2.99"/>
      <path class="cls-20" d="M141.79,208.79c-4.41,0-11.49-4.1-11.49-4.1,0,0,2.51,1.37,6.84,1.37,4.33,0,11.86-2.52,17.94-2.52,6.08,0,10.39,2.99,10.39,2.99,0,0-6.45-1.02-10.54-1.02-4.09,0-10.54,3.28-13.14,3.28"/>
      <path class="cls-20" d="M153.67,219.19s-20.14,9.44-20.14,13.06,3.7,5.98,7.48,0c3.78-5.98,12.67-13.06,12.67-13.06"/>
      <path class="cls-20" d="M152,249.86s-6.75-5.02-6.75-11.39c0-6.37,3.74-10.2,6.73-11.59,2.99-1.39,8.22-1.39,8.22-1.39,0,0-11.45,2.18-11.45,12.37,0,8.15,3.24,12.01,3.24,12.01"/>
      <path class="cls-20" d="M164.9,224.99s-15.41,1.55-15.41,13.21c0,9.96,3.96,12.51,3.96,12.51,0,0-1.23-7.8-1.23-12.45,0-6.57,8.06-12.24,12.68-13.27"/>
      <path class="cls-20" d="M174.36,216.99c0-5.74-2.92-8.21-2.92-8.21,0,0,2.57,1.01,6.85,5.29,4.28,4.28,4.54,6.41,4.54,8.25s-1.18,5.34-1.18,5.34c0,0-.56-1.43-1.27-2.17,0,0,.35-2.45-.56-3.41-.9-.95-5.94-2.9-5.94-2.9,0,0,5.24,3.01,5.5,3.38,.27,.37,.66,.53,.5,1.8-.06,.45-.16,.53-.21,.83-.77-.13-2.11,.79-3.64,.37-1.72-.48-6.54-.72-6.54-.72,0,0,4.88-4.55,4.88-7.86"/>
      <g>
        <path class="cls-20" d="M149.23,212.32c0,1.54,1.31,2.79,2.91,2.79,1.61,0,2.92-1.25,2.92-2.79s-1.31-2.79-2.92-2.79c-1.61,0-2.91,1.25-2.91,2.79"/>
        <path class="cls-9" d="M150.74,212.72c0,.86,.7,1.55,1.57,1.55s1.57-.7,1.57-1.55-.7-1.55-1.57-1.55-1.57,.7-1.57,1.55"/>
      </g>
    </g>
    <path class="cls-20" d="M174.36,216.99c0-2.18-.43-4.42-1.51-6.33-.26-.47-.64-1.22-1.08-1.55-1.02-.75-2.65-1.06-3.79-1.71,.23,1.03,.97,1.85,1.64,2.66,1.6,1.94,2.93,4.1,3.95,6.4,.07,.16,.14,.34,.08,.49-.05,.12-.16,.2-.27,.27-1.61,1.08-3.27,2.09-4.97,3.03,.23,.38,.64,.64,1.08,.68-1.54,1.17-3.01,2.42-4.42,3.75,1.24,.03,3.6,.52,4.65-.07,.61-.34,1.2-1.26,1.65-1.79,1.33-1.58,2.99-3.66,2.99-5.84"/>
  </g>
  <text class="cls-3"><tspan x="39.05" y="107.25">frugívoro</tspan></text>
  <g>
    <path class="cls-9" d="M154.91,103.88c2.98,2.23,5.97,4.94,8.71,8.28,.04,.04,.08,.07,.12,.08,.03,0,.06,.01,.09,0,0,0,.01,0,.02,0,.02,0,.03-.01,.04-.02h0s.03-.02,.04-.03c.02-.01,.03-.02,.05-.04,.01-.01,.02-.02,.04-.04,0,0,0,0,.01-.01,.01-.02,.03-.03,.04-.05,.07-.08,.13-.2,.2-.33,.02-.03,.03-.06,.04-.09,.02-.04,.03-.07,.05-.11,.04-.1,.08-.21,.13-.33,.85-2.43,1.45-8.67-1.19-15.36l-.1,.05c-.4,.2-.81,.43-1.24,.68-2.39,1.45-5.03,3.76-7.06,7.33Z"/>
    <path class="cls-9" d="M154.43,104.52c-.56,1.1-1.03,2.37-1.38,3.81,2.69,1.13,5,1.98,6.46,2.51,0,0,.02,0,.02,0,.82,.26,1.37,.43,1.59,.49h0c.07,.02,.1,.03,.1,.03-1.22-1.39-2.41-2.68-3.57-3.88,0,0,0,0-.01-.01-1.06-1.06-3.21-2.97-3.22-2.96Z"/>
    <path class="cls-20" d="M136.26,91.73c-1.5,3.8-.57,5.58-.18,6.12,.06,.08,.14,.17,.15,.17h0c4.62,4.15,11.47,7.79,16.8,10.28,.4-1.43,.92-2.68,1.52-3.76-7.73-7.54-14.76-11.25-18.3-12.81Z"/>
    <g>
      <g>
        <path class="cls-20" d="M142.55,81.74s-6.17,6.07-6.6,6.68c-.43,.62,.26,1.31-.61,3.48-.87,2.17-1.46,3.64-1.46,3.64,0,0-3.67-.43-5.32,3.79-1.65,4.21-.07,13.05-5.2,17.09-5.13,4.03-15.8,10.43-15.8,10.43,0,0,1.53-5.41,.67-11.58s-1.64-15.72-1.64-15.72l12.68-25.63,11.64-2.26,12.37,3.54,1.7,3.62s-.55,1.06-2.43,2.92"/>
        <path class="cls-9" d="M113.88,86.95c0,5.47,4.95,8.51,5.65,12.25,.69,3.74-.13,7.34-3.48,10.69-3.34,3.34-7.38,5.39-7.38,5.39h-.44s-1.53-11.23-10.43-20.14c-8.91-8.9-14.96-8.48-14.96-8.48,0,0,15.01-16.71,18.03-19.07,3.02-2.36,9.41-7.91,23.29-5.35,13.88,2.57,16.93,8.95,17.58,10.11,.65,1.16,1.54,2.87,1.54,2.87,0,0-5.77-.16-14.89,2.45-9.12,2.61-14.51,5.73-14.51,9.3"/>
        <path class="cls-9" d="M120.74,77.57c0,2.02,1.75,3.65,3.91,3.65s3.91-1.63,3.91-3.65-1.75-3.65-3.91-3.65-3.91,1.63-3.91,3.65"/>
        <path class="cls-20" d="M121.22,77.53c0,1.44,1.37,2.61,3.05,2.61,1.69,0,3.05-1.17,3.05-2.61s-1.37-2.61-3.05-2.61c-1.69,0-3.05,1.17-3.05,2.61"/>
        <path class="cls-9" d="M122.39,77.07c0,.99,.76,1.8,1.71,1.8s1.7-.81,1.7-1.8-.76-1.8-1.7-1.8-1.71,.81-1.71,1.8"/>
      </g>
      <path class="cls-20" d="M135.48,91.96c.79,2.55,10.04,4.88,19.43,11.92,2.02-3.57,4.66-5.88,7.06-7.33-2.71-6.16-8.22-12.62-18.74-16.76-2.56,2.73-8.57,9.52-7.75,12.17Z"/>
      <path class="cls-20" d="M143.18,79.77s.03,.01,.05,.02c10.52,4.15,16.03,10.6,18.74,16.76,.42-.26,.83-.48,1.24-.68l.1-.05c-2.5-6.35-7.93-13.11-18.84-17.38l-1.29,1.33Z"/>
    </g>
    <path class="cls-9" d="M133.85,90.79s-1.35,1.63-1.4,2.86c-.05,1.23,2.21,2.95,3.77,4.35-.03-.03-.07-.08-.13-.15-.4-.53-1.32-2.31,.18-6.12-1.53-.67-2.41-.94-2.41-.94Z"/>
    <path class="cls-9" d="M133.72,90.98s.91,.23,2.51,.83c.81-2.96,1.87-5.47,8.28-13.33-2.14-1.62-10.79,12.51-10.79,12.51Z"/>
  </g>
</svg>