<?xml version="1.0" encoding="UTF-8"?><svg id="Capa_1" xmlns="http://www.w3.org/2000/svg" viewBox="0 0 81.13 54.84"><defs><style>.cls-1{fill:#ba7414;}.cls-2{fill:none;}.cls-3{fill:#ffcd1f;}</style></defs><g><path class="cls-1" d="M63,34.73c2.06,1.54,4.12,3.41,6.01,5.71,.03,.03,.05,.05,.08,.06,.02,0,.04,0,.06,0h.01s.02-.01,.03-.02h0s.02-.01,.03-.02c.01,0,.02-.02,.03-.03,0,0,.02-.02,.03-.03h0s.02-.03,.03-.05c.05-.06,.09-.13,.14-.23,.01-.02,.02-.04,.03-.06,.01-.02,.02-.05,.03-.08,.03-.07,.06-.15,.09-.23,.58-1.68,1-5.98-.82-10.6l-.07,.03c-.28,.14-.56,.3-.85,.47-1.65,1-3.47,2.59-4.87,5.05Z"/><path class="cls-1" d="M62.67,35.17c-.39,.76-.71,1.63-.95,2.63,1.86,.78,3.45,1.37,4.46,1.73,0,0,.01,0,.02,0,.56,.18,.95,.3,1.1,.34h0s.07,.02,.07,.02c-.84-.96-1.66-1.85-2.46-2.68h0c-.73-.74-2.22-2.06-2.22-2.05Z"/><path class="cls-3" d="M50.13,26.35c-1.03,2.62-.4,3.85-.12,4.22,.04,.05,.1,.12,.1,.12h0c3.18,2.86,7.91,5.38,11.59,7.09,.27-.99,.63-1.85,1.05-2.59-5.33-5.2-10.18-7.76-12.62-8.84Z"/><g><g><path class="cls-3" d="M54.47,19.45s-4.26,4.19-4.56,4.61c-.3,.43,.18,.9-.42,2.4-.6,1.5-1,2.51-1,2.51,0,0-2.53-.29-3.67,2.61-1.14,2.91-.05,9.01-3.59,11.79-3.54,2.78-10.9,7.2-10.9,7.2,0,0,1.05-3.73,.46-7.99-.59-4.26-1.13-10.85-1.13-10.85l8.75-17.68,8.03-1.56,8.53,2.45,1.17,2.5s-.38,.73-1.67,2.01"/><path class="cls-1" d="M34.69,23.05c0,3.78,3.42,5.87,3.9,8.45,.48,2.58-.09,5.06-2.4,7.37-2.31,2.31-5.09,3.72-5.09,3.72h-.31s-1.05-7.75-7.2-13.89c-6.14-6.14-10.32-5.85-10.32-5.85,0,0,10.35-11.53,12.44-13.16,2.08-1.63,6.49-5.46,16.07-3.69,9.58,1.77,11.68,6.18,12.13,6.97,.45,.8,1.07,1.98,1.07,1.98,0,0-3.98-.11-10.27,1.69-6.29,1.8-10.01,3.95-10.01,6.41"/><path class="cls-1" d="M39.43,16.58c0,1.39,1.21,2.52,2.7,2.52,1.49,0,2.7-1.13,2.7-2.52s-1.21-2.52-2.7-2.52-2.7,1.13-2.7,2.52"/><path class="cls-3" d="M39.76,16.55c0,.99,.94,1.8,2.11,1.8s2.11-.81,2.11-1.8-.94-1.8-2.11-1.8-2.11,.81-2.11,1.8"/><path class="cls-1" d="M40.57,16.23c0,.69,.53,1.24,1.18,1.24s1.18-.56,1.18-1.24c0-.69-.53-1.24-1.18-1.24s-1.18,.56-1.18,1.24"/></g><path class="cls-3" d="M49.59,26.51c.54,1.76,6.93,3.37,13.41,8.22,1.4-2.46,3.22-4.06,4.87-5.05-1.87-4.25-5.67-8.71-12.93-11.57-1.77,1.89-5.91,6.57-5.35,8.4Z"/><path class="cls-3" d="M54.91,18.1s.02,0,.03,.01c7.26,2.86,11.06,7.32,12.93,11.57,.29-.18,.58-.33,.85-.47l.07-.03c-1.73-4.38-5.47-9.04-12.99-11.99l-.89,.92Z"/></g><path class="cls-1" d="M48.47,25.7s-.93,1.12-.97,1.97c-.03,.85,1.52,2.04,2.6,3-.02-.02-.05-.05-.09-.11-.27-.37-.91-1.6,.12-4.22-1.06-.46-1.66-.65-1.66-.65Z"/><path class="cls-1" d="M48.38,25.83s.63,.16,1.73,.57c.56-2.04,1.29-3.78,5.71-9.2-1.48-1.12-7.44,8.63-7.44,8.63Z"/></g><rect class="cls-2" width="81.13" height="54.84"/></svg>