<?xml version="1.0" encoding="UTF-8"?><svg id="Objects" xmlns="http://www.w3.org/2000/svg" viewBox="0 0 201.24 181.11"><defs><style>.cls-1{fill:#00d0ce;}.cls-2{fill:#ff3c07;}.cls-3{fill:#009db3;}.cls-4{fill:#ffe15c;}.cls-5{fill:#ffc900;}</style></defs><path class="cls-5" d="M150.25,10.56V0H50.99V10.56H23.48l1.26,20.82c1.24,20.41,12.65,38.84,30.36,49.06l16.43,9.48c3.73,4.71,7.87,8.96,12.45,12.59l8.39,6.65-.04,13.33c-16.11,2.73-29.46,13.31-36.22,27.63h-10.26v11.15h109.58v-11.15h-10.32c-6.77-14.32-20.11-24.9-36.22-27.63l-.04-13.33,8.39-6.65c4.58-3.63,8.73-7.88,12.45-12.59l16.43-9.48c17.71-10.22,29.12-28.65,30.36-49.06l1.26-20.82h-27.51ZM40.2,36.51l-.66-10.83h11.44v1.77c0,12.93,2.26,25.47,6.42,36.87-10.04-5.79-16.5-16.24-17.21-27.81Zm120.84,0c-.7,11.57-7.17,22.01-17.21,27.81,4.16-11.4,6.42-23.94,6.42-36.87v-1.77h11.44l-.66,10.83Z"/><path class="cls-4" d="M68.79,58.62c-3.68-13.24-3.81-26.9-3.92-38.96-.03-2.78,2.21-5.06,4.99-5.09,2.53-.01,5.06,2.21,5.09,4.99,.11,11.43,.23,24.39,3.56,36.35,.75,2.68-.82,5.46-3.5,6.21-.45,.13-.91,.19-1.35,.19-2.21,0-4.23-1.46-4.85-3.69Z"/><path class="cls-4" d="M78.69,75.54c-2.9,0-5.25-2.35-5.25-5.25s2.35-5.25,5.25-5.25,5.25,2.35,5.25,5.25-2.35,5.25-5.25,5.25Z"/><path class="cls-4" d="M150.25,10.56V0h-.67L70.42,89.28l1.11,.64c3.73,4.71,7.87,8.96,12.45,12.59l8.39,6.65-.04,13.33c-16.11,2.73-29.46,13.31-36.22,27.63h-10.26v11.15h109.58v-11.15h-10.32c-6.77-14.32-20.11-24.9-36.22-27.63l-.04-13.33,8.39-6.65c4.58-3.63,8.73-7.88,12.45-12.59l16.43-9.48c17.71-10.22,29.12-28.65,30.36-49.06l1.26-20.82h-27.51Zm10.78,25.95c-.7,11.57-7.17,22.01-17.21,27.81,4.16-11.4,6.42-23.94,6.42-36.87v-1.77h11.44l-.66,10.83Z"/><path class="cls-1" d="M108.91,122.48s-3.4,1.84-8.42,1.84c-4.36,0-8.15-1.84-8.15-1.84-16.11,2.73-29.46,13.31-36.22,27.63h-10.26v11.15h109.58v-11.15h-10.32c-6.77-14.32-20.11-24.9-36.22-27.63Z"/><rect class="cls-3" x="45.86" y="150.11" width="109.58" height="11.15"/><g><path class="cls-3" d="M41.75,72.29s3.58-6.1,.99-13.32c-2.6-7.22-8.29-9.19-8.29-9.19,0,0-4.05,7.23-1.51,14.27,2.52,7.04,8.81,8.24,8.81,8.24Z"/><path class="cls-3" d="M52.17,74.5s6.48-1.67,10.04-8.93c3.55-7.26,.53-14.23,.53-14.23,0,0-6,2.39-9.65,9.84-3.65,7.45-.92,13.31-.92,13.31Z"/><path class="cls-3" d="M53.62,96.32s6.34-2.62,9.1-10.24c2.75-7.63-1.09-13.98-1.09-13.98,0,0-5.76,3.25-8.59,11.09-2.83,7.82,.58,13.13,.58,13.13Z"/><path class="cls-3" d="M61.8,111.4s6.16-3.27,8.31-11.08c2.14-7.82-2.23-13.65-2.23-13.65,0,0-5.54,3.83-7.75,11.85-2.21,8.02,1.67,12.87,1.67,12.87Z"/><path class="cls-3" d="M73.53,126.02s5.29-5.09,5.46-13.03c.17-7.94-5.63-11.87-5.63-11.87,0,0-4.53,5.4-4.7,13.55-.17,8.15,4.88,11.35,4.88,11.35Z"/><path class="cls-3" d="M49.69,56.25s5.69-3.14,7.19-11.29c1.5-8.14-1.93-13.58-1.93-13.58,0,0-6.6,3.86-8.05,11.81-1.46,7.94,2.79,13.07,2.79,13.07Z"/><path class="cls-3" d="M42.16,89.01s1.98-6.85-2.44-12.61c-4.43-5.77-10.55-5.63-10.55-5.63,0,0-2.15,8.05,2.15,13.67,4.31,5.63,10.84,4.58,10.84,4.58Z"/><path class="cls-3" d="M47.35,105.38s.65-7.01-4.88-11.34c-5.54-4.33-11.64-2.61-11.64-2.61,0,0-.59,8.2,4.81,12.42s11.72,1.54,11.72,1.54Z"/><path class="cls-3" d="M54.95,118.37s-1.2-6.67-7.81-8.7c-6.61-2.03-12.2,1.7-12.2,1.7,0,0,1.58,7.74,8.01,9.71,6.46,1.97,12-2.71,12-2.71Z"/><path class="cls-3" d="M58.27,123.74c-6.87-1.06-12.11,3.36-12.11,3.36,0,0,2.4,7.36,9.09,8.39,6.7,1.04,11.78-4.33,11.78-4.33,0,0-1.9-6.36-8.76-7.43Z"/><path class="cls-1" d="M50.5,60.82l-3.07-1.2c-.16,.4-14.8,40.86,30.04,76.52l2.12-3.3c-42.69-33.95-29.66-70.48-29.08-72.02Z"/><path class="cls-3" d="M159.19,70.96s6.17-1.7,8.12-8.91c1.97-7.22-2.64-14.11-2.64-14.11,0,0-5.51,2.41-7.53,9.82-2.01,7.4,2.05,13.2,2.05,13.2Z"/><path class="cls-3" d="M138.26,65.87c4.12,6.96,10.71,8.11,10.71,8.11,0,0,2.26-6.07-1.97-13.2-4.22-7.14-10.4-9.05-10.4-9.05,0,0-2.47,7.19,1.65,14.14Z"/><path class="cls-3" d="M139.38,86.36c3.35,7.38,9.88,9.49,9.88,9.49,0,0,2.98-5.57-.46-13.14-3.44-7.58-9.44-10.37-9.44-10.37,0,0-3.33,6.63,.02,14.02Z"/><path class="cls-3" d="M133.14,101.14c2.76,7.61,9.16,10.39,9.16,10.39,0,0,3.48-5.15,.64-12.97-2.83-7.82-8.66-11.2-8.66-11.2,0,0-3.9,6.16-1.14,13.78Z"/><path class="cls-3" d="M125.28,114.48c.8,7.9,6.47,12.56,6.47,12.56,0,0,4.78-3.59,3.96-11.7-.82-8.11-5.76-13.14-5.76-13.14,0,0-5.47,4.38-4.67,12.28Z"/><path class="cls-3" d="M151.75,42.35c-2.08-7.81-8.96-11.13-8.96-11.13,0,0-2.98,5.7-.84,13.69,2.14,7.99,8.06,10.68,8.06,10.68,0,0,3.83-5.46,1.75-13.25Z"/><path class="cls-3" d="M161.54,74.89c-3.95,6.1-1.43,12.77-1.43,12.77,0,0,6.59,.53,10.44-5.42,3.84-5.94,1.06-13.8,1.06-13.8,0,0-6.11,.35-10.07,6.45Z"/><path class="cls-3" d="M160.2,92.69c-5.18,4.75-3.97,11.7-3.97,11.7,0,0,6.51,2.18,11.56-2.46,5.05-4.64,3.81-12.76,3.81-12.76,0,0-6.22-1.23-11.4,3.53Z"/><path class="cls-3" d="M156.78,108.65c-6.43,2.54-7.1,9.29-7.1,9.29,0,0,5.89,4.23,12.17,1.75,6.26-2.48,7.22-10.32,7.22-10.32,0,0-5.86-3.26-12.29-.72Z"/><path class="cls-3" d="M146.79,123.55c-6.76,1.61-8.15,8.1-8.15,8.1,0,0,5.49,4.94,12.09,3.38,6.58-1.56,8.39-9.09,8.39-9.09,0,0-5.57-3.99-12.34-2.39Z"/><path class="cls-1" d="M152.53,58.77l-2.96,1.44c.7,1.49,16.58,36.87-23.29,74.1l2.37,3.12c41.87-39.1,24.07-78.27,23.88-78.66Z"/><g><path class="cls-2" d="M27.56,165.35c3.19-13.18,6.37-26.37,9.56-39.55,41.73,10.09,85.27,10.09,127,0,1.63,6.58,3.26,13.17,4.89,19.75,1.56,6.6,3.11,13.2,4.67,19.81-48.01,11.6-98.11,11.6-146.12,0Z"/><path class="cls-2" d="M201.24,172.72c-10.2,3.31-20.52,6.11-30.92,8.39-.81-3.71-1.63-7.42-2.44-11.13,3.42-.75,6.83-1.56,10.23-2.42-1.63-6.58-3.27-13.17-4.91-19.75-.75-2.89-1.51-5.77-2.26-8.66,5.95-1.51,11.85-3.22,17.72-5.13,.56,6.95,1.01,13.92,1.35,20.91,3.63,5.98,7.38,11.91,11.22,17.79Z"/><path class="cls-2" d="M0,172.72c10.2,3.31,20.52,6.11,30.92,8.39,.81-3.71,1.63-7.42,2.44-11.13-3.42-.75-6.83-1.56-10.23-2.42,1.63-6.58,3.27-13.17,4.91-19.75,.75-2.89,1.51-5.77,2.26-8.66-5.95-1.51-11.85-3.22-17.72-5.13-.56,6.95-1.01,13.92-1.35,20.91-3.63,5.98-7.38,11.91-11.22,17.79Z"/></g></g></svg>