<?xml version="1.0" encoding="UTF-8"?><svg id="Capa_1" xmlns="http://www.w3.org/2000/svg" viewBox="0 0 80.11 57.34"><defs><style>.cls-1{fill:#ba7414;}.cls-2{fill:none;}</style></defs><path class="cls-1" d="M32.59,15.8c-2.19-.89-4.4-1.53-6.7-1.89-2.11-.33-4.19-.78-6.33-.94-.67-.05-1.31-.04-1.97,.2-.86,.31-.98,.62-.35,1.32,.12,.14,.27,.28,.43,.36,1.68,.92,2.86,2.54,4.41,3.5,1.27,.78,2.07,2.3,3.73,2.49,.36,.04,.24,.52,.43,.73,.56,.61,1.2,1.18,1.99,1.41,.63,.19,1.1,.51,1.55,.98,.82,.88,2.03,1.23,2.77,2.34,.53,.81,1.7,1.21,2.28,2.11,.31,.47,.76,.73,1.25,.9,1.16,.4,2.31,.81,3.17,1.76-.5,.76-1.15,1.46-1.9,2.1-1.6,1.36-3.1,2.81-4.31,4.55-.99,1.42-2.27,2.4-4.09,2.69-.75,.12-1.11,1.14-1.92,1.47-1.02,.4-1.97,.95-2.96,1.44-.54,.27-1.09,.11-1.6-.06-.51,1.09,.29,1.55,.95,2.08-.35,.64-1.64,.16-1.47,1.3,.14,.93,1.13,.84,1.66,1.38-.17,.37-.85,.07-.81,.56,.04,.45,.54,.43,.83,.64,.69,.5,1.47,.72,2.29,.84,1,.14,1.74,.69,2.37,1.42,.32,.37,.71,.35,1.12,.32,1.01-.06,2.02-.13,3.02-.18,.41-.02,.82-.03,1.17-.31,1.84-1.5,3.92-2.8,4.72-5.24,.14-.41,.5-.55,.83-.69,1.11-.46,1.88-1.17,2.02-2.43,.05-.42,.42-.62,.72-.82,2.27-1.48,4.33-3.29,6.81-4.47,3.26-1.55,5.07-4.18,6.07-7.62,.69-2.35,1.8-4.6,3.59-6.41,.78-.8,1.8-1.05,2.83-1.25,3.36-.66,6.74-1.02,10.14-.3,.42,.09,.88,.16,1.37-.06-.16-.58-.7-.62-1.1-.78-2.34-.93-4.83-.99-7.29-1.11-1.27-.06-2.56-.14-3.82,.02-1.64,.21-3.05-.3-4.53-.87-2.68-1.04-6.57-.21-7.87,3.17-.38-.19-.35-.59-.43-.91-.62-2.45-1.85-4.5-3.59-6.35-3.95-4.19-8.48-7.57-13.61-10.16-.28-.14-.6-.46-.91-.16-.32,.31-.63,.7-.41,1.2,.7,1.52,.83,3.23,1.76,4.68,.96,1.49,.96,3.36,1.67,5.04Z"/><rect class="cls-2" width="80.11" height="57.34"/></svg>