<?xml version="1.0" encoding="UTF-8"?><svg id="Capa_1" xmlns="http://www.w3.org/2000/svg" viewBox="0 0 81.13 54.84"><defs><style>.cls-1{fill:#ba7414;}.cls-2{fill:none;}.cls-3{fill:#ffcd1f;}</style></defs><g><path class="cls-1" d="M60.32,22.94s-5.34-12.79-19.27-12.79-22.28,11.78-22.28,11.78l-14.49,15.24s12.7-3.58,20.93,1.43c8.23,5.01,10.01,10.39,10.01,10.39,0,0,2.94-9.02,11.17-14.48,8.22-5.46,12.95-6.99,12.95-6.99l.98-4.58Z"/><path class="cls-3" d="M77.25,27.42c-.57-.16-17.82-5.9-17.82-5.9l-2.27,3.73,20.09,2.17Z"/><polygon class="cls-3" points="76.83 28.04 57.82 28.1 57.15 25.25 76.83 28.04"/><g><path class="cls-3" d="M52.92,19.99c0,1.37-1.16,2.48-2.59,2.48s-2.59-1.11-2.59-2.48,1.16-2.48,2.59-2.48,2.59,1.11,2.59,2.48"/><path class="cls-1" d="M51.58,20.34c0,.76-.62,1.38-1.39,1.38s-1.39-.62-1.39-1.38,.62-1.38,1.39-1.38,1.39,.62,1.39,1.38"/></g></g><rect class="cls-2" width="81.13" height="54.84"/></svg>