<?xml version="1.0" encoding="UTF-8"?><svg id="Objects" xmlns="http://www.w3.org/2000/svg" viewBox="0 0 314.27 383.16"><defs><style>.cls-1{fill:#fec24d;}.cls-2{fill:#00d0ce;}.cls-3{fill:#fea54d;}.cls-4{fill:#009db3;}.cls-5{fill:#fee566;}</style></defs><path class="cls-4" d="M314.27,0c-15.23,16.97-30.43,33.97-45.69,50.92-18.43,20.47-36.9,40.91-55.35,61.36-1.1,.99-2.46,1.11-3.84,1.11-16.48,.03-32.97,.11-49.45-.04-.5,0-.99-.09-1.46-.19-.43-.09-.83-.26-1.2-.49-1.5-1.52-1.1-3.48-1.11-5.3-.04-15.08-.02-30.15-.03-45.23,0-.84,.26-1.71-.21-2.61-1.38,.45-2.09,1.67-3.01,2.6-15.62,15.57-31.2,31.18-46.81,46.76-1.23,1.23-2.33,2.61-3.9,3.45-.4,.17-.77,.13-1.12-.12C67.39,74.81,33.69,37.41,0,0c33.92,0,67.84,0,101.76,0,1.68,.86,3.03,2.13,4.35,3.46,15.92,15.95,31.86,31.88,47.8,47.81,3.2,3.2,3.23,3.2,6.43,0,15.94-15.93,31.88-31.86,47.8-47.81,1.32-1.33,2.67-2.6,4.35-3.46,33.92,0,67.84,0,101.76,0Z"/><path class="cls-1" d="M157.14,382.95c-28.15,.05-53.42-8.62-75.5-25.91-25.49-19.95-41.36-46.1-46.29-78.09-8.36-54.35,16.51-103.7,64.73-130.2,.33-.18,.63-.4,.94-.6,.67-1.28,1.77-2.02,3.05-2.6,13.22-6.04,26.95-10.14,41.51-11.23,3.81-.29,7.61-1.4,11.42-.02,.37,.27,.64,.62,.82,1.04,.7,7.02,.8,14.03-.03,21.04-.8,1.63-2.36,1.63-3.85,1.71-13.32,.7-26.12,3.52-38.26,9.18-20.2,9.41-35.65,23.87-46.32,43.42-8.87,16.25-12.93,33.68-12.18,52.11,.89,22.07,8.23,41.91,22.05,59.2,12.97,16.22,29.53,27.27,49.36,33.43,8.02,2.49,16.27,3.59,24.61,4.22,1.7,.13,3.58-.19,4.6,1.76,1.02,6.39,.42,12.81,.36,19.22,0,.88-.35,1.69-1.01,2.32Z"/><path class="cls-3" d="M157.14,382.95c0-7.44,0-14.88-.01-22.32,.14-.14,.28-.28,.42-.41,4.24-1.19,8.63-.53,12.96-1.2,21.45-3.33,40.05-12.16,55.76-27.29,18-17.35,28.27-38.48,30.63-63.15,2.03-21.2-2.02-41.42-12.95-59.99-13.46-22.89-32.77-38.49-58.14-46.43-7.87-2.46-15.94-3.96-24.23-4.04-1.36-.01-2.75,.12-4.03-.55-.14-.14-.28-.28-.41-.42,0-7.48,.02-14.95,.03-22.43,1.8-1.62,4.01-1.14,6.04-1,16.49,1.12,32.38,4.63,47.23,12.17,1.13,.57,2.2,1.13,2.86,2.26,33.98,18.42,56.05,46.18,64.34,84.04,8.34,38.09,.17,72.91-23.7,103.69-19.16,24.69-44.58,39.64-75.26,45.47-7.06,1.34-14.27,2.27-21.53,1.63Z"/><path class="cls-1" d="M213.29,148.13c-11.02-5.16-22.32-9.55-34.39-11.52-7.19-1.17-14.42-2.14-21.74-1.91l-.04-.04c-.6-.66-.97-1.45-1.01-2.33-.27-5.91-.26-11.82,0-17.72,.04-.87,.33-1.69,1.02-2.31,18.71,0,37.42-.01,56.12-.02,.02,11.95,.04,23.9,.06,35.86Z"/><path class="cls-5" d="M157.11,112.29c0,7.45,0,14.91,0,22.36-19.76,.08-38.42,4.7-56.09,13.49,.02-11.97,.04-23.95,.06-35.92,.21-.04,.42-.09,.64-.14,1.72-.81,3.53-1.08,5.42-1.08,15.02,.02,30.04,0,45.06,.02,1.73,0,3.5-.08,4.97,1.13l-.06,.14Z"/><path class="cls-2" d="M157.17,112.15c-18.48-.03-36.97-.05-55.45-.08,16.68-16.76,33.37-33.51,50.03-50.28,1.55-1.56,2.95-3.25,4.42-4.88l1,.56v54.68Z"/><path class="cls-5" d="M157.13,360.62c-55.05,.01-102.72-45.38-100.96-105.11,1.58-53.53,44.96-98.11,100.96-98.39h0c1.15,1.22,.99,2.77,.99,4.25,.02,7.98,0,15.96,.02,23.94,0,2.29-.45,4.43-1.52,6.48-5.99,11.5-11.36,23.3-17.03,34.96-1.68,3.44-4.02,4.94-7.71,5.46-12.46,1.76-24.91,3.61-37.38,5.35-.48,.07-1,.11-1.43,.77,.88,1.57,2.32,2.78,3.71,3.95,8.69,7.33,16.15,15.92,24.41,23.69,2.75,2.59,3.46,5.37,2.77,9.06-2.39,12.73-4.54,25.51-6.77,38.98,5.4-3.29,10.74-5.51,15.77-8.36,6.4-3.63,13.08-6.72,19.49-10.33,1.47-.83,2.98-1.93,4.9-1.3,.3,.36,.5,.75,.64,1.19,.26,.85,.33,1.72,.33,2.59,.07,19.54,.04,39.08,0,58.61,0,1.5-.09,3-1.18,4.21h0Z"/><path class="cls-1" d="M157.13,294.05c-13.52,7.09-27.04,14.19-41.19,21.61,.9-5.71,1.65-10.87,2.55-16.01,1.59-9,3.27-17.99,4.93-26.98,.41-2.24-.66-3.71-2.17-5.21-10.01-9.87-19.71-20.05-30.51-29.42,2.69-2.39,5.87-1.74,8.59-2.19,11.09-1.82,22.26-3.17,33.39-4.7,2.58-.35,4.37-1.42,5.61-4.04,5.79-12.25,11.82-24.38,17.83-36.52,.81-1.64,.99-3.28,.99-5.05-.03-9.47-.02-18.93-.02-28.4,52.83-1.37,104.52,45.23,101.1,107.92-2.73,50-45.28,96.19-101.1,95.58,0-22.19,0-44.39,0-66.58,1.92-.66,3.38,.55,4.87,1.32,10.29,5.31,20.42,10.93,30.8,16.09,1.09,.54,2.07,1.41,3.87,1.35-.29-4.47-1.22-8.82-2.02-13.15-1.55-8.46-2.77-16.97-4.37-25.41-.62-3.3,.16-5.77,2.56-8.05,8.04-7.63,15.37-15.98,23.84-23.17,1.58-1.34,3.27-2.67,4.33-4.83-1.98-1.12-4.16-.95-6.18-1.27-10.95-1.72-21.92-3.36-32.91-4.76-3.42-.44-5.56-2.01-7.13-5.13-5.56-11.01-10.39-22.37-16.52-33.76-.18,1.58-.09,2.73-.09,3.86,0,30.4,0,60.8-.03,91.19,0,1.94,.48,4.03-1.02,5.73Z"/><path class="cls-3" d="M157.13,294.05v-103.55c1.82,.64,1.96,2.02,2.47,3.05,5.5,11.16,11.05,22.3,16.35,33.56,1.24,2.64,3.07,3.67,5.63,4.03,12.85,1.78,25.71,3.54,38.55,5.34,1.05,.15,2.05,.61,3.44,1.04-3.37,3.8-7,6.76-10.42,9.97-6.08,5.71-11.59,12.05-17.86,17.54-3.91,3.43-4.63,6.91-3.71,11.71,2.3,11.89,4.18,23.85,6.27,35.78,.13,.72,.64,1.5-.05,2.07-.86,.71-1.55-.07-2.32-.48-12.77-6.71-25.57-13.38-38.35-20.07h0Z"/></svg>