<?xml version="1.0" encoding="UTF-8"?><svg id="Capa_1" xmlns="http://www.w3.org/2000/svg" viewBox="0 0 80.11 57.34"><defs><style>.cls-1{fill:#ba7414;}.cls-2{fill:none;}</style></defs><path class="cls-1" d="M42.04,47.14q-.37-1.68-1.43-1.19c-.14-.63,.89-1.07,.45-1.56-.5-.56-1.29-.09-1.94,.03-1.17,.22-2.22,.75-3.29,1.26-5.28,2.52-10.49,5.24-16.22,6.64-1.01,.25-2.02,.55-3.09,.37-.54-.09-1.12-.21-1.33-.79-.22-.61,.2-1.04,.61-1.41,.51-.45,1.07-.84,1.59-1.27,.84-.69,1.7-1.36,2.51-2.08,.27-.24,.74-.57,.46-.99-.22-.33-.67-.06-1.01,0-1.38,.3-2.76,.56-4.18,.38-.82-.1-1.61-.3-2.31-.75-1.03-.66-1.07-1.27-.06-1.98,1.34-.95,2.89-1.51,4.35-2.25,.73-.37,1.48-.7,2.2-1.09,.61-.33,1.58-.51,.56-1.54-.36-.36,.19-.79,.4-1.18,1.18-2.14,3.37-2.93,5.34-4,1.44-.78,2.91-1.49,3.95-2.82,.25-.32,.66-.63,.51-1.06-.46-1.35,.42-1.89,1.37-2.41,.4-.22,.8-.43,1.21-.63,.76-.38,1.12-.72,.35-1.58-.72-.81-.28-1.67,.71-1.84,3.29-.54,5.91-2.75,9.11-3.5,1.28-.3,2.03-1.3,2.71-2.35,1.26-1.94,2.3-4.02,3.83-5.78,.93-1.07,1.95-2.03,3.11-2.84,2.96-2.06,6.14-1.28,9.2-.49,1.37,.35,1.97,1.83,1.97,3.3,0,2-.11,3.99,.09,5.99,.04,.35,.02,.75-.1,1.07-1.44,4.04-1.92,8.28-2.64,12.47-.17,.99-.54,1.92-.97,2.83-.11,.24-.25,.6-.45,.65-1.89,.53-2.65,2.66-4.48,3.18-1.35,.39-2.09,1.83-3.44,1.98-.91,.1-1.69,.27-2.34,.87-.53,.5-1.63,.77-1.36,1.65,.35,1.12,.75,2.39,2.26,2.62,.67,.1,1.34,.28,1.86,.78,.26,.26,.56,.58,.39,.95-.19,.42-.62,.28-.97,.2-.31-.07-.6-.2-.91-.29-.22-.06-.46-.15-.67-.11-2.4,.48-2.5,.46-5.03-.33-1.05-.33-2.14-.57-2.86,.86Z"/><rect class="cls-2" width="80.11" height="57.34"/></svg>