<?xml version="1.0" encoding="UTF-8"?><svg id="Capa_1" xmlns="http://www.w3.org/2000/svg" viewBox="0 0 81.13 54.84"><defs><style>.cls-1{fill:#ba7414;}.cls-2{fill:none;}.cls-3{fill:#ffcd1f;}</style></defs><g><g><path class="cls-3" d="M53.77,22.53s10.67,.95,16.23,4.86c10.76,7.58,11.13,14.78,11.13,14.78,0,0-2.42-8.48-12.53-14.02-6.11-3.35-15.02-3.33-15.02-3.33l-1.49,.76,1.68-3.06Z"/><path class="cls-3" d="M53.63,24.63c2.09,0,11.32,.91,16.97,5,9.91,7.17,9.91,12.56,9.91,12.56,0,0-4.91-9.2-12.33-12.62-7.42-3.42-15.05-2.62-15.05-2.62v-2.31h.5Z"/><path class="cls-1" d="M54.08,22.52s-5.15-12.34-18.6-12.34S13.99,21.55,13.99,21.55L0,36.26s12.26-3.45,20.2,1.38c7.94,4.83,9.66,10.02,9.66,10.02,0,0,2.84-8.7,10.78-13.98,7.93-5.27,12.49-6.75,12.49-6.75l.95-4.42Z"/><path class="cls-3" d="M54.08,22.52s-.44,.16-.84,.69c-.4,.53-.67,1.18-.68,1.28v.21s-.18,.26-.01,.79c.17,.53,.59,1.45,.59,1.45l.83-.67s.1-1.82,.12-1.96c.02-.14,0-1.78,0-1.78"/></g><g><path class="cls-3" d="M47.06,19.11c0,1.09-.93,1.98-2.07,1.98s-2.07-.89-2.07-1.98,.93-1.98,2.07-1.98,2.07,.89,2.07,1.98"/><path class="cls-1" d="M45.99,19.39c0,.61-.5,1.1-1.11,1.1s-1.11-.49-1.11-1.1,.5-1.1,1.11-1.1,1.11,.49,1.11,1.1"/></g></g><rect class="cls-2" width="81.13" height="54.84"/></svg>