<?xml version="1.0" encoding="UTF-8"?><svg id="Capa_6" xmlns="http://www.w3.org/2000/svg" viewBox="0 0 25.55 21.9"><defs><style>.cls-1{fill:#dddad9;}</style></defs><path class="cls-1" d="M7.16,.41c1.16-.17,2.34-.29,3.51-.36,1.52-.08,3.02-.07,4.44,.05,1.54,.12,2.98,.37,4.28,.74,.68,.19,1.34,.42,1.96,.69,.28,.12,1.26,.71,1.49,.9,.41,.34,.79,.75,1.12,1.22,.3,.43,.57,.92,.79,1.47,.2,.5,.37,1.04,.5,1.64,.12,.55,.2,1.13,.25,1.76,.04,.56,.05,1.16,.03,1.78-.02,.57-.07,1.15-.15,1.75-.07,.54-.17,1.09-.29,1.63-.14,.62-.31,1.22-.5,1.8-.41,1.22-.92,2.23-1.56,3.08-.32,.43-.69,.82-1.09,1.17-.39,.34-.84,.65-1.34,.92-.48,.26-1.01,.47-1.61,.64-.29,.08-1.79,.34-1.98,.36-1.76,.19-3.54,.24-5.31,.24-1.99,0-4.68-.39-5.05-.47-.72-.17-1.42-.43-2.07-.76-.31-.16-.62-.35-.91-.56-.25-.18-.5-.39-.75-.63-.41-.4-.8-.88-1.13-1.43-.6-.97-1.04-2.12-1.35-3.52C.19,13.35,.04,12.05,0,10.55c-.03-1.17,0-7.72,3.16-9.17,.44-.2,.94-.35,1.57-.5,.61-.15,1.21-.26,1.78-.35,.22-.04,.44-.07,.66-.1"/></svg>