<?xml version="1.0" encoding="UTF-8"?><svg id="Capa_1" xmlns="http://www.w3.org/2000/svg" viewBox="0 0 65.18 64.87"><defs><style>.cls-1{fill:#ba7414;}.cls-2{fill:none;}</style></defs><g id="xjYhku"><g><path class="cls-1" d="M45.1,12.56c-1.75,.24-3.5,.43-5.24,.73-1.75,.3-3.42,.27-5.14-.35-2.91-1.05-6.15-.65-7.24,3.26-.06,.21-.16,.42-.27,.62-.5,.9-1.09,1.97-2.09,2.05-1.02,.08-1.25-1.19-1.55-1.96-1.66-4.19-5.51-6.46-8.29-9.67-1.03-1.19-2.24-2.23-3.66-2.97-.45-.24-.95-.6-1.37-.13-.41,.46-.37,1.11,.04,1.55,.51,.55,.82,.96-.02,1.46-.08,.05-.08,.42-.03,.45,1.37,.68-.13,1.99,.63,2.92,.22,.28-.43,1.24-1.39,.8-1.99-.92-4.02-1.75-6.16-2.27-.33-.08-.65-.23-.98-.25-.59-.03-1.38-.44-1.71,.19-.36,.69,.54,.96,.87,1.44,.71,1.04,1.43,2.1,1.94,3.25,.59,1.32,1.88,1.94,2.68,3.1,1.22,1.76,2.81,3.33,4.51,4.65,1.26,.97,2.59,1.87,3.83,2.88,1.61,1.31,1.62,1.44,.18,2.79-3.57,3.35-6.94,6.91-10.78,9.96-.32,.26-.97,.46-.75,.98,.26,.6,.94,.59,1.49,.43,3.07-.89,6.13-1.83,9.19-2.74,2.28-.68,4.44-1.46,6.96-1.52,3.54-.08,6.29-2.5,7.91-5.41,2.41-4.34,5.82-8.03,7.85-12.58,.48-1.08,1.33-1.75,2.56-1.97,2.03-.37,4.04-.82,6.06-1.24l-.03-.43Z"/><path class="cls-1" d="M60.16,54.45c-2.03-.84-3.4-2.31-4.32-4.3-.4-.88-.96-1.59-.49-2.65,.34-.76-.19-1.42-.71-1.95-.77-.8-1.28-1.72-1.48-2.79-.15-.81-.41-1.7,.92-1.91,.78-.13,.9-.85,.66-1.48-.42-1.08,.03-1.77,.73-2.54,1.1-1.2,1.72-2.6,1.53-4.32-.11-.97,.16-1.85,.86-2.64,1.53-1.74,1.31-3.09-.59-4.42-2.74-1.91-4.56-2.07-6.56-.61-.87,.63-1.31,1.52-1.67,2.48-.53,1.37-1.36,1.68-2.95,1.95-1.79,.3-3.2-.09-4.79-.35-.59-.1-1.27,.15-1.69,.64-.5,.59-1.13,.82-1.85,1.02-1.88,.53-2.16,2.31-2.63,3.81-.9,2.86-.65,3.22,2.22,4.24,.22,.08,.44,.21,.4,.46-.03,.19-.17,.41-.32,.54-.52,.45-1.16,.34-1.78,.34-1.81-.01-3.39,.38-4.02,2.35-.19,.59-.69,.67-1.16,.84-.56,.21-.77,.68-.63,1.23,.15,.6,.6,.67,1.19,.6,2.02-.22,3.72,1.04,5.63,1.38,.66,.12,.2,1.1,.18,1.66-.02,.41-.46,.84,.27,1.03,.45,.12,.81,.16,1.15-.35,2.85-4.2,7.28-4.92,11.41-1.9,1.35,.98,2.6,1.97,4.37,2.39,1.28,.31,1.6,2.16,2.53,3.49-3.11-.11-5.61-1.03-7.59-3.21-.38-.42-.74-.86-1.19-1.2-.48-.36-1.09-.84-1.63-.19-.49,.59-.33,1.27,.22,1.82,.88,.89,2.1,1.17,3.2,1.71-4.25-.01-8.46,.05-12.65,.52-.91,.1-1.93,.03-2.6-.54-2.02-1.71-4.46-1.55-7.31-1.85,2.61,2.01,5.26,2.53,8.05,2.76-.38,.66-1.1,.55-1.63,.8-.97,.46-2,.84-2.65,1.73-.43,.59-.83,1.33-.3,2.02,.48,.61,1.2,.44,1.88,.23,1.49-.46,2.67-1.44,3.86-2.38,3.58-2.8,4.16-2.99,8.88-2.67-2.55,.84-4.6,2.34-6.26,4.41-.71,.89-1.3,1.84-1.68,2.91-.1,.29-.46,.65-.11,.89,.22,.15,.65,.08,.96,0,3.38-.85,6.52-2.08,8.92-4.81,2.57-2.92,5.72-3.73,9.46-2.37,1.25,.45,2.46,1.13,3.84,1.17l-.02,.02Z"/><path class="cls-1" d="M60.18,54.42c-.29,.09,.84,.68-.26,.58-2.7-.25-5,.72-7,2.46,3.95,.78,7.62-1.11,11.73-.84-1.56-.85-2.78-1.96-4.49-2.18l.02-.02Z"/></g></g><rect class="cls-2" width="65.18" height="64.87"/></svg>