<?xml version="1.0" encoding="UTF-8"?><svg id="Capa_1" xmlns="http://www.w3.org/2000/svg" viewBox="0 0 65.18 64.87"><defs><style>.cls-1{fill:#ba7414;}.cls-2{fill:none;}</style></defs><path class="cls-1" d="M3.89,1.62v.72l1.47,1.45c.81,.8,1.55,1.57,1.67,1.71,.22,.27,2.96,2.5,5.76,4.67,3.99,3.1,4.4,3.44,5.21,4.27,.75,.76,.8,.82,1.08,1.38,.16,.32,.49,.87,.73,1.22,.5,.74,.96,1.63,1.45,2.8,.19,.46,.53,1.16,.75,1.55,.49,.87,.64,1.19,.93,2.01,.44,1.27,.63,1.7,1.24,2.7,.21,.35,.56,1,.77,1.45,.4,.84,1.81,3.23,2.19,3.7,.29,.36,.37,.64,.74,2.29,.2,.91,.42,1.87,.49,2.12,.14,.59,.11,.82-.17,1.26-.12,.18-.38,.62-.59,.98-.61,1.08-1.01,1.63-2.17,3.01-.38,.45-.61,.78-.64,.9-.04,.13-.03,.35,.03,.76,.05,.37,.08,1,.08,1.76,0,.88,.02,1.29,.08,1.61,.07,.37,.08,.51,.02,1.06-.05,.43-.05,.88-.03,1.4,.02,.43,.03,1.54,.03,2.48-.01,1.86-.03,1.99-.32,2.75-.14,.37-.21,.48-.54,.82-.5,.51-.76,1.02-.7,1.38,.11,.62,.04,.7-.88,.97-.81,.24-1.23,.41-1.43,.56-.18,.15-.37,.45-.37,.62,0,.11,.02,.13,.11,.11,.07-.02,.17-.07,.24-.12,.25-.17,.42-.21,1.78-.43,1.14-.19,1.43-.23,1.6-.23,.35,0,3.06,1.02,3.64,1.38,.39,.23,.5,.25,.54,.09,.06-.21-.25-.64-.59-.81-.11-.06-.54-.25-.95-.43-.41-.18-.79-.38-.84-.43-.1-.13-.11-.4-.03-.52,.05-.06,.36-.15,1.06-.29,.55-.11,1.21-.25,1.46-.31,.45-.1,.48-.1,.68-.02,.2,.08,.21,.08,.28-.01,.04-.05,.07-.12,.07-.16,0-.11-.41-.42-.6-.46-.25-.05-1.48,.07-2.41,.22-.49,.08-.86,.12-.97,.1-.21-.04-.43-.24-.48-.43-.05-.19,.07-1.19,.23-1.91,.12-.58,.13-.7,.13-2.02,0-.77-.03-2.74-.06-4.38-.04-1.84-.05-3.09-.02-3.26,.07-.44,.25-.85,.55-1.27,.15-.21,.47-.72,.72-1.12,.63-1.03,.54-.94,1.07-.98,.48-.04,.67-.11,.91-.34,.18-.19,.47-.37,.59-.37,.21,0,.25,.38,.17,1.55-.02,.34-.06,.69-.09,.78-.03,.09-.23,.44-.44,.76-.22,.33-.43,.65-.46,.72-.2,.38,.08,1.4,.96,3.49,.16,.39,.44,1.13,.62,1.63,.18,.5,.56,1.52,.85,2.27,.29,.74,.59,1.57,.67,1.83,.24,.75,.58,2.07,.64,2.49,.05,.33,.08,.39,.22,.51,.09,.08,.18,.21,.21,.3,.06,.18,0,.48-.11,.57-.04,.03-.54,.12-1.12,.2-1.17,.17-1.41,.25-1.74,.61-.24,.27-.34,.47-.38,.77-.03,.21-.02,.26,.06,.29,.07,.03,.13-.02,.26-.17,.19-.23,.33-.3,1.17-.55,1.01-.3,1.74-.33,2.14-.08,.2,.12,.47,.47,.73,.92,.23,.41,.41,.61,.83,.97,.82,.68,1.52,1.07,1.96,1.07,.3,0,.52-.13,.46-.27-.05-.13-.57-.51-1-.75-.49-.27-.92-.62-1-.82-.06-.14-.06-.15,.07-.18,.14-.04,.24,0,.87,.26,.43,.18,.92,.3,2,.48,.53,.09,1.02,.2,1.21,.29,.17,.07,.59,.17,.92,.23,.33,.06,.68,.13,.77,.15,.55,.15,.9-.1,.6-.43-.1-.11-.25-.16-1.13-.34-.79-.16-1.12-.26-1.47-.42-.47-.21-.65-.25-1.77-.37-.81-.08-1.15-.19-1.58-.52-.29-.22-.61-.64-.87-1.13-.06-.12-.15-.23-.2-.24-.24-.08-.39-.28-.78-1.09-.22-.47-.52-1.16-.66-1.53s-.41-1.1-.61-1.61c-.94-2.42-2.01-6.02-2.28-7.68-.1-.61-.05-.69,.93-1.66,.48-.48,.86-.81,.93-.82,.13-.02,.17,.01,1.93,1.34,1.79,1.35,1.96,1.46,4.2,2.71,1.86,1.03,2.47,1.44,3.36,2.2,.84,.72,2.14,1.44,3.24,1.79l.33,.1c.36,.03,.74,0,1.11-.02,.08-.05,.21-.05,.73-.03,.43,.03,.73,.06,.82,.11,.08,.04,.58,.45,1.12,.91l.99,.83,.19,.56c.6,1.72,.76,2.13,1.03,2.56,.16,.25,.34,.55,.4,.68,.21,.42,.88,1.64,1.34,2.44l.45,.78v.41c0,.37,.02,.44,.15,.65,.12,.18,.22,.27,.48,.4,.59,.29,1.12,.19,1.46-.26,.2-.28,.23-.48,.16-.93-.07-.43-.07-.39,0-.77,.1-.55,.21-2.38,.18-2.85-.05-.74-.38-3.85-.44-4.15-.08-.39-.03-.54,.28-.87,.42-.46,.84-1.15,1.15-1.85,0-.01,0-.02,0-.03,.08-.42,.31-.8,.35-1.23,0-.03,.01-.06,.02-.09-.01-.05,0-.11,.02-.16,1.01-2.28,.88-5.38-.71-7.37-.38-.47-.81-.77-1.35-1.04-.54-.27-1.1-.5-1.61-.81-.45-.28-.79-.61-.91-1.14-.14-.61-.09-1.26-.09-1.88-.01-1.39-.67-2.65-1.46-3.76-.87-1.22-1.91-2.29-2.82-3.47-.48-.62-.99-1.22-1.47-1.84-.49-.63-.96-1.27-1.46-1.9-.97-1.24-2.01-2.45-3.21-3.48-2.16-1.84-4.07-4.09-6.57-5.5l-.04-.02c.07,.19,.11,.28,.1,.29-.02,.02-.44-.25-1.99-1.26-.64-.41-1.56-.98-2.06-1.27-1.34-.76-3.97-2.04-4.66-2.28-.84-.29-1.15-.45-1.64-.91-1.25-1.16-2.61-2.18-5.23-3.93-3.05-2.03-4.81-3.12-6.8-4.2-.5-.28-1.07-.61-1.24-.74-.39-.3-.64-.34-.82-.12-.22,.28-.15,.42,.68,1.4,.82,.95,1.25,1.52,1.62,2.15,.21,.35,.7,1.17,1.11,1.83,.65,1.07,1.17,2.04,1.09,2.04-.11,0-2.74-1.74-4.54-3-1.83-1.28-2.53-1.72-5.33-3.33-.58-.33-1.64-.86-1.74-.86-.02,0-.03,.33-.03,.72Z"/><path class="cls-1" d="M54.2,59.18c.09-.09,.15-.05,.15,.12,0,.14-.06,.15-.15,.04-.06-.06-.06-.09,0-.15Z"/><path class="cls-1" d="M52.91,53.91c.12,0,2.3,4.59,2.23,4.68,0,0-.16-.06-.34-.14-.41-.19-.7-.2-.99-.03-.11,.07-.22,.13-.23,.13s-.06-.2-.09-.45c-.04-.24-.17-1.17-.31-2.05-.14-.88-.27-1.73-.29-1.88-.02-.18-.02-.27,.02-.27Z"/><path class="cls-1" d="M56.99,61.51c-.4,.19-.7,.79-.63,1.27,.05,.3,.27,.62,.59,.87,.31,.23,.52,.29,.88,.22,.4-.07,.64-.22,.82-.49,.3-.47,.34-.95,.1-1.37-.16-.28-.36-.45-.66-.56-.24-.09-.84-.06-1.09,.06Z"/><path class="cls-1" d="M57.62,62.32c0,.1-.03,.13-.12,.13-.15,0-.21-.08-.13-.18,.11-.13,.25-.1,.25,.05Z"/><path class="cls-1" d="M48.34,59.17c-.44,.22-.63,.48-.65,.92-.01,.18,0,.41,.04,.51,.18,.54,.91,.93,1.33,.71,.66-.34,.87-.85,.64-1.54-.1-.3-.28-.54-.51-.68-.22-.14-.46-.12-.84,.07Z"/><path class="cls-1" d="M48.59,59.94c0,.12-.09,.24-.16,.24-.07,0-.05-.17,.03-.27,.09-.12,.13-.11,.13,.03Z"/><rect class="cls-2" width="65.18" height="64.87"/></svg>