<?xml version="1.0" encoding="UTF-8"?>
<svg id="Capa_5" data-name="Capa 5" xmlns="http://www.w3.org/2000/svg" xmlns:xlink="http://www.w3.org/1999/xlink" viewBox="0 0 451.64 374.64">
  <defs>
    <style>
      .cls-1 {
        font-size: 13px;
      }

      .cls-1, .cls-2 {
        fill: #1d1d1b;
        font-family: MartelSans-DemiBold, 'Martel Sans';
      }

      .cls-3 {
        letter-spacing: .01em;
      }

      .cls-4 {
        letter-spacing: 0em;
      }

      .cls-5 {
        letter-spacing: 0em;
      }

      .cls-6 {
        fill: #b0cf6f;
        filter: url(#drop-shadow-1);
      }

      .cls-7 {
        fill: #ba7414;
      }

      .cls-8 {
        letter-spacing: 0em;
      }

      .cls-9 {
        letter-spacing: 0em;
      }

      .cls-10 {
        letter-spacing: 0em;
      }

      .cls-11 {
        fill: #dfecd1;
      }

      .cls-12 {
        letter-spacing: .01em;
      }

      .cls-13 {
        letter-spacing: 0em;
      }

      .cls-14 {
        letter-spacing: 0em;
      }

      .cls-15 {
        letter-spacing: 0em;
      }

      .cls-2 {
        font-size: 13.5px;
      }

      .cls-16 {
        letter-spacing: 0em;
      }

      .cls-17 {
        letter-spacing: 0em;
      }
    </style>
    <filter id="drop-shadow-1" filterUnits="userSpaceOnUse">
      <feOffset dx="3.45" dy="3.45"/>
      <feGaussianBlur result="blur" stdDeviation="2.57"/>
      <feFlood flood-color="#8a837f" flood-opacity=".35"/>
      <feComposite in2="blur" operator="in"/>
      <feComposite in="SourceGraphic"/>
    </filter>
  </defs>
  <path class="cls-11" d="M153.22,19.45c47.88,0,84.71-6.5,130.76-16.25,49.72-11.37,117.86,8.12,143.65,48.75,25.78,37.37,27.62,102.36,20.26,146.23-6.94,61.2-93.9,90.7-180.91,99.36-61.29,14.18-116.22,11.43-174.53-19.75C-54.89,199.81-19.9,25.95,153.22,19.45Z"/>
  <path class="cls-6" d="M159.16,299.02c.54-6.01,3.01-12.16,7.75-19.38,6.3-9.57,15.12-17.62,26.21-23.93,2.93-1.67,6.04-3.25,9.04-4.78,1.38-.7,2.76-1.41,4.13-2.12l.86-.45,2.26,1.52-.45,.48c-1.97,2.1-2.78,4.5-3.31,6.58-.78,3.03,.03,5.62,2.28,7.3,1.87,1.4,4.67,2.13,8.31,2.16,.5,0,1,0,1.5,0,5.57,0,11.19-.28,16.68-.84,9.1-.92,17.33-1.72,25.85-2.24,8.42-.5,16.97-.73,25.24-.95,7.75-.2,15.77-.41,23.63-.86,2.53-.14,5.04-.21,7.48-.21,7.91,0,15.51,.76,22.58,2.27,10.31,2.2,17.5,6.99,21.35,14.23,4.08,7.67,4.91,15.53,5.51,24.28,.61,8.86-.98,17.69-2.81,26.71-.55,2.73-1.23,5.48-2.02,8.17-1.38,4.71-5.29,8.12-12.68,11.04-5.86,2.32-12.73,4.92-20.17,6.47l-1.53,.32c-5.68,1.19-11.56,2.42-17.5,3.33-7.06,1.09-14.37,2.21-21.86,2.89-2.32,.21-4.69,.47-6.97,.72-5.08,.55-10.34,1.12-15.61,1.27-3.02,.08-6.09,.13-9.11,.13-8.54,0-17.2-.34-25.73-1.01-2.56-.2-5.21-.24-7.79-.29-1.78-.03-3.62-.06-5.44-.14l-2.16-.09c-7.91-.34-16.1-.7-23.89-2.45-3.36-.75-6.84-1.7-10.64-2.9-3.03-.95-4.71-2.71-6.34-4.41-.33-.34-.66-.69-.99-1.02-4.45-4.38-7.74-9.56-10.06-15.84-3.81-10.3-4.92-21.39-3.6-35.98Z"/>
  <text class="cls-2" transform="translate(166.37 299.49)"><tspan class="cls-17" x="0" y="0">El tono del canto, puede </tspan><tspan class="cls-9" x="0" y="16.2">ayudar a aproximar el tamaño </tspan><tspan x="0" y="32.4">que tiene el ave. </tspan></text>
  <text class="cls-1"><tspan class="cls-3" x="320.65" y="121.15">cantos agudos</tspan></text>
  <path class="cls-7" d="M375.28,106.1c-.84,.13-1.32-.92-2.14-.56-.07,.27,.14,.34,.22,.48,.11,.2,.48,.32,.25,.65-.26,.37-.67,.06-.76-.04-.36-.38-.66-.3-1.14-.23-1.41,.2-2.85,.1-4.28,.04-1.66-.07-3.32-.18-4.99-.27-1.12-.06-2.28,.09-3.23-.8-.33-.3-.83-.12-1,.3-.15,.38-.42,.37-.6,.24-.3-.22,.04-.39,.17-.54,.53-.64,1.23-.82,1.97-.54,.97,.37,1.95,.23,2.99,.24-.11-.69-.63-1.08-.95-1.58-.71-1.1-1.56-2.1-2.05-3.34-.34-.86-1.18-1.32-1.81-1.93-.5-.48-.7-.97-.62-1.63,.04-.31,.04-.63,.05-.95,.01-.75-.41-.57-.76-.4-2.07,1-4.24,1.71-6.5,2.08-2.88,.46-5.36,1.78-7.78,3.31-1.54,.98-3.14,1.86-4.73,2.77-.33,.19-.98,.23-1-.02-.05-.51-.67-1.07,.14-1.62,1.59-1.07,3.11-2.26,4.62-3.48-1.52,.62-3.14,1-4.52,1.92-.77,.51-1.71,.63-2.49,1.12-.16,.1-.28,0-.38-.1-.12-.13-.08-.23,.01-.37,1.87-2.84,4.34-5.04,7.31-6.65,2.28-1.24,3.95-3.04,5.33-5.16,1.31-2.02,3.11-3.58,4.91-5.12,.88-.76,1.84-1.42,2.73-2.17,.89-.75,1.61-1.65,2.24-2.66,1-1.6,2.46-2.78,3.99-3.85,2.36-1.65,4.67-3.42,7.35-4.52,1.5-.61,2.34-1.61,3.11-2.99,1.46-2.63,3.51-4.76,6.58-5.5,1.64-.4,3.26-.21,4.84,.56,1.17,.58,1.97,1.58,3.03,2.27,.61,.4,1.26,.57,1.99,.57,1.63,.02,3.46,1.02,3.99,2.17-1.28,.39-2.62,.64-3.9,.58-1.99-.08-3.08,1.22-4.45,2.23-1.62,1.2-.75,2.62-.59,3.98,.39,3.44-.32,6.57-2.45,9.36-2.42,3.16-5.36,5.76-8.61,8.02-1.09,.76-2.29,1.37-3.49,1.95-.5,.24-.73,.65-1.03,1.02-.93,1.16-1.52,2.52-2.24,3.8-.14,.26-.21,.61,0,.97,1.14,1.96,2.72,3.6,3.96,5.49,.05,.07,.11,.19,.16,.19,1.11,0,2.28,.32,3.31-.14,1.39-.62,2.38-.47,3.25,.85Z"/>
  <g id="TmTRng">
    <path class="cls-7" d="M266.19,139.12h4.7c.85,.22,1.73,.36,2.54,.68,3.56,1.41,6.73,3.26,7.78,7.34,.04,.17,.15,.34,.27,.46,1.4,1.25,2.33,2.82,3.07,4.51v2.24c-.49,1.1-.96,2.22-2.26,2.95,.15-.67,.25-1.18,.38-1.67,.08-.29,.11-.55-.23-.62-.96-.19-1.62-.88-2.42-1.35-1.3-.77-2.55-.96-3.77,.13-.14,.12-.28,.28-.45,.31-1.25,.24-1.74,1.14-1.99,2.25-.22,.94-.29,1.91-.65,2.84-.22,.56-.82,.52-1.01,1.1-.62,1.93-1.71,3.69-2.2,5.68-.18,.74-.48,1.45-.82,2.45l-.1-1.72c-.97,1.87-1.8,3.53-2.83,5.07-.5,.74-.87,1.51-1.19,2.35-.79,2.12-1.62,4.24-2.92,6.12-1.12,1.61-2.39,3.05-4.29,3.77-1.57,.6-2.84,1.62-3.92,2.88-1.07,1.25-1.92,2.73-3.17,3.74-1.19,.97-1.44,2.09-1.45,3.4,0,.85,.08,1.72,.23,2.55,.52,2.95,.66,5.89,.09,8.85-.03,.17-.08,.41-.2,.49-.81,.5-.47,1.11-.19,1.72,.3,.64,.58,1.28,.93,1.9,.36,.66,.9,1.07,1.71,1.05,1.47-.04,2.93,.09,4.34-.6,1.48-.72,2.91-.28,3.85,1.03-.87-.07-1.68,0-2.46,.27-.23,.08-.69,.11-.47,.56,.13,.26,.19,.83,.6,.65,.63-.27,1.22,.02,1.84-.05,1.16-.13,2.38-.26,3.54,.14,1.05,.36,1.51,1.1,1.38,2.24-1.11-.99-1.84-1.37-2.6-1.34-.2,0-.5-.1-.54,.21-.02,.15,.12,.33,.19,.49,.1,.23,.7,.16,.43,.59-.19,.31-.53,.25-.9,.18-.45-.08-1.11-.14-1.37,.11-.39,.38-.57,.17-.88,.03-.78-.35-1.54-.75-2.4-.13-.19,.14-.58,.07-.87,.03-.66-.08-1.32-.21-1.98-.29-1.53-.18-1.88,.15-1.91,1.71,0,.31,0,.62,0,.93l-.47,.31c-.71-.87-1.41-1.74-2.12-2.61-.15-.19-.35-.28-.59-.26-2.39,.23-4.5-1.27-6.89-1.11-.46,.03-1.12-.09-.75-.94,.2-.45-.18-.53-.54-.62-.93-.24-1.79,.02-2.64,.38,.98-1.57,2.47-1.79,4.09-1.6,1.42,.17,2.82,.13,4.23-.06,.27-.04,.56-.05,.51-.42-.16-1.21-.19-2.48-1-3.49-.55-.67-1.26-.52-1.47,.33-.15,.59-.35,.87-.98,.67-.4-.13-.59,.19-.82,.44-.29,.32-.38,.81-.83,1-.2-.5,.15-.95,.09-1.44-2.03,.87-1.29-1.29-2.09-1.8-.22,.44-.15,.96-.25,1.45-.22,1.09-1.05,1.8-1.86,2.41-.72,.55-.73-.63-1.23-.75-.04,0-.08,0-.11-.03-1-1.06-2.24-.28-3.36-.44-.74-.11-1.35,.11-1.93,.64-.9,.82-2.27,.81-3.11-.05-.65-.67-1.04-.21-1.49,.18-.35,.3-.28,.82-.53,1.2-.75-1.44-.21-2.78,1.24-3.16,.68-.18,1.37-.33,2.05-.48,.22-.05,.55-.12,.43-.36-.17-.36,.33-.85-.09-1.02-1.03-.41-1.6-1.02-1.42-2.18,.02-.13-.18-.3-.3-.44-.14-.17-.57-.17-.33-.56,.26-.41,.56-.21,.87-.07,.96,.44,1.13,1.59,2,2.19,.42-1.17,.7-2.36,.7-3.59,0-.39,.12-.87-.44-1.14-.88-.41-1.23-1.33-1.56-2.14-.1-.26-.02-.62-.38-.69-.48-.1-.31,.49-.55,.65-.39,0-.09-.7-.48-.51-.48,.24-.68,.15-.83-.39-.79,.96-1.64,1.79-2.84,2.11-.69,.18-1.45,.18-1.49-.76-.04-.77-.13-1.56,.37-2.33,.49-.75,.76-1.65,1.22-2.7-3.74,1.07-7.63,.63-11.03,2.98,.29-.69,.87-.74,.99-1.32-1.18,.34-2.43,.18-3.48,.82-.99,.6-2.07,.79-3.11,.51-1.52-.41-2.91-.34-4.28,.41-.03,.02-.11-.06-.19-.1,.32-.65,.97-.97,1.52-1.41-.67-.55-1.26-.48-1.92-.16-1.71,.82-3.57,1.12-5.49,1.44,3.13-.54,4.43-2.59,4.73-5.52l-5.82,2.01-.06-.16,2.4-1.47-.06-.13-5.9,1.65-.06-.14,2.59-2.06c-.42-.04-.75,.07-1.08,.21-3.42,1.44-6.84,2.88-10.26,4.32-.53,.22-1.06,.45-1.66,.09,.38-.68,1.14-1.02,1.29-1.87-1,.29-1.9,.66-2.84,.8-.62,.09-1.61,.18-1.48-.9,.08-.65-.2-.67-.6-.72-.44-.05-.89-.05-1.34-.06q-1.37-.02-1.07-1.32l-.65,.2c0-.07,0-.15,0-.22,1.02-.74,2.06-1.45,3.04-2.24,.41-.33,1.42-.32,.86-1.4-.16-.3,.34-.95,.59-1.59l-3.66,1.68c1.89-1.76,3.92-3.29,5.51-5.28,.29-.36,.68-.59,1.11-.73,1.03-.35,1.98-.73,2.52-1.81,.19-.39,.69-.68,1.12-.87,1.47-.66,2.81-1.44,3.6-2.95,.4-.77,1.16-1.23,1.83-1.78,1.89-1.54,4.37-2.12,6.21-3.67,1.29-1.09,2.78-1.39,4.28-1.8,.36-.1,.71-.25,1.07-.29,.65-.08,1.03-.41,1.34-1,.47-.9,1.19-1.66,2.15-2.03,1.09-.42,2.04-1.05,3.04-1.62,1.58-.9,3.19-1.77,4.94-2.29,3.48-1.03,6.94-2.13,10.3-3.49,2.32-.94,4.85-1.03,7.17-1.97,3.35-1.36,6.89-1.32,10.43-1.15,.75,.04,1.37,.48,2.15,.5,4.01,.08,7.54-1.44,10.99-3.24,1.03-.53,1.74-1.27,1.93-2.52,.1-.67,.4-1.41,.85-1.9,.94-1.03,1.24-2.39,1.77-3.55,.74-1.62,2.3-2.09,3.31-3.27,.56-.65,1.7-.81,2.6-1.14,.3-.11,.43-.23,.34-.54Z"/>
  </g>
  <text class="cls-1"><tspan class="cls-3" x="180.95" y="229.05">cantos potentes</tspan></text>
  <text class="cls-1"><tspan class="cls-3" x="65.08" y="133.98">sonidos graves</tspan></text>
  <g id="P6Syqs.tif">
    <path class="cls-7" d="M125.6,114.37q-.6-2.71-2.32-1.92c-.22-1.01,1.43-1.73,.72-2.53-.81-.91-2.08-.15-3.13,.05-1.89,.36-3.58,1.21-5.31,2.03-8.53,4.07-16.93,8.46-26.2,10.72-1.63,.4-3.27,.89-4.99,.6-.87-.15-1.81-.34-2.15-1.28-.35-.98,.33-1.69,.98-2.27,.82-.73,1.72-1.36,2.57-2.05,1.36-1.11,2.75-2.19,4.06-3.37,.44-.39,1.19-.92,.74-1.6-.36-.54-1.08-.1-1.64,.02-2.23,.48-4.46,.91-6.76,.62-1.32-.17-2.6-.49-3.73-1.22-1.66-1.07-1.72-2.05-.1-3.2,2.17-1.53,4.67-2.43,7.02-3.64,1.17-.6,2.39-1.13,3.55-1.75,.99-.53,2.56-.83,.9-2.48-.59-.58,.31-1.28,.65-1.9,1.91-3.46,5.44-4.73,8.62-6.46,2.32-1.26,4.7-2.41,6.37-4.56,.4-.52,1.06-1.01,.83-1.7-.74-2.18,.69-3.05,2.21-3.88,.64-.35,1.29-.69,1.95-1.02,1.23-.62,1.81-1.16,.57-2.54-1.17-1.3-.44-2.7,1.14-2.96,5.31-.87,9.55-4.45,14.71-5.65,2.07-.48,3.27-2.1,4.37-3.79,2.04-3.13,3.71-6.49,6.18-9.33,1.5-1.72,3.14-3.27,5.02-4.58,4.78-3.33,9.91-2.06,14.85-.8,2.21,.56,3.19,2.96,3.18,5.33,0,3.22-.18,6.45,.15,9.67,.06,.57,.03,1.2-.16,1.74-2.33,6.52-3.1,13.37-4.27,20.14-.28,1.6-.87,3.1-1.57,4.56-.18,.39-.41,.96-.73,1.05-3.05,.86-4.27,4.29-7.24,5.14-2.18,.62-3.38,2.96-5.55,3.21-1.47,.17-2.72,.43-3.77,1.41-.86,.8-2.64,1.24-2.2,2.66,.56,1.81,1.2,3.85,3.65,4.24,1.08,.17,2.17,.45,3,1.26,.43,.42,.9,.93,.63,1.53-.3,.69-1.01,.45-1.56,.32-.5-.11-.97-.33-1.47-.46-.35-.1-.74-.25-1.07-.18-3.87,.78-4.04,.75-8.12-.53-1.7-.53-3.46-.92-4.62,1.39Z"/>
  </g>
</svg>