<?xml version="1.0" encoding="UTF-8"?><svg id="Capa_1" xmlns="http://www.w3.org/2000/svg" viewBox="0 0 81.13 54.84"><defs><style>.cls-1{fill:#ba7414;}.cls-2{fill:none;}.cls-3{fill:#ffcd1f;}</style></defs><g><path class="cls-1" d="M54.34,23.98s15.82-4.8,13.02-6.85c-2.8-2.05-7.17-4.1-7.17-4.1,0,0-6.89-9.59-17.41-9.59S23.13,7.45,17.17,15.55c-5.96,8.1-7.92,10.06-7.92,10.06,0,0,10.36,.51,19.39,6.65,9.03,6.15,19.9,19.14,19.9,19.14,0,0,0-5.03,3.17-10.52,3.17-5.5,6.15-8.29,6.15-8.29,0,0,4.94-1.68,8.94-3.63,4-1.96-12.46-4.98-12.46-4.98"/><path class="cls-3" d="M48.55,51.41s1.89-8.66,3.72-11.46c1.84-2.8,2.07-3.13,2.07-3.13,0,0-.13-.67-.92-2.11-.78-1.44-1.31-.9-1.31-4.01s2.68-3.37,.33-5.92c-2.35-2.55-4.44-8.04-13.46-5.36-9.02,2.68-5.62,2.48-9.8,3.59-4.18,1.11-18.27,.7-18.27,.7l-1.65,1.91s11.49,1.22,19.8,6.92c8.3,5.7,19.5,18.87,19.5,18.87"/><path class="cls-3" d="M61.54,13.7c.24,.12,.32,4.33-1.19,5.97-1.5,1.63-6.01,4.32-6.01,4.32l19.33-.85s-3.08-3.61-5.45-5.32c-2.37-1.71-6.67-4.12-6.67-4.12"/><path class="cls-3" d="M73.98,23.98h-19.63s1.37,.92,2.68,3.07c1.31,2.16,1.18,2.55-.59,4.18s1.65,1.28,1.83,1.22c.18-.06,6.66-2.34,9.04-3.74,2.38-1.4,6.68-4.73,6.68-4.73"/><path class="cls-1" d="M40.75,19.41c0,2.2,1.79,3.99,3.99,3.99s3.99-1.79,3.99-3.99-1.79-3.99-3.99-3.99-3.99,1.79-3.99,3.99"/><path class="cls-3" d="M42.46,19.93c0,1.44,1.23,2.62,2.74,2.62,1.51,0,2.74-1.17,2.74-2.62s-1.23-2.62-2.74-2.62-2.74,1.17-2.74,2.62"/><path class="cls-1" d="M43.88,20.3c0,.81,.66,1.46,1.47,1.46s1.47-.65,1.47-1.46c0-.81-.66-1.46-1.47-1.46-.81,0-1.47,.65-1.47,1.46"/></g><rect class="cls-2" width="81.13" height="54.84"/></svg>