<?xml version="1.0" encoding="UTF-8"?><svg id="Capa_5" xmlns="http://www.w3.org/2000/svg" xmlns:xlink="http://www.w3.org/1999/xlink" viewBox="0 0 451.64 367.41"><defs><style>.cls-1{font-size:13px;}.cls-1,.cls-2,.cls-3{fill:#1d1d1b;}.cls-1,.cls-3{font-family:MartelSans-DemiBold, 'Martel Sans';}.cls-4{letter-spacing:0em;}.cls-5{fill:#b0cf6f;filter:url(#drop-shadow-1);}.cls-6{fill:#ba7414;}.cls-7{letter-spacing:0em;}.cls-8{letter-spacing:0em;}.cls-9{letter-spacing:0em;}.cls-10{fill:#dfecd1;}.cls-11{letter-spacing:.01em;}.cls-12{letter-spacing:0em;}.cls-2{font-family:MartelSans-Regular, 'Martel Sans';font-size:12px;}.cls-13{letter-spacing:.01em;}.cls-14{letter-spacing:0em;}.cls-15{letter-spacing:0em;}.cls-16{letter-spacing:0em;}.cls-3{font-size:13.5px;}.cls-17{letter-spacing:0em;}.cls-18{letter-spacing:0em;}.cls-19{fill:none;stroke:#1d1d1b;stroke-linecap:round;stroke-linejoin:round;stroke-width:.8px;}.cls-20{letter-spacing:0em;}.cls-21{letter-spacing:0em;}.cls-22{letter-spacing:0em;}.cls-23{letter-spacing:0em;}</style><filter id="drop-shadow-1" filterUnits="userSpaceOnUse"><feOffset dx="3.45" dy="3.45"/><feGaussianBlur result="blur" stdDeviation="2.57"/><feFlood flood-color="#8a837f" flood-opacity=".35"/><feComposite in2="blur" operator="in"/><feComposite in="SourceGraphic"/></filter></defs><path class="cls-10" d="M153.22,19.45c47.88,0,84.71-6.5,130.76-16.25,49.72-11.37,117.86,8.12,143.65,48.75,25.78,37.37,27.62,102.36,20.26,146.23-6.94,61.2-93.9,90.7-180.91,99.36-61.29,14.18-116.22,11.43-174.53-19.75C-54.89,199.81-19.9,25.95,153.22,19.45Z"/><path class="cls-5" d="M163.85,291.88c.54-6.01,3.01-12.16,7.75-19.38,6.3-9.57,15.12-17.62,26.21-23.93,2.93-1.67,6.04-3.25,9.04-4.78,1.38-.7,2.76-1.41,4.13-2.12l.86-.45,2.26,1.52-.45,.48c-1.97,2.1-2.78,4.5-3.31,6.58-.78,3.03,.03,5.62,2.28,7.3,1.87,1.4,4.67,2.13,8.31,2.16,.5,0,1,0,1.5,0,5.57,0,11.19-.28,16.68-.84,9.1-.92,17.33-1.72,25.85-2.24,8.42-.5,16.97-.73,25.24-.95,7.75-.2,15.77-.41,23.63-.86,2.53-.14,5.04-.21,7.48-.21,7.91,0,15.51,.76,22.58,2.27,10.31,2.2,17.5,6.99,21.35,14.23,4.08,7.67,4.91,15.53,5.51,24.28,.61,8.86-.98,17.69-2.81,26.71-.55,2.73-1.23,5.48-2.02,8.17-1.38,4.71-5.29,8.12-12.68,11.04-5.86,2.32-12.73,4.92-20.17,6.47l-1.53,.32c-5.68,1.19-11.56,2.42-17.5,3.33-7.06,1.09-14.37,2.21-21.86,2.89-2.32,.21-4.69,.47-6.97,.72-5.08,.55-10.34,1.12-15.61,1.27-3.02,.08-6.09,.13-9.11,.13-8.54,0-17.2-.34-25.73-1.01-2.56-.2-5.21-.24-7.79-.29-1.78-.03-3.62-.06-5.44-.14l-2.16-.09c-7.91-.34-16.1-.7-23.89-2.45-3.36-.75-6.84-1.7-10.64-2.9-3.03-.95-4.71-2.71-6.34-4.41-.33-.34-.66-.69-.99-1.02-4.45-4.38-7.74-9.56-10.06-15.84-3.81-10.3-4.92-21.39-3.6-35.98Z"/><text class="cls-3" transform="translate(182.8 292.91)"><tspan class="cls-20" x="0" y="0">S</tspan><tspan x="8.17" y="0">egún sus </tspan><tspan class="cls-13" x="69.43" y="0">c</tspan><tspan x="76.73" y="0">arac</tspan><tspan class="cls-9" x="104.93" y="0">t</tspan><tspan x="110.83" y="0">erísti</tspan><tspan class="cls-13" x="145.08" y="0">c</tspan><tspan class="cls-4" x="152.39" y="0">a</tspan><tspan x="160.04" y="0">s, </tspan><tspan x="0" y="16.2">los a</tspan><tspan class="cls-23" x="30.24" y="16.2">b</tspan><tspan x="38.76" y="16.2">orígenes le </tspan><tspan class="cls-4" x="113.79" y="16.2">a</tspan><tspan x="121.44" y="16.2">signa</tspan><tspan class="cls-20" x="156.26" y="16.2">b</tspan><tspan x="164.82" y="16.2">an </tspan><tspan x="0" y="32.4">signifi</tspan><tspan class="cls-13" x="40.81" y="32.4">c</tspan><tspan x="48.11" y="32.4">ados espirituales.</tspan></text><path class="cls-6" d="M335.1,58.68c2.42-.98,4.86-1.69,7.39-2.09,2.32-.37,4.63-.86,6.98-1.03,.74-.05,1.45-.04,2.18,.22,.95,.35,1.09,.69,.38,1.46-.14,.15-.29,.3-.47,.4-1.86,1.02-3.16,2.81-4.87,3.86-1.4,.87-2.29,2.54-4.12,2.74-.39,.04-.27,.57-.48,.8-.62,.67-1.32,1.3-2.2,1.56-.7,.21-1.22,.56-1.71,1.08-.9,.97-2.24,1.35-3.05,2.58-.59,.89-1.87,1.33-2.52,2.33-.34,.52-.84,.81-1.38,1-1.28,.44-2.55,.89-3.5,1.94,.55,.84,1.27,1.62,2.1,2.32,1.76,1.5,3.42,3.1,4.76,5.03,1.09,1.57,2.51,2.65,4.51,2.97,.83,.13,1.22,1.26,2.12,1.62,1.12,.44,2.18,1.05,3.26,1.59,.6,.3,1.2,.12,1.77-.06,.57,1.2-.32,1.71-1.05,2.29,.39,.7,1.81,.17,1.62,1.44-.16,1.03-1.25,.92-1.83,1.52,.18,.41,.94,.07,.89,.62-.04,.5-.6,.48-.92,.7-.77,.55-1.63,.8-2.52,.93-1.11,.16-1.92,.76-2.62,1.56-.36,.41-.78,.38-1.24,.35-1.11-.07-2.23-.14-3.34-.2-.45-.03-.91-.03-1.29-.34-2.04-1.66-4.32-3.09-5.21-5.78-.15-.46-.55-.61-.92-.76-1.22-.5-2.07-1.3-2.23-2.68-.05-.47-.47-.69-.79-.9-2.51-1.64-4.78-3.63-7.51-4.93-3.6-1.71-5.59-4.61-6.71-8.41-.76-2.59-1.99-5.08-3.96-7.08-.87-.88-1.98-1.16-3.12-1.38-3.71-.73-7.43-1.12-11.2-.33-.46,.1-.97,.18-1.52-.07,.18-.64,.78-.69,1.22-.86,2.58-1.03,5.33-1.09,8.05-1.22,1.4-.07,2.83-.15,4.22,.02,1.81,.23,3.37-.33,5-.96,2.96-1.15,7.26-.23,8.69,3.5,.42-.21,.39-.65,.48-1,.68-2.7,2.04-4.97,3.97-7.01,4.36-4.63,9.36-8.35,15.02-11.21,.3-.15,.66-.51,1.01-.17,.35,.34,.7,.78,.45,1.32-.77,1.68-.92,3.57-1.95,5.17-1.06,1.65-1.06,3.71-1.84,5.56Z"/><text class="cls-1"><tspan class="cls-8" x="278.25" y="121.01">a</tspan><tspan class="cls-14" x="285.59" y="121.01">v</tspan><tspan class="cls-15" x="292.75" y="121.01">es </tspan><tspan class="cls-18" x="309.97" y="121.01">c</tspan><tspan x="316.96" y="121.01">olorid</tspan><tspan class="cls-17" x="354.5" y="121.01">a</tspan><tspan x="361.87" y="121.01">s</tspan></text><g id="P6Syqs.tif"><path class="cls-6" d="M131.58,109.63q-.57-2.71-2.3-1.95c-.21-1.01,1.45-1.71,.75-2.52-.8-.92-2.08-.17-3.13,.01-1.89,.34-3.6,1.17-5.34,1.98-8.57,3.98-17.02,8.27-26.31,10.44-1.64,.38-3.28,.85-4.99,.55-.87-.16-1.81-.36-2.14-1.3-.34-.99,.34-1.68,1.01-2.26,.83-.72,1.74-1.34,2.6-2.03,1.38-1.09,2.77-2.16,4.09-3.32,.44-.39,1.2-.91,.76-1.59-.35-.54-1.08-.12-1.64,0-2.23,.45-4.47,.86-6.76,.55-1.32-.18-2.6-.51-3.72-1.26-1.65-1.09-1.7-2.07-.06-3.2,2.18-1.51,4.7-2.38,7.06-3.56,1.18-.59,2.4-1.1,3.57-1.72,.99-.52,2.57-.8,.92-2.47-.58-.59,.32-1.27,.67-1.9,1.94-3.44,5.49-4.67,8.69-6.37,2.33-1.23,4.73-2.36,6.42-4.49,.41-.51,1.07-1,.85-1.7-.72-2.19,.72-3.04,2.25-3.86,.65-.35,1.3-.68,1.96-1,1.24-.6,1.82-1.14,.6-2.54-1.15-1.32-.42-2.71,1.17-2.95,5.32-.82,9.59-4.35,14.77-5.49,2.07-.46,3.29-2.06,4.41-3.74,2.07-3.1,3.78-6.45,6.28-9.27,1.52-1.71,3.18-3.24,5.07-4.53,4.82-3.28,9.93-1.95,14.86-.64,2.2,.59,3.15,2.99,3.12,5.37-.04,3.22-.25,6.44,.04,9.67,.05,.57,.02,1.2-.18,1.73-2.4,6.5-3.24,13.34-4.48,20.09-.29,1.6-.91,3.09-1.62,4.55-.19,.39-.42,.96-.74,1.04-3.06,.83-4.32,4.25-7.29,5.06-2.19,.6-3.41,2.92-5.59,3.15-1.47,.15-2.73,.4-3.79,1.37-.87,.79-2.65,1.21-2.23,2.64,.54,1.81,1.16,3.87,3.61,4.28,1.07,.18,2.16,.48,2.98,1.3,.42,.42,.89,.94,.62,1.54-.31,.68-1.01,.43-1.57,.31-.5-.11-.97-.34-1.46-.48-.35-.1-.74-.26-1.07-.19-3.88,.74-4.05,.7-8.11-.62-1.69-.55-3.45-.95-4.64,1.35Z"/></g><g><text></text><text class="cls-1" transform="translate(66.16 135.01) rotate(.61)"><tspan class="cls-8" x="0" y="0">a</tspan><tspan class="cls-14" x="7.35" y="0">v</tspan><tspan class="cls-15" x="14.51" y="0">es n</tspan><tspan class="cls-16" x="39.88" y="0">o</tspan><tspan class="cls-12" x="48.07" y="0">cturn</tspan><tspan class="cls-17" x="82.48" y="0">a</tspan><tspan x="89.85" y="0">s</tspan></text></g><g id="TmTRng"><path class="cls-6" d="M281.35,128.98h4.7c.85,.22,1.73,.36,2.54,.68,3.56,1.41,6.73,3.26,7.78,7.34,.04,.17,.15,.34,.27,.46,1.4,1.25,2.33,2.82,3.07,4.51v2.24c-.49,1.1-.96,2.22-2.26,2.95,.15-.67,.25-1.18,.38-1.67,.08-.29,.11-.55-.23-.62-.96-.19-1.62-.88-2.42-1.35-1.3-.77-2.55-.96-3.77,.13-.14,.12-.28,.28-.45,.31-1.25,.24-1.74,1.14-1.99,2.25-.22,.94-.29,1.91-.65,2.84-.22,.56-.82,.52-1.01,1.1-.62,1.93-1.71,3.69-2.2,5.68-.18,.74-.48,1.45-.82,2.45l-.1-1.72c-.97,1.87-1.8,3.53-2.83,5.07-.5,.74-.87,1.51-1.19,2.35-.79,2.12-1.62,4.24-2.92,6.12-1.12,1.61-2.39,3.05-4.29,3.77-1.57,.6-2.84,1.62-3.92,2.88-1.07,1.25-1.92,2.73-3.17,3.74-1.19,.97-1.44,2.09-1.45,3.4,0,.85,.08,1.72,.23,2.55,.52,2.95,.66,5.89,.09,8.85-.03,.17-.08,.41-.2,.49-.81,.5-.47,1.11-.19,1.72,.3,.64,.58,1.28,.93,1.9,.36,.66,.9,1.07,1.71,1.05,1.47-.04,2.93,.09,4.34-.6,1.48-.72,2.91-.28,3.85,1.03-.87-.07-1.68,0-2.46,.27-.23,.08-.69,.11-.47,.56,.13,.26,.19,.83,.6,.65,.63-.27,1.22,.02,1.84-.05,1.16-.13,2.38-.26,3.54,.14,1.05,.36,1.51,1.1,1.38,2.24-1.11-.99-1.84-1.37-2.6-1.34-.2,0-.5-.1-.54,.21-.02,.15,.12,.33,.19,.49,.1,.23,.7,.16,.43,.59-.19,.31-.53,.25-.9,.18-.45-.08-1.11-.14-1.37,.11-.39,.38-.57,.17-.88,.03-.78-.35-1.54-.75-2.4-.13-.19,.14-.58,.07-.87,.03-.66-.08-1.32-.21-1.98-.29-1.53-.18-1.88,.15-1.91,1.71,0,.31,0,.62,0,.93l-.47,.31c-.71-.87-1.41-1.74-2.12-2.61-.15-.19-.35-.28-.59-.26-2.39,.23-4.5-1.27-6.89-1.11-.46,.03-1.12-.09-.75-.94,.2-.45-.18-.53-.54-.62-.93-.24-1.79,.02-2.64,.38,.98-1.57,2.47-1.79,4.09-1.6,1.42,.17,2.82,.13,4.23-.06,.27-.04,.56-.05,.51-.42-.16-1.21-.19-2.48-1-3.49-.55-.67-1.26-.52-1.47,.33-.15,.59-.35,.87-.98,.67-.4-.13-.59,.19-.82,.44-.29,.32-.38,.81-.83,1-.2-.5,.15-.95,.09-1.44-2.03,.87-1.29-1.29-2.09-1.8-.22,.44-.15,.96-.25,1.45-.22,1.09-1.05,1.8-1.86,2.41-.72,.55-.73-.63-1.23-.75-.04,0-.08,0-.11-.03-1-1.06-2.24-.28-3.36-.44-.74-.11-1.35,.11-1.93,.64-.9,.82-2.27,.81-3.11-.05-.65-.67-1.04-.21-1.49,.18-.35,.3-.28,.82-.53,1.2-.75-1.44-.21-2.78,1.24-3.16,.68-.18,1.37-.33,2.05-.48,.22-.05,.55-.12,.43-.36-.17-.36,.33-.85-.09-1.02-1.03-.41-1.6-1.02-1.42-2.18,.02-.13-.18-.3-.3-.44-.14-.17-.57-.17-.33-.56,.26-.41,.56-.21,.87-.07,.96,.44,1.13,1.59,2,2.19,.42-1.17,.7-2.36,.7-3.59,0-.39,.12-.87-.44-1.14-.88-.41-1.23-1.33-1.56-2.14-.1-.26-.02-.62-.38-.69-.48-.1-.31,.49-.55,.65-.39,0-.09-.7-.48-.51-.48,.24-.68,.15-.83-.39-.79,.96-1.64,1.79-2.84,2.11-.69,.18-1.45,.18-1.49-.76-.04-.77-.13-1.56,.37-2.33,.49-.75,.76-1.65,1.22-2.7-3.74,1.07-7.63,.63-11.03,2.98,.29-.69,.87-.74,.99-1.32-1.18,.34-2.43,.18-3.48,.82-.99,.6-2.07,.79-3.11,.51-1.52-.41-2.91-.34-4.28,.41-.03,.02-.11-.06-.19-.1,.32-.65,.97-.97,1.52-1.41-.67-.55-1.26-.48-1.92-.16-1.71,.82-3.57,1.12-5.49,1.44,3.13-.54,4.43-2.59,4.73-5.52l-5.82,2.01-.06-.16,2.4-1.47-.06-.13-5.9,1.65-.06-.14,2.59-2.06c-.42-.04-.75,.07-1.08,.21-3.42,1.44-6.84,2.88-10.26,4.32-.53,.22-1.06,.45-1.66,.09,.38-.68,1.14-1.02,1.29-1.87-1,.29-1.9,.66-2.84,.8-.62,.09-1.61,.18-1.48-.9,.08-.65-.2-.67-.6-.72-.44-.05-.89-.05-1.34-.06q-1.37-.02-1.07-1.32l-.65,.2c0-.07,0-.15,0-.22,1.02-.74,2.06-1.45,3.04-2.24,.41-.33,1.42-.32,.86-1.4-.16-.3,.34-.95,.59-1.59l-3.66,1.68c1.89-1.76,3.92-3.29,5.51-5.28,.29-.36,.68-.59,1.11-.73,1.03-.35,1.98-.73,2.52-1.81,.19-.39,.69-.68,1.12-.87,1.47-.66,2.81-1.44,3.6-2.95,.4-.77,1.16-1.23,1.83-1.78,1.89-1.54,4.37-2.12,6.21-3.67,1.29-1.09,2.78-1.39,4.28-1.8,.36-.1,.71-.25,1.07-.29,.65-.08,1.03-.41,1.34-1,.47-.9,1.19-1.66,2.15-2.03,1.09-.42,2.04-1.05,3.04-1.62,1.58-.9,3.19-1.77,4.94-2.29,3.48-1.03,6.94-2.13,10.3-3.49,2.32-.94,4.85-1.03,7.17-1.97,3.35-1.36,6.89-1.32,10.43-1.15,.75,.04,1.37,.48,2.15,.5,4.01,.08,7.54-1.44,10.99-3.24,1.03-.53,1.74-1.27,1.93-2.52,.1-.67,.4-1.41,.85-1.9,.94-1.03,1.24-2.39,1.77-3.55,.74-1.62,2.3-2.09,3.31-3.27,.56-.65,1.7-.81,2.6-1.14,.3-.11,.43-.23,.34-.54Z"/></g><text class="cls-1"><tspan class="cls-8" x="196.7" y="221.54">a</tspan><tspan class="cls-14" x="204.04" y="221.54">v</tspan><tspan class="cls-15" x="211.21" y="221.54">es ra</tspan><tspan class="cls-18" x="241.28" y="221.54">p</tspan><tspan class="cls-15" x="249.52" y="221.54">a</tspan><tspan class="cls-7" x="256.93" y="221.54">c</tspan><tspan x="263.92" y="221.54">es</tspan></text><text class="cls-2" transform="translate(281.47 236.43)"><tspan class="cls-21" x="0" y="0">po</tspan><tspan class="cls-22" x="14.69" y="0">der</tspan></text><g><path class="cls-19" d="M268.88,227.15l6.85,6.32c-3.22-.47-6.52-.46-9.67-1.27-3.15-.81-6.28-2.62-7.59-5.6"/><line class="cls-19" x1="276.04" y1="233.36" x2="267.64" y2="237.21"/></g><text class="cls-2" transform="translate(151.74 149.23)"><tspan x="0" y="0">místi</tspan><tspan class="cls-11" x="28.93" y="0">c</tspan><tspan x="35.36" y="0">a</tspan></text><g><path class="cls-19" d="M139.16,139.25l6.85,6.32c-3.22-.47-6.52-.46-9.67-1.27-3.15-.81-6.28-2.62-7.59-5.6"/><line class="cls-19" x1="146.32" y1="145.46" x2="137.92" y2="149.31"/></g><text class="cls-2" transform="translate(373.45 135.98)"><tspan x="0" y="0">alegría</tspan></text><g><path class="cls-19" d="M360.87,126l6.85,6.32c-3.22-.47-6.52-.46-9.67-1.27s-6.28-2.62-7.59-5.6"/><line class="cls-19" x1="368.03" y1="132.21" x2="359.63" y2="136.06"/></g></svg>