<?xml version="1.0" encoding="UTF-8"?><svg id="Objects" xmlns="http://www.w3.org/2000/svg" viewBox="0 0 184.48 161.27"><defs><style>.cls-1{fill:#ebedec;}.cls-2{fill:#f8fcfb;}.cls-3{fill:#00d0ce;}.cls-4{fill:#009db3;}.cls-5{fill:#cfd8e7;}</style></defs><path class="cls-5" d="M141.88,10.56V0H42.61V10.56H15.1l1.26,20.82c1.24,20.41,12.65,38.84,30.36,49.06l16.43,9.48c3.73,4.71,7.87,8.96,12.45,12.59l8.39,6.65-.04,13.33c-16.11,2.73-29.46,13.31-36.22,27.63h-10.26v11.15h109.58v-11.15h-10.32c-6.77-14.32-20.11-24.9-36.22-27.63l-.04-13.33,8.39-6.65c4.58-3.63,8.73-7.88,12.45-12.59l16.43-9.48c17.71-10.22,29.12-28.65,30.36-49.06l1.26-20.82h-27.51ZM31.82,36.51l-.66-10.83h11.44v1.77c0,12.93,2.26,25.47,6.42,36.87-10.04-5.79-16.5-16.24-17.21-27.81Zm120.84,0c-.7,11.57-7.17,22.01-17.21,27.81,4.16-11.4,6.42-23.94,6.42-36.87v-1.77h11.44l-.66,10.83Z"/><path class="cls-2" d="M60.41,58.62c-3.68-13.24-3.81-26.9-3.92-38.96-.03-2.78,2.21-5.06,4.99-5.09,2.53-.01,5.06,2.21,5.09,4.99,.11,11.43,.23,24.39,3.56,36.35,.75,2.68-.82,5.46-3.5,6.21-.45,.13-.91,.19-1.35,.19-2.21,0-4.23-1.46-4.85-3.69Z"/><path class="cls-2" d="M70.31,75.54c-2.9,0-5.25-2.35-5.25-5.25s2.35-5.25,5.25-5.25,5.25,2.35,5.25,5.25-2.35,5.25-5.25,5.25Z"/><path class="cls-1" d="M141.88,10.56V0h-.67L62.04,89.28l1.11,.64c3.73,4.71,7.87,8.96,12.45,12.59l8.39,6.65-.04,13.33c-16.11,2.73-29.46,13.31-36.22,27.63h-10.26v11.15h109.58v-11.15h-10.32c-6.77-14.32-20.11-24.9-36.22-27.63l-.04-13.33,8.39-6.65c4.58-3.63,8.73-7.88,12.45-12.59l16.43-9.48c17.71-10.22,29.12-28.65,30.36-49.06l1.26-20.82h-27.51Zm10.78,25.95c-.7,11.57-7.17,22.01-17.21,27.81,4.16-11.4,6.42-23.94,6.42-36.87v-1.77h11.44l-.66,10.83Z"/><path class="cls-3" d="M100.53,122.48s-3.4,1.84-8.42,1.84c-4.36,0-8.15-1.84-8.15-1.84-16.11,2.73-29.46,13.31-36.22,27.63h-10.26v11.15h109.58v-11.15h-10.32c-6.77-14.32-20.11-24.9-36.22-27.63Z"/><rect class="cls-4" x="37.48" y="150.11" width="109.58" height="11.15"/><g><path class="cls-4" d="M17.35,84.97s1.67-6.91-4.09-12.88c-5.78-5.96-13-5.97-13-5.97,0,0-1.76,8.13,3.88,13.94,5.62,5.81,13.21,4.9,13.21,4.9Z"/><path class="cls-4" d="M30.03,83.65s6.7-3.68,7.89-11.68c1.19-8-4.97-13.58-4.97-13.58,0,0-5.87,4.21-7.09,12.42-1.23,8.21,4.17,12.85,4.17,12.85Z"/><path class="cls-4" d="M40.23,103.75s6.16-4.53,6.31-12.61c.13-8.09-6.71-12.82-6.71-12.82,0,0-5.26,4.94-5.4,13.24-.14,8.29,5.8,12.19,5.8,12.19Z"/><path class="cls-4" d="M55.4,115.31s5.7-5.09,5.08-13.15c-.63-8.07-7.87-12.14-7.87-12.14,0,0-4.79,5.41-4.14,13.69,.64,8.27,6.93,11.59,6.93,11.59Z"/><path class="cls-4" d="M74.44,125.27s4.01-6.52,1.09-14.06c-2.92-7.54-11.04-9.36-11.04-9.36,0,0-3.02,6.56-.03,14.3,3,7.74,9.98,9.11,9.98,9.11Z"/><path class="cls-4" d="M20.07,67.26s5.22-4.82,3.73-12.98c-1.49-8.16-7.5-12.18-7.5-12.18,0,0-5.97,5.79-4.51,13.75,1.46,7.96,8.28,11.41,8.28,11.41Z"/><path class="cls-4" d="M24.36,100.59s-.44-7.1-7.7-11.09c-7.28-4-14.18-1.87-14.18-1.87,0,0,.72,8.28,7.8,12.18,7.1,3.9,14.09,.79,14.09,.79Z"/><path class="cls-4" d="M36.66,114.34s-2.01-6.82-9.98-9.1c-7.98-2.28-14.23,1.32-14.23,1.32,0,0,2.54,7.92,10.32,10.14,7.78,2.22,13.89-2.36,13.89-2.36Z"/><path class="cls-4" d="M50.37,124.1s-3.97-5.9-12.27-5.65c-8.3,.24-13.17,5.57-13.17,5.57,0,0,4.82,6.78,12.89,6.55,8.1-.24,12.54-6.46,12.54-6.46Z"/><path class="cls-4" d="M56.24,128.08c-8.21,1.23-12.42,7.11-12.42,7.11,0,0,5.61,6.15,13.59,4.95,8-1.2,11.67-7.91,11.67-7.91,0,0-4.65-5.38-12.85-4.15Z"/><path class="cls-3" d="M22.78,71.31l-3.95-.13c-.02,.43-.79,43.33,64.04,62.35l1.11-3.8c-61.71-18.11-61.24-56.78-61.19-58.42Z"/><path class="cls-4" d="M167.13,84.97s7.6,.91,13.21-4.9c5.63-5.81,3.88-13.94,3.88-13.94,0,0-7.22,0-13,5.97-5.76,5.96-4.09,12.88-4.09,12.88Z"/><path class="cls-4" d="M146.56,71.97c1.19,8,7.89,11.68,7.89,11.68,0,0,5.39-4.64,4.17-12.85-1.22-8.21-7.09-12.42-7.09-12.42,0,0-6.16,5.58-4.98,13.58Z"/><path class="cls-4" d="M137.96,91.14c.14,8.08,6.31,12.61,6.31,12.61,0,0,5.94-3.9,5.81-12.19-.14-8.3-5.4-13.24-5.4-13.24,0,0-6.84,4.73-6.71,12.82Z"/><path class="cls-4" d="M124,102.15c-.62,8.06,5.08,13.15,5.08,13.15,0,0,6.29-3.32,6.93-11.59,.64-8.27-4.14-13.69-4.14-13.69,0,0-7.25,4.08-7.87,12.14Z"/><path class="cls-4" d="M108.95,111.21c-2.92,7.54,1.09,14.06,1.09,14.06,0,0,6.98-1.37,9.97-9.11,2.99-7.74-.03-14.3-.03-14.3,0,0-8.11,1.82-11.03,9.36Z"/><path class="cls-4" d="M172.69,55.86c1.46-7.96-4.51-13.75-4.51-13.75,0,0-6.01,4.02-7.5,12.18-1.49,8.16,3.73,12.98,3.73,12.98,0,0,6.83-3.46,8.28-11.41Z"/><path class="cls-4" d="M167.83,89.5c-7.27,4-7.7,11.09-7.7,11.09,0,0,6.99,3.11,14.08-.79,7.08-3.89,7.8-12.18,7.8-12.18,0,0-6.89-2.12-14.17,1.87Z"/><path class="cls-4" d="M157.81,105.23c-7.98,2.28-9.98,9.1-9.98,9.1,0,0,6.12,4.59,13.9,2.36,7.78-2.22,10.32-10.14,10.32-10.14,0,0-6.25-3.61-14.23-1.32Z"/><path class="cls-4" d="M146.38,118.45c-8.29-.24-12.27,5.65-12.27,5.65,0,0,4.44,6.22,12.54,6.46,8.07,.24,12.89-6.55,12.89-6.55,0,0-4.87-5.32-13.17-5.56Z"/><path class="cls-4" d="M128.25,128.08c-8.2-1.23-12.85,4.15-12.85,4.15,0,0,3.67,6.71,11.67,7.91,7.99,1.2,13.59-4.95,13.59-4.95,0,0-4.21-5.87-12.42-7.11Z"/><path class="cls-3" d="M165.66,71.17l-3.95,.13c.05,1.64,.52,40.31-61.19,58.42l1.11,3.8c64.82-19.02,64.05-61.92,64.04-62.35Z"/></g></svg>