<?xml version="1.0" encoding="UTF-8"?><svg id="Capa_1" xmlns="http://www.w3.org/2000/svg" viewBox="0 0 80.11 57.34"><defs><style>.cls-1{fill:#ba7414;}.cls-2{fill:none;}</style></defs><path class="cls-1" d="M50.55,49.41c-.7,.11-1.09-.76-1.77-.47-.06,.22,.12,.28,.19,.4,.09,.17,.4,.27,.2,.54-.22,.31-.55,.05-.63-.03-.3-.32-.55-.25-.94-.19-1.17,.17-2.37,.08-3.55,.03-1.38-.06-2.76-.15-4.14-.23-.93-.05-1.89,.07-2.68-.66-.27-.25-.69-.1-.83,.24-.13,.31-.35,.31-.5,.2-.25-.18,.03-.32,.14-.45,.44-.53,1.02-.68,1.64-.45,.81,.31,1.62,.19,2.48,.2-.09-.57-.52-.9-.79-1.31-.59-.91-1.3-1.74-1.7-2.77-.28-.71-.98-1.1-1.5-1.6-.42-.4-.58-.81-.51-1.35,.03-.26,.03-.52,.04-.79,.01-.62-.34-.48-.63-.33-1.72,.83-3.51,1.42-5.39,1.72-2.39,.38-4.45,1.47-6.46,2.74-1.28,.81-2.61,1.55-3.92,2.3-.27,.16-.81,.19-.83-.02-.04-.42-.56-.89,.11-1.34,1.32-.89,2.58-1.88,3.83-2.88-1.26,.51-2.6,.83-3.75,1.6-.64,.43-1.42,.53-2.06,.93-.13,.08-.23,0-.31-.09-.1-.11-.07-.19,.01-.31,1.55-2.36,3.6-4.18,6.07-5.52,1.89-1.03,3.27-2.52,4.42-4.28,1.09-1.67,2.58-2.97,4.08-4.25,.73-.63,1.53-1.18,2.27-1.8,.74-.63,1.34-1.37,1.86-2.2,.83-1.32,2.04-2.31,3.31-3.19,1.96-1.37,3.87-2.84,6.1-3.75,1.24-.51,1.94-1.34,2.58-2.48,1.21-2.19,2.91-3.95,5.46-4.56,1.36-.33,2.71-.18,4.01,.46,.97,.48,1.64,1.31,2.52,1.88,.51,.33,1.04,.47,1.65,.48,1.35,.01,2.87,.85,3.31,1.8-1.06,.32-2.17,.53-3.23,.48-1.65-.07-2.55,1.01-3.69,1.85-1.34,.99-.62,2.18-.49,3.3,.33,2.86-.27,5.45-2.03,7.76-2,2.63-4.45,4.78-7.14,6.65-.9,.63-1.9,1.14-2.9,1.62-.42,.2-.61,.54-.86,.85-.77,.96-1.26,2.09-1.86,3.15-.12,.21-.18,.51,0,.81,.94,1.63,2.26,2.99,3.28,4.56,.04,.06,.09,.16,.13,.16,.92,0,1.89,.27,2.74-.12,1.15-.52,1.97-.39,2.7,.7Z"/><rect class="cls-2" width="80.11" height="57.34"/></svg>