<?xml version="1.0" encoding="UTF-8"?><svg id="Capa_5" xmlns="http://www.w3.org/2000/svg" viewBox="0 0 163.92 155.8"><defs><style>.cls-1{fill:#f4e000;}.cls-2{fill:#c789bb;}.cls-3{fill:#458fc6;}.cls-4{fill:#ce8d50;opacity:.75;}.cls-5{fill:#40b9be;}.cls-6{fill:#95c11f;}.cls-7{fill:#f7b05d;}.cls-8{fill:#010101;font-family:Signika-Regular, Signika;font-size:14.44px;}.cls-9{fill:#ef7b66;}.cls-10{fill:#f7bcc6;}</style></defs><g><path class="cls-4" d="M87.25,28v100.77c0,2.31-1.87,4.17-4.17,4.17h0c-2.31,0-4.17-1.87-4.17-4.17V28c0-2.31,1.87-4.17,4.17-4.17h0c2.31,0,4.17,1.87,4.17,4.17Z"/><path class="cls-4" d="M32.7,74.21h100.77c2.31,0,4.17,1.87,4.17,4.17h0c0,2.31-1.87,4.17-4.17,4.17H32.7c-2.31,0-4.17-1.87-4.17-4.17h0c0-2.31,1.87-4.17,4.17-4.17Z"/><path class="cls-4" d="M44.5,111.06L115.76,39.81c1.63-1.63,4.27-1.63,5.9,0h0c1.63,1.63,1.63,4.27,0,5.9L50.4,116.96c-1.63,1.63-4.27,1.63-5.9,0h0c-1.63-1.63-1.63-4.27,0-5.9Z"/><path class="cls-4" d="M115.76,116.96L44.5,45.71c-1.63-1.63-1.63-4.27,0-5.9h0c1.63-1.63,4.27-1.63,5.9,0L121.66,111.06c1.63,1.63,1.63,4.27,0,5.9h0c-1.63,1.63-4.27,1.63-5.9,0Z"/><path class="cls-6" d="M78.9,.31c.86-.13,1.74-.22,2.61-.27,1.13-.06,2.24-.05,3.3,.03,1.14,.09,2.22,.28,3.19,.55,.51,.14,1,.31,1.46,.51,.21,.09,.94,.53,1.11,.67,.31,.25,.59,.56,.83,.9,.22,.32,.42,.69,.59,1.09,.15,.37,.27,.77,.37,1.22,.09,.41,.15,.84,.19,1.31,.03,.42,.04,.86,.02,1.33-.01,.42-.05,.86-.11,1.3-.05,.4-.13,.81-.22,1.21-.1,.46-.23,.91-.38,1.34-.31,.91-.69,1.66-1.16,2.29-.24,.32-.51,.61-.81,.87-.29,.26-.63,.48-.99,.68-.36,.19-.75,.35-1.2,.48-.21,.06-1.33,.25-1.47,.27-1.31,.14-2.64,.18-3.95,.18-1.48,0-3.48-.29-3.76-.35-.54-.13-1.06-.32-1.54-.57-.23-.12-.46-.26-.68-.42-.19-.13-.37-.29-.56-.47-.31-.3-.59-.66-.84-1.06-.45-.72-.78-1.58-1.01-2.62-.19-.88-.3-1.84-.33-2.96-.02-.87,0-5.74,2.35-6.83,.32-.15,.7-.26,1.17-.37,.45-.11,.9-.19,1.32-.26,.16-.03,.33-.05,.49-.08"/><path class="cls-2" d="M130.84,24.13c.86-.13,1.74-.22,2.61-.27,1.13-.06,2.24-.05,3.3,.03,1.14,.09,2.22,.28,3.19,.55,.51,.14,1,.31,1.46,.51,.21,.09,.94,.53,1.11,.67,.31,.25,.59,.56,.83,.9,.22,.32,.42,.69,.59,1.09,.15,.37,.27,.77,.37,1.22,.09,.41,.15,.84,.19,1.31,.03,.42,.04,.86,.02,1.33-.01,.42-.05,.86-.11,1.3-.05,.4-.13,.81-.22,1.21-.1,.46-.23,.91-.38,1.34-.31,.91-.69,1.66-1.16,2.29-.24,.32-.51,.61-.81,.87-.29,.26-.63,.48-.99,.68-.36,.19-.75,.35-1.2,.48-.21,.06-1.33,.25-1.47,.27-1.31,.14-2.64,.18-3.95,.18-1.48,0-3.48-.29-3.76-.35-.54-.13-1.06-.32-1.54-.57-.23-.12-.46-.26-.68-.42-.19-.13-.37-.29-.56-.47-.31-.3-.59-.66-.84-1.06-.45-.72-.78-1.58-1.01-2.62-.19-.88-.3-1.84-.33-2.96-.02-.87,0-5.74,2.35-6.83,.32-.15,.7-.26,1.17-.37,.45-.11,.9-.19,1.32-.26,.16-.03,.33-.05,.49-.08"/><path class="cls-7" d="M150.23,70.54c.86-.13,1.74-.22,2.61-.27,1.13-.06,2.24-.05,3.3,.03,1.14,.09,2.22,.28,3.19,.55,.51,.14,1,.31,1.46,.51,.21,.09,.94,.53,1.11,.67,.31,.25,.59,.56,.83,.9,.22,.32,.42,.69,.59,1.09,.15,.37,.27,.77,.37,1.22,.09,.41,.15,.84,.19,1.31,.03,.42,.04,.86,.02,1.33-.01,.42-.05,.86-.11,1.3-.05,.4-.13,.81-.22,1.21-.1,.46-.23,.91-.38,1.34-.31,.91-.69,1.66-1.16,2.29-.24,.32-.51,.61-.81,.87-.29,.26-.63,.48-.99,.68-.36,.19-.75,.35-1.2,.48-.21,.06-1.33,.25-1.47,.27-1.31,.14-2.64,.18-3.95,.18-1.48,0-3.48-.29-3.76-.35-.54-.13-1.06-.32-1.54-.57-.23-.12-.46-.26-.68-.42-.19-.13-.37-.29-.56-.47-.31-.3-.59-.66-.84-1.06-.45-.72-.78-1.58-1.01-2.62-.19-.88-.3-1.84-.33-2.96-.02-.87,0-5.74,2.35-6.83,.32-.15,.7-.26,1.17-.37,.45-.11,.9-.19,1.32-.26,.16-.03,.33-.05,.49-.08"/><path class="cls-10" d="M78.9,139.47c.86-.13,1.74-.22,2.61-.27,1.13-.06,2.24-.05,3.3,.03,1.14,.09,2.22,.28,3.19,.55,.51,.14,1,.31,1.46,.51,.21,.09,.94,.53,1.11,.67,.31,.25,.59,.56,.83,.9,.22,.32,.42,.69,.59,1.09,.15,.37,.27,.77,.37,1.22,.09,.41,.15,.84,.19,1.31,.03,.42,.04,.86,.02,1.33-.01,.42-.05,.86-.11,1.3-.05,.4-.13,.81-.22,1.21-.1,.46-.23,.91-.38,1.34-.31,.91-.69,1.66-1.16,2.29-.24,.32-.51,.61-.81,.87-.29,.26-.63,.48-.99,.68-.36,.19-.75,.35-1.2,.48-.21,.06-1.33,.25-1.47,.27-1.31,.14-2.64,.18-3.95,.18-1.48,0-3.48-.29-3.76-.35-.54-.13-1.06-.32-1.54-.57-.23-.12-.46-.26-.68-.42-.19-.13-.37-.29-.56-.47-.31-.3-.59-.66-.84-1.06-.45-.72-.78-1.58-1.01-2.62-.19-.88-.3-1.84-.33-2.96-.02-.87,0-5.74,2.35-6.83,.32-.15,.7-.26,1.17-.37,.45-.11,.9-.19,1.32-.26,.16-.03,.33-.05,.49-.08"/><path class="cls-5" d="M130.84,118.49c.86-.13,1.74-.22,2.61-.27,1.13-.06,2.24-.05,3.3,.03,1.14,.09,2.22,.28,3.19,.55,.51,.14,1,.31,1.46,.51,.21,.09,.94,.53,1.11,.67,.31,.25,.59,.56,.83,.9,.22,.32,.42,.69,.59,1.09,.15,.37,.27,.77,.37,1.22,.09,.41,.15,.84,.19,1.31,.03,.42,.04,.86,.02,1.33-.01,.42-.05,.86-.11,1.3-.05,.4-.13,.81-.22,1.21-.1,.46-.23,.91-.38,1.34-.31,.91-.69,1.66-1.16,2.29-.24,.32-.51,.61-.81,.87-.29,.26-.63,.48-.99,.68-.36,.19-.75,.35-1.2,.48-.21,.06-1.33,.25-1.47,.27-1.31,.14-2.64,.18-3.95,.18-1.48,0-3.48-.29-3.76-.35-.54-.13-1.06-.32-1.54-.57-.23-.12-.46-.26-.68-.42-.19-.13-.37-.29-.56-.47-.31-.3-.59-.66-.84-1.06-.45-.72-.78-1.58-1.01-2.62-.19-.88-.3-1.84-.33-2.96-.02-.87,0-5.74,2.35-6.83,.32-.15,.7-.26,1.17-.37,.45-.11,.9-.19,1.32-.26,.16-.03,.33-.05,.49-.08"/><path class="cls-3" d="M24.35,121.28c.86-.13,1.74-.22,2.61-.27,1.13-.06,2.24-.05,3.3,.03,1.14,.09,2.22,.28,3.19,.55,.51,.14,1,.31,1.46,.51,.21,.09,.94,.53,1.11,.67,.31,.25,.59,.56,.83,.9,.22,.32,.42,.69,.59,1.09,.15,.37,.27,.77,.37,1.22,.09,.41,.15,.84,.19,1.31,.03,.42,.04,.86,.02,1.33-.01,.42-.05,.86-.11,1.3-.05,.4-.13,.81-.22,1.21-.1,.46-.23,.91-.38,1.34-.31,.91-.69,1.66-1.16,2.29-.24,.32-.51,.61-.81,.87-.29,.26-.63,.48-.99,.68-.36,.19-.75,.35-1.2,.48-.21,.06-1.33,.25-1.47,.27-1.31,.14-2.64,.18-3.95,.18-1.48,0-3.48-.29-3.76-.35-.54-.13-1.06-.32-1.54-.57-.23-.12-.46-.26-.68-.42-.19-.13-.37-.29-.56-.47-.31-.3-.59-.66-.84-1.06-.45-.72-.78-1.58-1.01-2.62-.19-.88-.3-1.84-.33-2.96-.02-.87,0-5.74,2.35-6.83,.32-.15,.7-.26,1.17-.37,.45-.11,.9-.19,1.32-.26,.16-.03,.33-.05,.49-.08"/><path class="cls-9" d="M5.33,70.54c.86-.13,1.74-.22,2.61-.27,1.13-.06,2.24-.05,3.3,.03,1.14,.09,2.22,.28,3.19,.55,.51,.14,1,.31,1.46,.51,.21,.09,.94,.53,1.11,.67,.31,.25,.59,.56,.83,.9,.22,.32,.42,.69,.59,1.09,.15,.37,.27,.77,.37,1.22,.09,.41,.15,.84,.19,1.31,.03,.42,.04,.86,.02,1.33-.01,.42-.05,.86-.11,1.3-.05,.4-.13,.81-.22,1.21-.1,.46-.23,.91-.38,1.34-.31,.91-.69,1.66-1.16,2.29-.24,.32-.51,.61-.81,.87-.29,.26-.63,.48-.99,.68-.36,.19-.75,.35-1.2,.48-.21,.06-1.33,.25-1.47,.27-1.31,.14-2.64,.18-3.95,.18-1.48,0-3.48-.29-3.76-.35-.54-.13-1.06-.32-1.54-.57-.23-.12-.46-.26-.68-.42-.19-.13-.37-.29-.56-.47-.31-.3-.59-.66-.84-1.06-.45-.72-.78-1.58-1.01-2.62-.19-.88-.3-1.84-.33-2.96-.02-.87,0-5.74,2.35-6.83,.32-.15,.7-.26,1.17-.37,.45-.11,.9-.19,1.32-.26,.16-.03,.33-.05,.49-.08"/><path class="cls-1" d="M24.35,22.59c.86-.13,1.74-.22,2.61-.27,1.13-.06,2.24-.05,3.3,.03,1.14,.09,2.22,.28,3.19,.55,.51,.14,1,.31,1.46,.51,.21,.09,.94,.53,1.11,.67,.31,.25,.59,.56,.83,.9,.22,.32,.42,.69,.59,1.09,.15,.37,.27,.77,.37,1.22,.09,.41,.15,.84,.19,1.31,.03,.42,.04,.86,.02,1.33-.01,.42-.05,.86-.11,1.3-.05,.4-.13,.81-.22,1.21-.1,.46-.23,.91-.38,1.34-.31,.91-.69,1.66-1.16,2.29-.24,.32-.51,.61-.81,.87-.29,.26-.63,.48-.99,.68-.36,.19-.75,.35-1.2,.48-.21,.06-1.33,.25-1.47,.27-1.31,.14-2.64,.18-3.95,.18-1.48,0-3.48-.29-3.76-.35-.54-.13-1.06-.32-1.54-.57-.23-.12-.46-.26-.68-.42-.19-.13-.37-.29-.56-.47-.31-.3-.59-.66-.84-1.06-.45-.72-.78-1.58-1.01-2.62-.19-.88-.3-1.84-.33-2.96-.02-.87,0-5.74,2.35-6.83,.32-.15,.7-.26,1.17-.37,.45-.11,.9-.19,1.32-.26,.16-.03,.33-.05,.49-.08"/></g><text class="cls-8" transform="translate(78.53 12.94)"><tspan x="0" y="0">A</tspan></text><text class="cls-8" transform="translate(23.25 134.74)"><tspan x="0" y="0">G</tspan></text><text class="cls-8" transform="translate(22.93 36.77)"><tspan x="0" y="0">U</tspan></text><text class="cls-8" transform="translate(4.39 83.07)"><tspan x="0" y="0">C</tspan></text><text class="cls-8" transform="translate(150.97 83.07)"><tspan x="0" y="0">T</tspan></text><text class="cls-8" transform="translate(133.02 37.87)"><tspan x="0" y="0">I</tspan></text><text class="cls-8" transform="translate(78.91 152)"><tspan x="0" y="0">L</tspan></text><text class="cls-8" transform="translate(129.77 132.23)"><tspan x="0" y="0">O</tspan></text></svg>